<?xml version="1.0" encoding="UTF-8" standalone="no"?>
<!DOCTYPE svg PUBLIC "-//W3C//DTD SVG 1.1//EN"
 "http://www.w3.org/Graphics/SVG/1.1/DTD/svg11.dtd">
<!-- Generated by graphviz version 8.1.0 (20230707.0739)
 -->
<!-- Title: OpenShift Certificates Pages: 1 -->
<svg width="12881pt" height="401pt"
 viewBox="0.00 0.00 12881.33 401.38" xmlns="http://www.w3.org/2000/svg" xmlns:xlink="http://www.w3.org/1999/xlink">
<g id="graph0" class="graph" transform="scale(1 1) rotate(0) translate(4 397.38)">
<title>OpenShift Certificates</title>
<polygon fill="white" stroke="none" points="-4,4 -4,-397.38 12877.33,-397.38 12877.33,4 -4,4"/>
<!-- 0 -->
<g id="node1" class="node">
<title>0</title>
<ellipse fill="#c7bfff" stroke="black" cx="2070.28" cy="-233.28" rx="358.15" ry="41.37"/>
<text text-anchor="middle" x="2070.28" y="-245.23" font-family="Times,serif" font-size="14.00">certkeypair/kube&#45;apiserver&#45;localhost&#45;signer::6263268324069729512</text>
<text text-anchor="middle" x="2070.28" y="-211.98" font-family="Times,serif" font-size="14.00">secret/localhost&#45;serving&#45;signer &#45;nopenshift&#45;kube&#45;apiserver&#45;operator</text>
</g>
<!-- 8 -->
<g id="node9" class="node">
<title>8</title>
<ellipse fill="#bdebfd" stroke="black" cx="334.28" cy="-77.96" rx="334.28" ry="41.37"/>
<text text-anchor="middle" x="334.28" y="-89.91" font-family="Times,serif" font-size="14.00">certkeypair/127.0.0.1::7980066732065963980</text>
<text text-anchor="middle" x="334.28" y="-56.66" font-family="Times,serif" font-size="14.00">secret/localhost&#45;serving&#45;cert&#45;certkey &#45;nopenshift&#45;kube&#45;apiserver</text>
</g>
<!-- 0&#45;&gt;8 -->
<g id="edge1" class="edge">
<title>0&#45;&gt;8</title>
<path fill="none" stroke="black" d="M1713.75,-228.99C1431.38,-222.48 1027.55,-204.47 677.28,-155.92 613.7,-147.1 544.46,-132.54 484.95,-118.44"/>
<polygon fill="black" stroke="black" points="485.88,-114.82 475.34,-115.91 484.25,-121.63 485.88,-114.82"/>
</g>
<!-- 11 -->
<g id="node12" class="node">
<title>11</title>
<ellipse fill="#fda172" stroke="black" cx="1043.28" cy="-77.96" rx="357.09" ry="41.37"/>
<text text-anchor="middle" x="1043.28" y="-89.91" font-family="Times,serif" font-size="14.00">cabundle/kube&#45;apiserver&#45;localhost&#45;signer</text>
<text text-anchor="middle" x="1043.28" y="-56.66" font-family="Times,serif" font-size="14.00">configmaps/localhost&#45;serving&#45;ca &#45;nopenshift&#45;kube&#45;apiserver&#45;operator</text>
</g>
<!-- 0&#45;&gt;11 -->
<g id="edge2" class="edge">
<title>0&#45;&gt;11</title>
<path fill="none" stroke="black" d="M1796.14,-206.34C1676.93,-193.58 1535.85,-176.49 1409.28,-155.92 1344.46,-145.38 1273.72,-131.16 1211.87,-117.8"/>
<polygon fill="black" stroke="black" points="1212.74,-114.19 1202.22,-115.49 1211.25,-121.03 1212.74,-114.19"/>
</g>
<!-- 12 -->
<g id="node13" class="node">
<title>12</title>
<ellipse fill="#fda172" stroke="black" cx="4092.28" cy="-77.96" rx="964.32" ry="53.56"/>
<text text-anchor="middle" x="4092.28" y="-98.53" font-family="Times,serif" font-size="14.00">cabundle/kube&#45;apiserver&#45;lb&#45;signer|kube&#45;apiserver&#45;localhost&#45;signer|kube&#45;apiserver&#45;service&#45;network&#45;signer|openshift&#45;kube&#45;apiserver&#45;operator_localhost&#45;recovery&#45;serving&#45;signer@1704273804</text>
<text text-anchor="middle" x="4092.28" y="-65.28" font-family="Times,serif" font-size="14.00">configmaps/kube&#45;apiserver&#45;server&#45;ca &#45;nopenshift&#45;config&#45;managed</text>
<text text-anchor="middle" x="4092.28" y="-48.03" font-family="Times,serif" font-size="14.00"> &#160;&#160;&#160;configmaps/kube&#45;apiserver&#45;server&#45;ca &#45;nopenshift&#45;kube&#45;apiserver</text>
</g>
<!-- 0&#45;&gt;12 -->
<g id="edge3" class="edge">
<title>0&#45;&gt;12</title>
<path fill="none" stroke="black" d="M2372.44,-210.79C2582.05,-195.76 2867.68,-175.03 3119.28,-155.92 3254.83,-145.62 3400.98,-134.22 3537.76,-123.42"/>
<polygon fill="black" stroke="black" points="3537.74,-126.86 3547.44,-122.58 3537.19,-119.88 3537.74,-126.86"/>
</g>
<!-- 16 -->
<g id="node17" class="node">
<title>16</title>
<ellipse fill="#fda172" stroke="black" cx="7966.28" cy="-77.96" rx="1377.44" ry="53.56"/>
<text text-anchor="middle" x="7966.28" y="-98.53" font-family="Times,serif" font-size="14.00">cabundle/kube&#45;apiserver&#45;lb&#45;signer|kube&#45;apiserver&#45;localhost&#45;signer|kube&#45;apiserver&#45;service&#45;network&#45;signer|openshift&#45;kube&#45;apiserver&#45;operator_localhost&#45;recovery&#45;serving&#45;signer@1704273804|*.apps.ci&#45;op&#45;mlisxgvx&#45;5feef.aws&#45;2.ci.openshift.org|ingress&#45;operator@1704273869</text>
<text text-anchor="middle" x="7966.28" y="-65.28" font-family="Times,serif" font-size="14.00">configmaps/serviceaccount&#45;ca &#45;nopenshift&#45;kube&#45;controller&#45;manager</text>
<text text-anchor="middle" x="7966.28" y="-48.03" font-family="Times,serif" font-size="14.00"> &#160;&#160;&#160;configmaps/serviceaccount&#45;ca &#45;nopenshift&#45;kube&#45;scheduler</text>
</g>
<!-- 0&#45;&gt;16 -->
<g id="edge4" class="edge">
<title>0&#45;&gt;16</title>
<path fill="none" stroke="black" d="M2371.71,-210.65C2485.02,-203.38 2615.01,-196.07 2733.28,-191.92 4442.09,-131.94 4871.33,-211.33 6580.28,-155.92 6798.21,-148.85 7035.2,-137.17 7250.58,-125.01"/>
<polygon fill="black" stroke="black" points="7250.68,-128.46 7260.47,-124.4 7250.29,-121.47 7250.68,-128.46"/>
</g>
<!-- 1 -->
<g id="node2" class="node">
<title>1</title>
<ellipse fill="#c7bfff" stroke="black" cx="3361.28" cy="-233.28" rx="618.54" ry="41.37"/>
<text text-anchor="middle" x="3361.28" y="-245.23" font-family="Times,serif" font-size="14.00">certkeypair/openshift&#45;kube&#45;apiserver&#45;operator_localhost&#45;recovery&#45;serving&#45;signer@1704273804::7848375026133314319</text>
<text text-anchor="middle" x="3361.28" y="-211.98" font-family="Times,serif" font-size="14.00">secret/localhost&#45;recovery&#45;serving&#45;signer &#45;nopenshift&#45;kube&#45;apiserver&#45;operator</text>
</g>
<!-- 2 -->
<g id="node3" class="node">
<title>2</title>
<ellipse fill="#bdebfd" stroke="black" cx="1776.28" cy="-77.96" rx="358.15" ry="41.37"/>
<text text-anchor="middle" x="1776.28" y="-89.91" font-family="Times,serif" font-size="14.00">certkeypair/localhost&#45;recovery::3947081783999751122</text>
<text text-anchor="middle" x="1776.28" y="-56.66" font-family="Times,serif" font-size="14.00">secret/localhost&#45;recovery&#45;serving&#45;certkey &#45;nopenshift&#45;kube&#45;apiserver</text>
</g>
<!-- 1&#45;&gt;2 -->
<g id="edge5" class="edge">
<title>1&#45;&gt;2</title>
<path fill="none" stroke="black" d="M2808.63,-214.49C2599.53,-203.34 2359.8,-185.25 2143.28,-155.92 2075.61,-146.75 2001.76,-132.17 1938.18,-118.16"/>
<polygon fill="black" stroke="black" points="1939.17,-114.57 1928.65,-115.82 1937.66,-121.4 1939.17,-114.57"/>
</g>
<!-- 1&#45;&gt;12 -->
<g id="edge6" class="edge">
<title>1&#45;&gt;12</title>
<path fill="none" stroke="black" d="M3546.69,-193.39C3634.86,-174.9 3741.66,-152.5 3837.31,-132.44"/>
<polygon fill="black" stroke="black" points="3837.95,-135.67 3847.02,-130.19 3836.52,-128.82 3837.95,-135.67"/>
</g>
<!-- 13 -->
<g id="node14" class="node">
<title>13</title>
<ellipse fill="#fda172" stroke="black" cx="2631.28" cy="-77.96" rx="479.06" ry="41.37"/>
<text text-anchor="middle" x="2631.28" y="-89.91" font-family="Times,serif" font-size="14.00">cabundle/openshift&#45;kube&#45;apiserver&#45;operator_localhost&#45;recovery&#45;serving&#45;signer@1704273804</text>
<text text-anchor="middle" x="2631.28" y="-56.66" font-family="Times,serif" font-size="14.00">configmaps/localhost&#45;recovery&#45;serving&#45;ca &#45;nopenshift&#45;kube&#45;apiserver&#45;operator</text>
</g>
<!-- 1&#45;&gt;13 -->
<g id="edge7" class="edge">
<title>1&#45;&gt;13</title>
<path fill="none" stroke="black" d="M3176.13,-193.39C3067.69,-170.62 2931.02,-141.91 2821.69,-118.95"/>
<polygon fill="black" stroke="black" points="2822.7,-115.38 2812.19,-116.75 2821.26,-122.23 2822.7,-115.38"/>
</g>
<!-- 1&#45;&gt;16 -->
<g id="edge8" class="edge">
<title>1&#45;&gt;16</title>
<path fill="none" stroke="black" d="M3950.91,-220.54C4736.84,-204.5 6086.03,-175.5 6580.28,-155.92 6789.9,-147.61 7017.22,-136.06 7225.97,-124.42"/>
<polygon fill="black" stroke="black" points="7226.05,-127.87 7235.84,-123.82 7225.66,-120.88 7226.05,-127.87"/>
</g>
<!-- 3 -->
<g id="node4" class="node">
<title>3</title>
<ellipse fill="#c7bfff" stroke="black" cx="5799.28" cy="-233.28" rx="393.68" ry="41.37"/>
<text text-anchor="middle" x="5799.28" y="-245.23" font-family="Times,serif" font-size="14.00">certkeypair/kube&#45;apiserver&#45;service&#45;network&#45;signer::4393677514218278744</text>
<text text-anchor="middle" x="5799.28" y="-211.98" font-family="Times,serif" font-size="14.00">secret/service&#45;network&#45;serving&#45;signer &#45;nopenshift&#45;kube&#45;apiserver&#45;operator</text>
</g>
<!-- 4 -->
<g id="node5" class="node">
<title>4</title>
<ellipse fill="#bdebfd" stroke="black" cx="5421.28" cy="-77.96" rx="346.48" ry="41.37"/>
<text text-anchor="middle" x="5421.28" y="-89.91" font-family="Times,serif" font-size="14.00">certkeypair/172.30.0.1::3074158037071720576</text>
<text text-anchor="middle" x="5421.28" y="-56.66" font-family="Times,serif" font-size="14.00">secret/service&#45;network&#45;serving&#45;certkey &#45;nopenshift&#45;kube&#45;apiserver</text>
</g>
<!-- 3&#45;&gt;4 -->
<g id="edge9" class="edge">
<title>3&#45;&gt;4</title>
<path fill="none" stroke="black" d="M5701.94,-192.8C5648.6,-171.16 5582.42,-144.32 5527.72,-122.13"/>
<polygon fill="black" stroke="black" points="5529.23,-118.56 5518.64,-118.04 5526.6,-125.05 5529.23,-118.56"/>
</g>
<!-- 3&#45;&gt;12 -->
<g id="edge10" class="edge">
<title>3&#45;&gt;12</title>
<path fill="none" stroke="black" d="M5503.41,-205.71C5256.51,-183.53 4898.89,-151.41 4605.45,-125.05"/>
<polygon fill="black" stroke="black" points="4605.88,-121.49 4595.6,-124.08 4605.25,-128.46 4605.88,-121.49"/>
</g>
<!-- 14 -->
<g id="node15" class="node">
<title>14</title>
<ellipse fill="#fda172" stroke="black" cx="6178.28" cy="-77.96" rx="392.62" ry="41.37"/>
<text text-anchor="middle" x="6178.28" y="-89.91" font-family="Times,serif" font-size="14.00">cabundle/kube&#45;apiserver&#45;service&#45;network&#45;signer</text>
<text text-anchor="middle" x="6178.28" y="-56.66" font-family="Times,serif" font-size="14.00">configmaps/service&#45;network&#45;serving&#45;ca &#45;nopenshift&#45;kube&#45;apiserver&#45;operator</text>
</g>
<!-- 3&#45;&gt;14 -->
<g id="edge11" class="edge">
<title>3&#45;&gt;14</title>
<path fill="none" stroke="black" d="M5896.89,-192.8C5950.05,-171.29 6015.96,-144.63 6070.62,-122.52"/>
<polygon fill="black" stroke="black" points="6071.73,-125.44 6079.68,-118.44 6069.1,-118.95 6071.73,-125.44"/>
</g>
<!-- 3&#45;&gt;16 -->
<g id="edge12" class="edge">
<title>3&#45;&gt;16</title>
<path fill="none" stroke="black" d="M6122.83,-209.39C6431.99,-187.52 6907.42,-153.88 7298.03,-126.24"/>
<polygon fill="black" stroke="black" points="7298.25,-129.66 7307.98,-125.47 7297.76,-122.68 7298.25,-129.66"/>
</g>
<!-- 5 -->
<g id="node6" class="node">
<title>5</title>
<ellipse fill="#c7bfff" stroke="black" cx="9811.28" cy="-233.28" rx="371.41" ry="41.37"/>
<text text-anchor="middle" x="9811.28" y="-245.23" font-family="Times,serif" font-size="14.00">certkeypair/kube&#45;apiserver&#45;lb&#45;signer::4624852848640529251</text>
<text text-anchor="middle" x="9811.28" y="-211.98" font-family="Times,serif" font-size="14.00">secret/loadbalancer&#45;serving&#45;signer &#45;nopenshift&#45;kube&#45;apiserver&#45;operator</text>
</g>
<!-- 6 -->
<g id="node7" class="node">
<title>6</title>
<ellipse fill="#bdebfd" stroke="black" cx="9811.28" cy="-77.96" rx="449.37" ry="41.37"/>
<text text-anchor="middle" x="9811.28" y="-89.91" font-family="Times,serif" font-size="14.00">certkeypair/api&#45;int.ci&#45;op&#45;mlisxgvx&#45;5feef.aws&#45;2.ci.openshift.org::2878555592070185251</text>
<text text-anchor="middle" x="9811.28" y="-56.66" font-family="Times,serif" font-size="14.00">secret/internal&#45;loadbalancer&#45;serving&#45;certkey &#45;nopenshift&#45;kube&#45;apiserver</text>
</g>
<!-- 5&#45;&gt;6 -->
<g id="edge13" class="edge">
<title>5&#45;&gt;6</title>
<path fill="none" stroke="black" d="M9811.28,-191.6C9811.28,-172.81 9811.28,-150.29 9811.28,-130.34"/>
<polygon fill="black" stroke="black" points="9814.78,-130.57 9811.28,-120.57 9807.78,-130.57 9814.78,-130.57"/>
</g>
<!-- 7 -->
<g id="node8" class="node">
<title>7</title>
<ellipse fill="#bdebfd" stroke="black" cx="10711.28" cy="-77.96" rx="432.4" ry="41.37"/>
<text text-anchor="middle" x="10711.28" y="-89.91" font-family="Times,serif" font-size="14.00">certkeypair/api.ci&#45;op&#45;mlisxgvx&#45;5feef.aws&#45;2.ci.openshift.org::7483887125459485093</text>
<text text-anchor="middle" x="10711.28" y="-56.66" font-family="Times,serif" font-size="14.00">secret/external&#45;loadbalancer&#45;serving&#45;certkey &#45;nopenshift&#45;kube&#45;apiserver</text>
</g>
<!-- 5&#45;&gt;7 -->
<g id="edge14" class="edge">
<title>5&#45;&gt;7</title>
<path fill="none" stroke="black" d="M10016.53,-198.38C10095.56,-185.25 10186.64,-170 10269.28,-155.92 10343.29,-143.3 10424.23,-129.28 10496.38,-116.69"/>
<polygon fill="black" stroke="black" points="10496.71,-120.02 10505.96,-114.85 10495.51,-113.12 10496.71,-120.02"/>
</g>
<!-- 5&#45;&gt;12 -->
<g id="edge15" class="edge">
<title>5&#45;&gt;12</title>
<path fill="none" stroke="black" d="M9441.23,-229.33C8479.2,-221.19 5915.48,-196.26 5066.28,-155.92 4914.68,-148.71 4750.06,-137.15 4600.05,-125.14"/>
<polygon fill="black" stroke="black" points="4600.53,-121.59 4590.28,-124.28 4599.97,-128.57 4600.53,-121.59"/>
</g>
<!-- 15 -->
<g id="node16" class="node">
<title>15</title>
<ellipse fill="#fda172" stroke="black" cx="11538.28" cy="-77.96" rx="376.71" ry="41.37"/>
<text text-anchor="middle" x="11538.28" y="-89.91" font-family="Times,serif" font-size="14.00">cabundle/kube&#45;apiserver&#45;lb&#45;signer</text>
<text text-anchor="middle" x="11538.28" y="-56.66" font-family="Times,serif" font-size="14.00">configmaps/loadbalancer&#45;serving&#45;ca &#45;nopenshift&#45;kube&#45;apiserver&#45;operator</text>
</g>
<!-- 5&#45;&gt;15 -->
<g id="edge16" class="edge">
<title>5&#45;&gt;15</title>
<path fill="none" stroke="black" d="M10176.1,-225.28C10446.48,-216.75 10823.53,-197.84 11152.28,-155.92 11223.7,-146.81 11301.72,-132.16 11368.81,-118.08"/>
<polygon fill="black" stroke="black" points="11369.42,-121.32 11378.48,-115.82 11367.97,-114.47 11369.42,-121.32"/>
</g>
<!-- 5&#45;&gt;16 -->
<g id="edge17" class="edge">
<title>5&#45;&gt;16</title>
<path fill="none" stroke="black" d="M9516.39,-207.78C9258.41,-186.34 8875.9,-154.55 8555.42,-127.92"/>
<polygon fill="black" stroke="black" points="8555.78,-124.35 8545.52,-127.01 8555.2,-131.33 8555.78,-124.35"/>
</g>
<!-- 9 -->
<g id="node10" class="node">
<title>9</title>
<ellipse fill="#bdebfd" stroke="black" cx="11287.28" cy="-233.28" rx="448.84" ry="41.37"/>
<text text-anchor="middle" x="11287.28" y="-245.23" font-family="Times,serif" font-size="14.00">certkeypair/*.apps.ci&#45;op&#45;mlisxgvx&#45;5feef.aws&#45;2.ci.openshift.org::2822621581346623594</text>
<text text-anchor="middle" x="11287.28" y="-211.98" font-family="Times,serif" font-size="14.00">secret/router&#45;certs&#45;default &#45;nopenshift&#45;ingress</text>
</g>
<!-- 9&#45;&gt;16 -->
<g id="edge18" class="edge">
<title>9&#45;&gt;16</title>
<path fill="none" stroke="black" d="M10874.69,-216.77C10396.71,-198.65 9638.38,-169.45 9353.28,-155.92 9152.42,-146.38 8935.25,-134.89 8733.72,-123.73"/>
<polygon fill="black" stroke="black" points="8734.1,-120.19 8723.92,-123.13 8733.71,-127.18 8734.1,-120.19"/>
</g>
<!-- 17 -->
<g id="node18" class="node">
<title>17</title>
<ellipse fill="#fda172" stroke="black" cx="12403.28" cy="-77.96" rx="470.05" ry="77.96"/>
<text text-anchor="middle" x="12403.28" y="-115.78" font-family="Times,serif" font-size="14.00">cabundle/*.apps.ci&#45;op&#45;mlisxgvx&#45;5feef.aws&#45;2.ci.openshift.org|ingress&#45;operator@1704273869</text>
<text text-anchor="middle" x="12403.28" y="-82.53" font-family="Times,serif" font-size="14.00">configmaps/default&#45;ingress&#45;cert &#45;nopenshift&#45;config&#45;managed</text>
<text text-anchor="middle" x="12403.28" y="-65.28" font-family="Times,serif" font-size="14.00"> &#160;&#160;&#160;configmaps/oauth&#45;serving&#45;cert &#45;nopenshift&#45;config&#45;managed</text>
<text text-anchor="middle" x="12403.28" y="-48.03" font-family="Times,serif" font-size="14.00"> &#160;&#160;&#160;configmaps/default&#45;ingress&#45;cert &#45;nopenshift&#45;console</text>
<text text-anchor="middle" x="12403.28" y="-30.78" font-family="Times,serif" font-size="14.00"> &#160;&#160;&#160;configmaps/oauth&#45;serving&#45;cert &#45;nopenshift&#45;console</text>
</g>
<!-- 9&#45;&gt;17 -->
<g id="edge19" class="edge">
<title>9&#45;&gt;17</title>
<path fill="none" stroke="black" d="M11570.22,-200.82C11680.8,-187.88 11808.6,-172.14 11924.28,-155.92 11968.97,-149.65 12015.94,-142.64 12062.27,-135.46"/>
<polygon fill="black" stroke="black" points="12062.73,-138.78 12072.08,-133.78 12061.66,-131.86 12062.73,-138.78"/>
</g>
<!-- 10 -->
<g id="node11" class="node">
<title>10</title>
<ellipse fill="#c7bfff" stroke="black" cx="11287.28" cy="-352.01" rx="242.54" ry="41.37"/>
<text text-anchor="middle" x="11287.28" y="-363.96" font-family="Times,serif" font-size="14.00">certkeypair/ingress&#45;operator@1704273869::1</text>
<text text-anchor="middle" x="11287.28" y="-330.71" font-family="Times,serif" font-size="14.00">secret/router&#45;ca &#45;nopenshift&#45;ingress&#45;operator</text>
</g>
<!-- 10&#45;&gt;9 -->
<g id="edge20" class="edge">
<title>10&#45;&gt;9</title>
<path fill="none" stroke="black" d="M11287.28,-310.19C11287.28,-302.32 11287.28,-293.99 11287.28,-285.84"/>
<polygon fill="black" stroke="black" points="11290.78,-285.89 11287.28,-275.89 11283.78,-285.89 11290.78,-285.89"/>
</g>
<!-- 10&#45;&gt;16 -->
<g id="edge21" class="edge">
<title>10&#45;&gt;16</title>
<path fill="none" stroke="black" d="M11045.47,-348.13C10690.8,-342.3 10008.98,-325.01 9431.28,-274.65 9040.65,-240.59 8594.37,-177.47 8298.06,-132.11"/>
<polygon fill="black" stroke="black" points="8299,-128.56 8288.58,-130.5 8297.94,-135.48 8299,-128.56"/>
</g>
<!-- 10&#45;&gt;17 -->
<g id="edge22" class="edge">
<title>10&#45;&gt;17</title>
<path fill="none" stroke="black" d="M11473.83,-325.27C11557.34,-312.37 11656.73,-295.12 11745.28,-274.65 11893.39,-240.42 12057.25,-191.72 12184.4,-151.47"/>
<polygon fill="black" stroke="black" points="12185.18,-154.58 12193.65,-148.22 12183.06,-147.9 12185.18,-154.58"/>
</g>
</g>
</svg>
