<?xml version="1.0" standalone="no"?>
<!DOCTYPE svg PUBLIC "-//W3C//DTD SVG 1.1//EN" "http://www.w3.org/Graphics/SVG/1.1/DTD/svg11.dtd" >
<svg xmlns="http://www.w3.org/2000/svg">
<metadata>
This is a custom SVG font generated by IcoMoon.
<iconset id="openshift-icon" name="openshift-icon" grid="16"></iconset><license name="SIL Open Font License, Version 1.1" href="http://scripts.sil.org/OFL"></license>
</metadata>
<defs>
<font id="openshift-icon" horiz-adv-x="512" >
<font-face units-per-em="512" ascent="480" descent="-32" />
<missing-glyph horiz-adv-x="512" />
<glyph class="hidden" unicode="&#xf000;" d="M0,480L 512 -32L0 -32 z" horiz-adv-x="0" />
<glyph unicode="&#xe000;" d="M 255.063,480 C 186.738,479.561 128,426.761 128,355.937 L 128,224 l -14.75,0 c -27.345,0 -49.344-22.029 -49.344-49.375 l 0-206.625 384.187,0 0,206.625 C 448.094,201.971 426.095,224 398.75,224 l -14.625,0 0,130.938 C 383.664,424.659 325.040,480.449 255.063,480 z m 1-64.031 c 35.525,0.224 63.285-26.873 64.031-61.031 0.007-0.327 -0.002-0.673 0-1 l 0-129.938 -128.063,0 0,131.938 c 0,37.371 26.515,59.79 64.031,60.031 z" data-tags="lock" />
<glyph unicode="&#xe001;" d="M 64.094,224.094  m0,0,0-0.094 -14.75,0 C 21.999,224 0,201.971 0,174.625 l 0-206.625 384.187,0 0,206.625 c 0,27.346 -21.999,49.375 -49.344,49.375 l -14.625,0 -64.031,0 -32.219,0 -95.843,0 0,0.094 -64.031,0 z M 382.938,479.997 c -68.325-0.439 -127.063-53.239 -127.063-124.063 l 0-131.938 c 0.031,0 64.031,0 64.031,0 l 0,131.938 c 0,37.371 26.515,59.79 64.031,60.031 35.525,0.224 63.285-26.873 64.031-61.031 0.007-0.327 -0.002-0.673 0-1 l 0-33.938 64.031,0 0,34.938 C 511.539,424.656 452.915,480.446 382.938,479.997 z" data-tags="unlock" />
<glyph unicode="&#xe002;" d="M 192,448l0-32 l 128,0 L 320,448 L 192,448 zM 448,160l 32,0 L 480,288 l-32,0 L 448,160 zM 160,448l0-320 l 320,0 l0,32 l-32,0 L 192,160 L 192,416 L 192,448 L 160,448 zM 352,352l 32,0 l0-32 l-32,0 L 352,352 zM 288,320l 64,0 l0-64 l-64,0 L 288,320 zM 384,480L 512,480L 512,448L 384,448zM 480,480L 512,480L 512,352L 480,352zM 384,384l 32,0 l0-32 l-32,0 L 384,384 zM 416,416l 32,0 l0-32 l-32,0 L 416,416 z" data-tags="outgoing-link" />
<glyph unicode="&#xe003;" d="M 96,448L 160,448L 160,384L 96,384zM 192,352L 256,352L 256,288L 192,288zM 288,256L 352,256L 352,192L 288,192zM 192,160L 256,160L 256,96L 192,96zM 96,64L 160,64L 160,0L 96,0z" data-tags="arrow-sm-right" />
<glyph unicode="&#xe004;" d="M 384,0L 320,0L 320,64L 384,64zM 288,96L 224,96L 224,160L 288,160zM 192,192L 128,192L 128,256L 192,256zM 288,288L 224,288L 224,352L 288,352zM 384,384L 320,384L 320,448L 384,448z" data-tags="arrow-sm-left" />
<glyph unicode="&#xe005;" d="M 480,352L 480,288L 416,288L 416,352zM 384,256L 384,192L 320,192L 320,256zM 288,160L 288,96L 224,96L 224,160zM 192,256L 192,192L 128,192L 128,256zM 96,352L 96,288L 32,288L 32,352z" data-tags="arrow-sm-down" />
<glyph unicode="&#xe006;" d="M 32,96L 32,160L 96,160L 96,96zM 128,192L 128,256L 192,256L 192,192zM 224,288L 224,352L 288,352L 288,288zM 320,192L 320,256L 384,256L 384,192zM 416,96L 416,160L 480,160L 480,96z" data-tags="arrow-sm-up" />
<glyph unicode="&#xe007;" d="M 182.858,370.286L 219.429,406.857L 256,370.286L 219.429,333.714zM 256,297.143L 292.571,333.714L 329.143,297.143L 292.571,260.571zM 256,150.857L 292.571,187.429L 329.143,150.857L 292.571,114.286zM 182.858,77.714L 219.429,114.286L 256,77.714L 219.429,41.143zM 329.143,224L 365.715,260.571L 402.286,224L 365.715,187.429zM 109.715,443.429L 146.286,480L 182.858,443.429L 146.286,406.857zM 109.715,4.571L 146.286,41.143L 182.858,4.571L 146.286-32z" data-tags="arrow-lg-right" />
<glyph unicode="&#xe008;" d="M 80.875,480.031 C 54.085,480.031 31.875,457.822 31.875,431.031 L 31.875,17.031 C 31.875-9.759 54.085-31.969 80.875-31.969 L 430.875-31.969 C 457.665-31.969 479.875-9.759 479.875,17.031 L 479.875,431.031 C 479.875,457.822 457.665,480.031 430.875,480.031 L 80.875,480.031 z M 80.875,448.031 L 430.875,448.031 C 440.491,448.031 447.875,440.647 447.875,431.031 L 447.875,17.031 C 447.875,7.415 440.491,0.031 430.875,0.031 L 80.875,0.031 C 71.259,0.031 63.875,7.415 63.875,17.031 L 63.875,431.031 C 63.875,440.647 71.259,448.031 80.875,448.031 z M 208.969,159.344 C 204.874,159.344 201.093,158.467 197.969,155.344 C 194.042,151.417 116.408,96.783 105.969,86.344 C 93.472,73.847 93.472,53.841 105.969,41.344 C 118.465,28.847 139.472,28.847 151.969,41.344 C 162.536,51.911 215.83,128.203 219.969,132.344 C 226.217,138.593 226.217,149.095 219.969,155.344 C 216.846,158.469 213.064,159.344 208.969,159.344 z M 384,95.969 C 366.327,95.969 352,81.642 352,63.969 C 352,46.296 366.327,31.969 384,31.969 C 401.673,31.969 416,46.296 416,63.969 C 416,81.642 401.673,95.969 384,95.969 z " data-tags="data-store-part1" />
<glyph unicode="&#xe009;" d="M 256.094,415.843 C 168.487,415.843 96.094,343.451 96.094,255.843 C 96.094,215.379 111.683,178.307 136.937,149.969 C 137.055,150.055 137.163,150.134 137.281,150.218 C 148.075,158.086 158.662,165.631 166.656,171.469 C 170.654,174.387 173.422,176.816 175.75,178.562 C 176.456,179.091 177.066,179.734 177.75,180.406 C 177.439,180.117 177.083,179.896 176.782,179.594 C 179.325,182.138 179.63,182.296 179.031,181.625 C 178.795,181.361 178.194,180.843 177.75,180.406 C 178.758,181.344 179.759,182.283 180.843,183.094 C 182.263,184.154 183.738,185.112 185.25,185.969 C 186.761,186.826 188.286,187.578 189.843,188.25 C 191.401,188.921 192.974,189.497 194.531,190 C 197.646,191.005 200.726,191.691 203.562,192.125 C 206.4,192.559 208.997,192.75 211.187,192.75 C 213.374,192.75 215.977,192.557 218.813,192.125 C 221.648,191.694 224.728,191.003 227.843,190 C 229.401,189.498 230.973,188.921 232.531,188.25 C 234.089,187.579 235.643,186.826 237.157,185.969 C 238.669,185.111 240.142,184.155 241.562,183.094 C 242.983,182.032 244.343,180.878 245.625,179.594 C 246.821,178.398 247.922,177.131 248.969,175.843 C 250.015,174.557 251.009,173.241 251.906,171.875 C 253.701,169.142 255.179,166.257 256.375,163.281 C 257.571,160.305 258.464,157.247 259.063,154.125 C 259.661,151.003 259.969,147.826 259.969,144.656 C 259.969,141.486 259.661,138.31 259.063,135.187 C 258.464,132.066 257.571,129.007 256.375,126.031 C 255.179,123.056 253.701,120.17 251.906,117.438 C 251.009,116.071 250.015,114.725 248.969,113.438 C 248.608,112.993 248.219,112.558 247.843,112.125 C 247.807,112.114 247.69,112.016 247.531,111.875 C 246.897,111.313 245.454,109.867 244.594,108.719 C 242.874,106.423 240.399,103.538 237.531,99.594 C 237.086,98.981 236.345,97.96 235.875,97.312 C 242.514,96.454 249.241,95.843 256.094,95.843 C 343.702,95.843 416.094,168.237 416.094,255.843 C 416.094,343.451 343.702,415.843 256.094,415.843 z M 256.094,287.843 C 274.525,287.843 288.094,274.275 288.094,255.843 C 288.094,237.413 274.525,223.843 256.094,223.843 C 237.663,223.843 224.094,237.413 224.094,255.843 C 224.094,274.275 237.663,287.843 256.094,287.843 z " data-tags="data-store-part2" />
<glyph unicode="&#xe010;" d="M 352,480  m0,0,0-96 -352,0 0-96 352,0 0-96 L 512,335.906 352,480 z" data-tags="non-scalable-part1" />
<glyph unicode="&#xe011;" d="M 512,254  m0,0,-224-172 0,141 -288,0 0-255 512,0 z" data-tags="non-scalable-part2" />
<glyph unicode="&#xe012;" d="M 319.938,480  m0,0, 64.875-64.875 c 0,0 -96.813-93.125 -97.469-97.313 C 288,322 224,386 223.656,382.938 224,386 64,226 64.438,221.499 l -64.094,67.157 0-125.625 C 0,160 63.845,94.499 63.845,94.499 L 224,256 l 63.031-63.969 160.875,160 64-64 0,191.969 z" data-tags="scalable-part1" />
<glyph unicode="&#xe013;" d="M 447.906,255.906  m0,0,-159.938-161.969 -63.938,66 L 64.094,0 l -64,63.969 0-63.969 0-32 511.813,0 0,223.906 z" data-tags="scalable-part2" />
<glyph unicode="&#xe014;" d="M 215.031,480 C 209.359,480 204.813,475.423 204.813,469.75 l 0-36.344 c -1.537-0.376 -3.057-0.744 -4.594-1.157 -20.217-5.417 -38.976-13.623 -56-24.063 L 118.406,434 c -4.011,4.011 -10.457,4.011 -14.469,0 L 46,376.063 c -4.011-4.011 -4.011-10.457 0-14.469 l 26.281-26.281 c -11.157-18.611 -19.527-38.896 -24.75-60.125 l -37.281,0 C 4.577,275.187 0,270.641 0,264.969 l 0-81.937 c 0-5.673 4.577-10.218 10.25-10.218 l 37.125,0 c 0.397-1.632 0.782-3.275 1.218-4.906 5.344-19.943 13.353-38.488 23.531-55.344 L 46,86.438 c -4.011-4.011 -4.011-10.489 0-14.501 l 57.937-57.906 c 4.011-4.011 10.457-4.011 14.469,0 L 144.501,40.094 c 18.647-11.344 38.976-19.864 60.312-25.157 l 0-36.688 c 0-5.673 4.546-10.25 10.218-10.25 l 81.937,0 c 5.673,0 10.218,4.577 10.218,10.25 l 0,36.562 c 1.519,0.373 3.045,0.75 4.562,1.157 20.195,5.411 38.912,13.575 55.937,23.937 l 25.875-25.875 c 4.011-4.011 10.457-4.011 14.469,0 l 57.937,57.906 c 4.011,4.011 4.011,10.489 0,14.501 L 439.906,112.499 c 11.27,18.663 19.714,38.981 24.937,60.312 l 36.906,0 c 5.673,0 10.25,4.546 10.25,10.218 l 0,81.937 c 0,5.673 -4.577,10.218 -10.25,10.218 l -37.094,0 c -0.325,1.31 -0.649,2.629 -1,3.937 -5.418,20.221 -13.602,39.022 -24,56.125 l 26.312,26.312 c 4.011,4.011 4.011,10.489 0,14.501 L 408.031,434 c -4.011,4.011 -10.457,4.011 -14.469,0 L 367.281,407.688 C 348.691,419.049 328.429,427.638 307.187,433 l 0,36.75 C 307.187,475.423 302.641,480 296.969,480 l -81.937,0 z m 39.688-95.906 c 71.569,0.785 137.055-46.579 156.469-119.031 23.009-85.87 -27.974-172.398 -113.843-195.406 -85.87-23.009 -173.241,26.442 -196.25,112.312 -23.009,85.87 27.63,173.585 113.501,196.594 13.417,3.595 26.871,5.386 40.125,5.531 z m 0.063-40.625 c -9.826-0.065 -19.808-1.376 -29.719-4.031 -63.426-16.995 -101.089-83.105 -84.094-146.531 16.995-63.426 82.512-101.245 145.937-84.25 63.426,16.995 101.245,82.511 84.25,145.937 -14.339,53.515 -63.315,89.23 -116.375,88.875 z m 0.688-51.157 c 30.567,0.346 58.485-19.848 66.782-50.813 9.833-36.698 -11.895-73.511 -48.594-83.344 -36.698-9.833 -73.947,11.176 -83.782,47.875 -9.833,36.698 11.739,74.073 48.438,83.906 5.734,1.536 11.496,2.311 17.157,2.375 z" data-tags="gear-lg" />
<glyph unicode="&#xe015;" d="M 215.031,480 C 209.359,480 204.813,475.423 204.813,469.75 l 0-36.344 c -1.537-0.376 -3.057-0.744 -4.594-1.157 -20.217-5.417 -38.976-13.623 -56-24.063 L 118.406,434 c -4.011,4.011 -10.457,4.011 -14.469,0 L 46,376.063 c -4.011-4.011 -4.011-10.457 0-14.469 l 26.281-26.281 c -11.157-18.611 -19.527-38.896 -24.75-60.125 l -37.281,0 C 4.577,275.187 0,270.641 0,264.969 l 0-81.937 c 0-5.673 4.577-10.218 10.25-10.218 l 37.125,0 c 0.397-1.632 0.782-3.275 1.218-4.906 5.344-19.943 13.353-38.488 23.531-55.344 L 46,86.438 c -4.011-4.011 -4.011-10.489 0-14.501 l 57.937-57.906 c 4.011-4.011 10.457-4.011 14.469,0 L 144.501,40.094 c 18.647-11.344 38.976-19.864 60.312-25.157 l 0-36.688 c 0-5.673 4.546-10.25 10.218-10.25 l 81.937,0 c 3.127,0 5.912,1.395 7.782,3.594 -26.234,23.104 -43.944,55.658 -47.906,92.438 -71.344-0.881 -136.37,45.613 -155.75,117.937 -23.009,85.87 27.63,173.585 113.501,196.594 13.417,3.595 26.871,5.386 40.125,5.531 71.569,0.785 137.055-46.579 156.469-119.031 3.592-13.407 5.366-26.837 5.501-40.031 36.95-4.232 69.568-22.326 92.531-49 1.719,1.825 2.782,4.281 2.782,7 l 0,81.937 c 0,5.673 -4.577,10.218 -10.25,10.218 l -37.094,0 c -0.325,1.31 -0.649,2.629 -1,3.937 -5.418,20.221 -13.602,39.022 -24,56.125 l 26.312,26.312 c 4.011,4.011 4.011,10.489 0,14.501 L 408.031,434 c -4.011,4.011 -10.457,4.011 -14.469,0 L 367.281,407.688 C 348.691,419.049 328.429,427.638 307.187,433 l 0,36.75 C 307.187,475.423 302.641,480 296.969,480 l -81.937,0 z m 39.75-136.531 c -9.826-0.065 -19.808-1.376 -29.719-4.031 -63.426-16.995 -101.089-83.105 -84.094-146.531 14.387-53.695 63.552-89.043 116.782-88.312 3.136,20.075 10.387,38.735 20.875,55.125 -1.629-0.567 -3.274-1.109 -4.969-1.562 -36.698-9.833 -73.947,11.176 -83.782,47.875 -9.833,36.698 11.739,74.073 48.438,83.906 5.734,1.536 11.496,2.311 17.157,2.375 30.567,0.346 58.485-19.848 66.782-50.813 3.581-13.361 2.955-26.729 -1.031-38.813 16.048,10.47 34.325,17.802 54,21.187 -0.005,10.153 -1.314,20.461 -4.063,30.719 -14.339,53.515 -63.315,89.23 -116.375,88.875 z" data-tags="gear-lg-sans-circle" />
<glyph unicode="&#xe016;" d="M 400,193.75 C 337.952,193.75 288,143.798 288,81.75 L 288,80 C 288,17.952 337.952-32 400-32 C 462.048-32 512,17.952 512,80 L 512,81.75 C 512,143.798 462.048,193.75 400,193.75 z " data-tags="gear-number-circle" />
<glyph unicode="&#xe017;" d="M 230.218,416 C 226.771,416 224,413.229 224,409.782 l 0-3.375 0-28.625 c -2.889-0.6 -5.771-1.289 -8.656-2.063 -16.562-4.438 -31.782-11.424 -45.375-20.438 L 149.656,375.594 147.25,378 c -2.438,2.438 -6.344,2.438 -8.782,0 l -2.406-2.406 -31.656-31.688 -2.406-2.375 c -2.438-2.438 -2.438-6.344 0-8.782 l 2.406-2.406 20.625-20.625 C 114.471,293.403 106.878,275.193 102.843,256 l -32.625,0 C 66.771,256 64,253.229 64,249.782 l 0-3.375 0-44.813 0-3.375 C 64,194.771 66.771,192 70.218,192 l 32.531,0 c 0.613-2.959 1.303-5.922 2.094-8.875 4.389-16.379 11.275-31.446 20.094-44.937 L 104.406,117.656 102,115.25 c -2.438-2.438 -2.438-6.344 0-8.782 l 2.406-2.406 31.656-31.656 2.406-2.406 c 2.438-2.438 6.344-2.438 8.782,0 l 22.937,22.937 c 16.313-10.703 34.559-18.391 53.813-22.469 l 0-28.875 0-3.375 C 224,34.771 226.771,32 230.218,32 l 51.562,0 C 285.229,32 288,34.771 288,38.218 l 0,32.157 c 2.878,0.6 5.72,1.293 8.594,2.063 16.549,4.434 31.777,11.361 45.375,20.312 l 20.375-20.344 L 364.75,70 c 2.438-2.438 6.344-2.438 8.782,0 L 410,106.469 c 2.438,2.438 2.438,6.344 0,8.782 l -2.406,2.406 -20.501,20.469 C 397.747,154.465 405.352,172.735 409.375,192 l 32.406,0 C 445.229,192 448,194.771 448,198.218 l 0,3.375 0,44.813 0,3.375 C 448,253.229 445.229,256 441.782,256 l -32.469,0 c -0.578,2.735 -1.237,5.457 -1.969,8.187 -4.44,16.57 -11.456,31.837 -20.438,45.501 L 407.594,330.344 410,332.75 c 2.438,2.438 2.438,6.344 0,8.782 l -2.406,2.375 -31.688,31.688 -2.375,2.406 c -2.438,2.438 -6.344,2.438 -8.782,0 l -23.063-23.094 C 325.403,365.633 307.192,373.358 288,377.499 l 0,28.906 0,3.375 C 288,413.229 285.229,416 281.782,416 l -51.562,0 z M 255.25,323.031 c 44.319,0.513 84.747-28.744 96.782-73.656 14.263-53.229 -17.24-106.581 -70.469-120.843 -53.229-14.263 -107.144,16.208 -121.406,69.438 -14.263,53.229 16.99,107.393 70.218,121.656 8.317,2.229 16.667,3.311 24.875,3.406 z M 256,256 c -17.673,0 -32-14.327 -32-32 0-17.673 14.327-32 32-32 17.673,0 32,14.327 32,32 0,17.673 -14.327,32 -32,32 z" data-tags="gear-sm" />
<glyph unicode="&#xe018;" d="M 230.218,416 C 226.771,416 224,413.229 224,409.782 l 0-3.375 0-28.625 c -2.889-0.6 -5.771-1.289 -8.656-2.063 -16.562-4.438 -31.782-11.424 -45.375-20.438 L 149.656,375.594 147.25,378 c -2.438,2.438 -6.344,2.438 -8.782,0 l -2.406-2.406 -31.656-31.688 -2.406-2.375 c -2.438-2.438 -2.438-6.344 0-8.782 l 2.406-2.406 20.625-20.625 C 114.471,293.403 106.878,275.193 102.843,256 l -32.625,0 C 66.771,256 64,253.229 64,249.782 l 0-3.375 0-44.813 0-3.375 C 64,194.771 66.771,192 70.218,192 l 32.531,0 c 0.613-2.959 1.303-5.922 2.094-8.875 4.389-16.379 11.275-31.446 20.094-44.937 L 104.406,117.656 102,115.25 c -2.438-2.438 -2.438-6.344 0-8.782 l 2.406-2.406 31.656-31.656 2.406-2.406 c 2.438-2.438 6.344-2.438 8.782,0 l 22.937,22.937 c 16.313-10.703 34.559-18.391 53.813-22.469 l 0-28.875 0-3.375 C 224,34.771 226.771,32 230.218,32 l 34,0 c -0.568,1.625 -1.27,3.192 -1.782,4.843 -1.399,4.514 -2.575,9.117 -3.531,13.813 C 257.95,55.352 257.24,60.147 256.75,65 256.261,69.853 256,74.763 256,79.75 l 0,2.25 c 0,4.986 0.261,9.897 0.75,14.75 0.49,4.853 1.2,9.648 2.157,14.344 0.955,4.696 2.133,9.298 3.531,13.813 0.046,0.149 0.11,0.289 0.157,0.438 -46.528-3.451 -89.874,25.736 -102.438,72.625 -14.263,53.229 16.99,107.393 70.218,121.656 8.317,2.229 16.667,3.311 24.875,3.406 44.319,0.513 84.747-28.744 96.782-73.656 2.746-10.249 3.757-20.49 3.281-30.469 0.603,0.195 1.174,0.469 1.782,0.656 4.514,1.399 9.117,2.575 13.813,3.531 4.696,0.955 9.491,1.666 14.344,2.157 4.853,0.49 9.763,0.75 14.75,0.75 4.986,0 9.897-0.261 14.75-0.75 4.853-0.49 9.648-1.2 14.344-2.157 4.696-0.955 9.298-2.133 13.813-3.531 1.737-0.538 3.386-1.274 5.094-1.875 l 0,28.719 0,3.375 C 448,253.229 445.229,256 441.782,256 l -32.469,0 c -0.578,2.735 -1.237,5.457 -1.969,8.187 -4.44,16.57 -11.456,31.837 -20.438,45.501 L 407.594,330.344 410,332.75 c 2.438,2.438 2.438,6.344 0,8.782 l -2.406,2.375 -31.688,31.688 -2.375,2.406 c -2.438,2.438 -6.344,2.438 -8.782,0 l -23.063-23.094 C 325.403,365.633 307.192,373.358 288,377.499 l 0,28.906 0,3.375 C 288,413.229 285.229,416 281.782,416 l -51.562,0 z M 256,256 c -17.673,0 -32-14.327 -32-32 0-17.673 14.327-32 32-32 17.673,0 32,14.327 32,32 0,17.673 -14.327,32 -32,32 z" data-tags="gear-sm-sans-circle" />
<glyph unicode="&#xe019;" d="M 240,448C 107.452,448,0,340.548,0,208c0-132.549, 107.452-240, 240-240c 132.549,0, 240,107.451, 240,240
	C 480,340.548, 372.549,448, 240,448z M 375.795,128c 4.29,20.227, 6.998,41.696, 7.879,64l 63.723,0 c-1.668-22.098-6.812-43.557-15.34-64
	L 375.795,128 z M 104.205,288c-4.29-20.227-6.998-41.696-7.879-64L 32.604,224 c 1.668,22.097, 6.811,43.557, 15.339,64L 104.205,288 z M 343.018,288
	c 4.807-20.481, 7.699-41.927, 8.64-64L 256,224 l0,64 L 343.018,288 z M 256,320L 256,413.669 c 7.295-2.123, 14.522-5.685, 21.614-10.685
	c 13.291-9.37, 26.006-23.804, 36.77-41.743c 7.441-12.401, 13.876-26.208, 19.248-41.242L 256,319.999 z M 165.616,361.242
	c 10.764,17.939, 23.478,32.374, 36.77,41.743c 7.091,5, 14.319,8.562, 21.614,10.685L 224,320 l-77.632,0 
	C 151.741,335.033, 158.176,348.84, 165.616,361.242z M 224,288l0-64 l-95.657,0 c 0.94,22.073, 3.833,43.519, 8.639,64L 224,288 z M 47.944,128
	c-8.528,20.443-13.671,41.902-15.339,64l 63.722,0 c 0.881-22.304, 3.589-43.773, 7.879-64L 47.944,128 z M 128.343,192L 224,192 l0-64 l-87.018,0 
	C 132.176,148.48, 129.283,169.927, 128.343,192z M 224,96l0-93.67 c-7.294,2.123-14.522,5.686-21.614,10.685
	c-13.292,9.37-26.007,23.805-36.77,41.743c-7.441,12.402-13.875,26.209-19.249,41.242L 224,96 z M 314.384,54.758
	c-10.764-17.938-23.479-32.373-36.77-41.743c-7.092-4.999-14.319-8.562-21.614-10.685L 256,96 l 77.633,0 
	C 328.26,80.967, 321.825,67.16, 314.384,54.758z M 256,128l0,64 l 95.657,0 c-0.94-22.073-3.833-43.52-8.64-64L 256,128 z M 383.674,224
	c-0.881,22.304-3.589,43.773-7.879,64l 56.262,0 c 8.528-20.443, 13.672-41.903, 15.34-64L 383.674,224 z M 415.329,320l-47.95,0 
	c-9.319,29.381-22.188,55.147-37.658,75.714c 21.268-10.17, 40.529-23.808, 57.357-40.636C 397.818,344.339, 407.259,332.609, 415.329,320
	z M 92.922,355.078c 16.829,16.829, 36.090,30.466, 57.357,40.636c-15.471-20.567-28.338-46.333-37.658-75.714L 64.672,320 
	C 72.741,332.609, 82.183,344.339, 92.922,355.078z M 64.672,96l 47.949,0 c 9.32-29.381, 22.188-55.147, 37.659-75.715
	c-21.268,10.17-40.529,23.808-57.357,40.637C 82.183,71.661, 72.741,83.391, 64.672,96z M 387.078,60.922
	c-16.828-16.829-36.090-30.467-57.357-40.637c 15.471,20.567, 28.339,46.334, 37.658,75.715l 47.95,0 
	C 407.259,83.391, 397.818,71.661, 387.078,60.922z" data-tags="globe, web, internet, network, sphere" />
<glyph unicode="&#xe020;" d="M 256,448 L 254.969,384.25 C 230.456,383.543 202.839,378.32 180.094,368.656 C 157.349,358.992 137.293,345.543 119.969,328.218 C 101.584,309.834 87.64,288.674 78.094,264.75 C 68.547,240.826 63.75,216.714 63.75,192.438 C 63.75,168.16 68.547,144.080 78.094,120.157 C 87.64,96.232 101.584,75.072 119.969,56.688 C 138.353,38.303 159.514,24.327 183.438,14.782 C 207.361,5.235 231.473,0.469 255.75,0.469 C 280.027,0.469 304.107,5.235 328.031,14.782 C 351.955,24.327 373.115,38.303 391.501,56.688 C 412.595,77.783 427.958,102.075 437.562,129.594 C 447.167,157.112 450.296,185.349 446.937,214.281 C 443.593,243.089 439.977,265.23 419.969,291.562 L 374.063,245.656 C 383.936,222.832 386.137,197.925 382.406,173.281 C 378.223,145.646 366.167,121.855 346.25,101.937 C 333.993,89.681 319.91,80.363 304,74 C 288.090,67.637 272.014,64.469 255.75,64.469 C 239.487,64.469 223.41,67.637 207.501,74 C 191.59,80.363 177.506,89.681 165.25,101.937 C 152.993,114.194 143.677,128.278 137.312,144.187 C 130.949,160.097 127.75,176.174 127.75,192.438 C 127.75,208.701 130.949,224.809 137.312,240.719 C 143.677,256.629 152.993,270.712 165.25,282.969 C 188.938,306.657 221.569,319.141 255.157,320.438 L 256,256 L 288,256 L 384,352 L 288,448 L 256,448 z " data-tags="restart" />
<glyph unicode="&#xe021;" d="M 23.373,480 C 10.129,480 0,469.871 0,456.627 l 0-448.753 39.373-0.502 0-38.871 L 78.776-32 l 0,118.149 39.373,0 0-117.647 39.405,0 0,117.647 39.373,0 0-118.149 39.373,0 0,118.149 39.405,0 0-117.647 39.373,0 0,117.647 39.373,0 0-117.647 39.405,0 0,117.647 39.373,0 0-117.647 39.405,0 0,39.373 39.373,0 0,448.753 C 512,469.871 501.871,480 488.627,480 l -465.255,0 z m 55.405-78.275 354.447,0 0-236.298 -354.447,0 0,236.298 z" data-tags="cartridge-part1" />
<glyph unicode="&#xe022;" d="M 64,416  m0,0, 384,0 0-256 -384,0 z" data-tags="cartridge-part2" />
<glyph unicode="&#xe023;" d="M 253.782,448 C 251.375,447.978 248.976,447.909 246.562,447.813 C 126.682,443.013 32.302,343.161 32,224.25 L 91.969,224.25 C 92.234,311.897 160.467,384.521 248.906,388.063 C 294.981,389.906 339.542,371.798 371.719,339.75 L 330.594,288.344 L 479.719,288.344 L 449.906,437.469 L 409.281,386.688 C 369.339,424.312 316.494,446.539 261,447.937 C 258.603,447.998 256.187,448.022 253.782,448 z M 420.157,224.499 C 420.598,136.547 351.645,63.871 262.969,59.969 C 215.858,57.896 171.367,75.913 139.438,108.281 L 181.312,160.625 L 32.187,160.625 L 62,11.499 L 102.25,61.813 C 145.299,20.615 203.68-2.494 265.312,0.218 C 385.415,5.504 480.479,105.311 479.969,224.499 L 420.157,224.499 z " data-tags="ci-arrows" />
<glyph unicode="&#xe024;" d="M 211.551,153.63 186,179.181 300.449,293.63 326,268.078 z M 186,268.819 211.551,294.37 326,179.922 300.449,154.37 z" data-tags="ci-x" />
<glyph unicode="&#xe025;" d="M 179,205.95 256.187,152.621 327,261.026 295.781,281.379 247.449,207.443 201.602,238.921 z" data-tags="ci-check" />
<glyph unicode="&#xe026;" d="M 253.375,448 C 247.778,447.936 242.137,447.653 236.469,447.157 C 113.581,436.405 22.093,327.389 32.843,204.499 C 36.834,158.888 54.105,117.447 80.875,84.094 L 119.813,131.531 C 104.586,153.982 94.888,180.611 92.344,209.688 C 84.406,300.417 150.959,379.719 241.688,387.656 C 270.798,390.203 298.662,385.312 323.438,374.187 L 362.469,420.688 C 329.787,438.479 292.551,448.449 253.375,448 z M 431.218,363 L 392.187,316.499 C 407.445,294.033 417.11,267.423 419.656,238.312 C 427.594,147.583 361.041,68.313 270.312,60.375 C 241.515,57.856 214.075,63.030 189.501,73.906 L 149.531,27.312 C 186.881,6.979 230.182-3.093 275.531,0.875 C 398.419,11.626 489.907,120.642 479.157,243.531 C 475.189,288.88 457.729,329.749 431.218,363 z " data-tags="ci-disabled" />
<glyph unicode="&#xe027;" d="M 0-32  m0,0,0,64 512,0 0-64 z m 0,512 64,0 0-512 -64,0 z" data-tags="management-part2" />
<glyph unicode="&#xe028;" d="M 396,244  m0,0,0-160 76,0 0,160 z m -280,96 0-256 76,0 0,256 z m 140,108 0-364 76,0 0,364 z" data-tags="management-part1" />
<glyph unicode="&#xe029;" d="M 219,480 C 209.582,480 202,472.414 202,462.969 C 202,456.298 205.805,450.554 211.344,447.75 L 224,431.499 L 224,352.094 L 96,352.094 L 0,308.782 L 96,254.094 L 224,254.719 L 224-32 L 282-32 L 282,160.344 L 352.969,160 L 449.438,207.719 L 352.969,256 L 282,256 L 282,288.625 L 416.281,288.187 L 512,339.125 L 416.281,384.063 L 282,384.157 L 282,431.499 L 294.656,447.75 C 300.205,450.551 304,456.291 304,462.969 C 304,472.414 296.418,480 287,480 L 219,480 z " data-tags="quickstart" />
<glyph unicode="&#xe030;" d="M 96,416 L 96,32 L 448,224 L 96,416 z " data-tags="start" />
<glyph unicode="&#xe031;" d="M 288,384  m0,0, 128,0 0-320 -128,0 z m -192,0 128,0 0-320 -128,0 z" data-tags="stop" />
<glyph unicode="&#xe032;" d="M 220.937,326.625 C 214.173,326.518 207.598,322.487 204.438,316.499 L 155.187,223.187 L 61.625,223.499 L 61.531,185.499 L 166.562,185.157 C 173.442,185.141 180.192,189.194 183.406,195.281 L 218.969,262.688 L 271.469,133.25 C 274.157,126.607 280.88,121.797 288.031,121.406 C 295.183,121.016 302.386,125.065 305.782,131.375 L 353.375,219.906 L 450.438,219.906 L 450.438,257.906 L 342,257.906 C 335.186,257.901 328.541,253.911 325.312,247.906 L 291.469,184.969 L 238.813,314.782 C 235.951,321.826 228.536,326.746 220.937,326.625 z " data-tags="system-signal-lg" />
<glyph unicode="&#xe033;" d="M 50.75,461.687 C 23.213,461.687 0,438.475 0,410.937 L 0,37.062 C 0,9.525 23.213-13.688 50.75-13.688 L 461.219-13.688 C 488.755-13.688 512,9.525 512,37.062 L 512,410.937 C 512,438.475 488.755,461.687 461.219,461.687 L 50.75,461.687 z M 61.845,399.531 L 450.157,399.531 L 450.157,48.469 L 61.845,48.469 L 61.845,399.531 z " data-tags="system-lg" />
<glyph unicode="&#xee00;" d="M 36.072,4.571l 82.286,0 l0,82.286 l-82.286,0 l0-82.286 zM 136.643,4.571l 91.429,0 l0,82.286 l-91.429,0 l0-82.286 zM 36.072,105.143l 82.286,0 l0,91.429 l-82.286,0 l0-91.429 zM 136.643,105.143l 91.429,0 l0,91.429 l-91.429,0 l0-91.429 zM 36.072,214.857l 82.286,0 l0,82.286 l-82.286,0 l0-82.286 zM 246.358,4.571l 91.429,0 l0,82.286 l-91.429,0 l0-82.286 zM 136.643,214.857l 91.429,0 l0,82.286 l-91.429,0 l0-82.286 zM 356.072,4.571l 82.286,0 l0,82.286 l-82.286,0 l0-82.286 zM 246.358,105.143l 91.429,0 l0,91.429 l-91.429,0 l0-91.429 z
M 145.786,352l0,82.286 q0,3.714 -2.714,6.429t-6.429,2.714l-18.286,0 q-3.714,0 -6.429-2.714t-2.714-6.429l0-82.286 q0-3.714 2.714-6.429t 6.429-2.714l 18.286,0 q 3.714,0 6.429,2.714t 2.714,6.429zM 356.072,105.143l 82.286,0 l0,91.429 l-82.286,0 l0-91.429 zM 246.358,214.857l 91.429,0 l0,82.286 l-91.429,0 l0-82.286 zM 356.072,214.857l 82.286,0 l0,82.286 l-82.286,0 l0-82.286 zM 365.215,352l0,82.286 q0,3.714 -2.714,6.429t-6.429,2.714l-18.286,0 
q-3.714,0 -6.429-2.714t-2.714-6.429l0-82.286 q0-3.714 2.714-6.429t 6.429-2.714l 18.286,0 q 3.714,0 6.429,2.714t 2.714,6.429zM 474.929,370.286l0-365.714 q0-14.857 -10.857-25.714t-25.714-10.857l-402.286,0 q-14.857,0 -25.714,10.857t-10.857,25.714l0,365.714 q0,14.857 10.857,25.714t 25.714,10.857l 36.571,0 l0,27.429 q0,18.857 13.429,32.286t 32.286,13.429l 18.286,0 q 18.857,0 32.286-13.429t 13.429-32.286l0-27.429 l 109.714,0 l0,27.429 q0,18.857 13.429,32.286t 32.286,13.429
l 18.286,0 q 18.857,0 32.286-13.429t 13.429-32.286l0-27.429 l 36.571,0 q 14.857,0 25.714-10.857t 10.857-25.714z" horiz-adv-x="474" data-tags="calendar, date, schedule" />
<glyph unicode="&#xee01;" d="M 292.571,55.143l0,54.286 q0,4 -2.714,6.714t-6.429,2.714l-54.857,0 q-3.714,0 -6.429-2.714t-2.714-6.714l0-54.286 q0-4 2.714-6.714t 6.429-2.714l 54.857,0 q 3.714,0 6.429,2.714t 2.714,6.714zM 292,162l 5.143,131.143q0,3.429 -2.857,5.429q-3.714,3.143 -6.857,3.143l-62.857,0 q-3.143,0 -6.857-3.143q-2.857-2 -2.857-6l 4.857-130.571q0-2.857 2.857-4.714t 6.857-1.857l 52.857,0 
q 4,0 6.714,1.857t 3,4.714zM 288,428.857l 219.429-402.286q 10-18 -0.571-36q-4.857-8.286 -13.286-13.143t-18.143-4.857l-438.857,0 q-9.714,0 -18.143,4.857t-13.286,13.143q-10.571,18 -0.571,36l 219.429,402.286q 4.857,8.857 13.429,14t 18.571,5.143t 18.571-5.143t 13.429-14z" data-tags="warning-sign, sign" />
<glyph unicode="&#xee02;" d="M 255.5,54.857l0,54.857 q0,3.714 -2.714,6.429t-6.429,2.714l-54.857,0 q-3.714,0 -6.429-2.714t-2.714-6.429l0-54.857 q0-3.714 2.714-6.429t 6.429-2.714l 54.857,0 q 3.714,0 6.429,2.714t 2.714,6.429zM 328.643,246.857q0,27.714 -16.714,49.143t-41.286,31.857t-51.714,10.429t-51.714-10.429t-41.286-31.857t-16.714-49.143l0-3.143 l0-3.714 t 0.286-3.286t 0.857-3.286t 1.571-2.286t 2.571-2
t 3.857-0.571l 54.857,0 q 4,0 6.571,2.571t 2.571,6.571q0,3.429 3.143,7.714q 5.429,8.857 14.429,14.286t 19,5.429q 11.143,0 23.714-6.143t 12.571-16.429q0-9.429 -7.571-16.571t-18.143-12.571t-21.286-11.857t-18.286-18.143t-7.571-28l0-3.143 l0-3.714 t 0.286-3.286t 0.857-3.286t 1.571-2.286t 2.571-2t 3.857-0.571l 54.857,0 q 4.857,0 6.857,3t 2.286,7t 3.857,9.429t 10.714,9.143q 17.143,9.429 20,11.143q 17.714,12.571 28.143,30.857
t 10.429,39.143zM 438.357,192q0-59.714 -29.429-110.143t-79.857-79.857t-110.143-29.429t-110.143,29.429t-79.857,79.857t-29.429,110.143t 29.429,110.143t 79.857,79.857t 110.143,29.429t 110.143-29.429t 79.857-79.857t 29.429-110.143z" horiz-adv-x="437" data-tags="question-sign, help, support, sign" />
<glyph unicode="&#xee03;" d="M 496.131,44.302L 374.855,147.449c-12.537,11.283-25.945,16.463-36.776,15.963C 366.707,196.946, 384,240.451, 384,288
	C 384,394.039, 298.039,480, 192,480C 85.962,480,0,394.039,0,288c0-106.039, 85.961-192, 192-192c 47.549,0, 91.054,17.293, 124.587,45.922
	c-0.501-10.831, 4.68-24.239, 15.963-36.776l 103.147-121.277c 17.661-19.623, 46.511-21.277, 64.11-3.678S 515.754,26.641, 496.131,44.302z
	 M 192,160c-70.691,0-128,57.309-128,128S 121.309,416, 192,416s 128-57.309, 128-128S 262.693,160, 192,160z" data-tags="search, magnifier, lookup, find" />
<glyph unicode="&#xee04;" d="M 534.736,384.277q0-2.852 -1.426-5.133q-18.252-29.66 -51.049-54.187l0-9.411 q 1.141-64.739 -28.52-130.333q-38.216-84.703 -113.364-132.472t-168.692-47.77q-75.576,0 -142.597,34.794q-18.252,9.411 -24.812,14.26q-4.278,3.422 -4.278,7.7q0,3.708 2.71,6.417t 6.417,2.71q 3.992,0 12.549-0.712t 12.833-0.712q 58.179,0 106.947,30.23q-29.375,6.845 -51.621,27.379t-31.656,49.338q-0.57,2.281 -0.57,3.137q0,3.422 2.567,6.131
t 6.274,2.71q 1.426,0 3.992-0.57t 3.422-0.57q-25.382,15.686 -40.497,41.924t-15.115,55.898q0,4.278 3.279,7.272t 7.843,2.995q 2.852,0 9.982-3.279t 8.555-3.85q-26.237,31.37 -26.237,73.009q0,14.546 4.135,30.801t 11.55,27.093q 2.852,4.563 7.129,4.563q 4.563,0 7.7-3.422q 21.674-23.956 31.37-32.797q 35.078-31.656 78.713-50.622t 90.406-22.958q-1.141,5.989 -1.141,13.974q0,47.627 33.795,81.423t 81.423,33.795
q 46.487,0 80.424-32.512q 27.093,5.705 59.606,23.387q 2.281,1.426 4.563,1.426q 3.708,0 6.417-2.71t 2.71-6.417q0-6.845 -7.986-20.819t-14.546-21.674q 1.996,0.57 8.555,2.995t 12.263,4.563t 6.845,2.139q 3.708,0 6.417-2.71t 2.71-6.417z" horiz-adv-x="547" data-tags="twitter, social" />
<glyph unicode="&#xee05;" d="M 159.5,362.571q-14,0 -17.714-4.429t-3.714-19l0-25.143 l 62,0 q 4.571,0 7.714-3.429q 3.143-3.714 2.857-8.286l-4-57.143q-0.571-4.286 -3.571-7.286t-7.286-3l-57.714,0 l0-219.429 q0-4.571 -3.143-7.714t-7.429-3.143l-71.429,0 q-4.571,0 -7.714,3.143t-3.143,7.714l0,219.429 l-34.857,0 q-4.571,0 -7.714,3.286t-3.143,7.857l0,57.143 q0,4.571 3.143,7.714t 7.714,3.143l 34.857,0 l0,29.429 q0,50.571 25.143,75.286
t 76.286,24.714q 34.286,0 64.286-8.571q 4-1.143 6.286-4.571t 1.714-7.429l-7.714-55.714q-0.571-4.571 -4.571-7.429q-4-2.571 -8.571-1.714q-21.714,4.571 -38.571,4.571z" horiz-adv-x="218" data-tags="facebook, social" />
<glyph unicode="&#xee06;" d="M 249.786,61.429q0,6 -1.286,11.571t-2.714,10.286t-5,9.857t-6,8.714t-7.571,8.429t-7.857,7.286t-9.143,7.286t-8.857,6.571t-9.429,6.571t-8.714,6q-4.857,0.571 -14.286,0.571q-15.429,0 -30.286-2t-30.857-7.143t-28-13.143t-19.714-21.429t-7.714-30.571q0-19.429 10.143-34.714t 26.571-24t 34.429-13t 36.286-4.286q 16.857,0 32.143,3.571t 28.714,11.143t 21.286,21
t 7.857,31.429zM 215.5,307.714q0,17.143 -4.714,36.429t-13.429,37.286t-24,29.714t-34.143,11.714q-26.571,0 -41.143-19.714t-14.571-47.143q0-13.429 3.286-28.286t 10.143-29.714t 16-26.714t 22.286-19.286t 27.714-7.429q 27.714,0 40.143,17.286t 12.429,45.857zM 178.072,443.429l 124.857,0 l-38.571-22.571l-38.571,0 q 20.286-12.857 31.429-36t 11.143-48.286q0-21.143 -6.571-37.571t-16-26.429t-18.857-18.429
t-16-17.429t-6.571-19.286q0-7.429 4.714-14.571t 12.286-13.714t 16.714-13.714t 18.286-15.857t 16.714-18.857t 12.286-24.286t 4.714-30.429q0-45.714 -40-80.571q-43.429-37.429 -120-37.429q-16.857,0 -34.143,2.857t-34.857,9.571t-31,16.571t-22,25.429t-8.571,34.714q0,17.429 10.571,38.571q 9.143,18.286 27.429,31.571t 41.429,20.286t 44.286,10.286t 42.857,3.857q-18.286,23.714 -18.286,42.571q0,3.429 0.571,6.714
t 1.429,5.571t 2.286,6.143t 2,6.143q-11.429-1.429 -20-1.429q-42.571,0 -73,28t-30.429,70.286q0,40 27.143,71.571t 66.857,40.429q 26.857,5.714 53.429,5.714zM 474.929,370.286l0-36.571 l-73.143,0 l0-73.143 l-36.571,0 l0,73.143 l-73.143,0 l0,36.571 l 73.143,0 l0,73.143 l 36.571,0 l0-73.143 l 73.143,0 z" horiz-adv-x="474" data-tags="google-plus, social" />
<glyph unicode="&#xee07;" d="M 292.072,54.857l0,18.286 q0,4 -2.571,6.571t-6.571,2.571l-27.429,0 l0,137.143 q0,4 -2.571,6.571t-6.571,2.571l-91.429,0 q-4,0 -6.571-2.571t-2.571-6.571l0-18.286 q0-4 2.571-6.571t 6.571-2.571l 27.429,0 l0-109.714 l-27.429,0 q-4,0 -6.571-2.571t-2.571-6.571l0-18.286 q0-4 2.571-6.571t 6.571-2.571l 128,0 q 4,0 6.571,2.571t 2.571,6.571zM 255.5,274.286l0,54.857 q0,4 -2.571,6.571t-6.571,2.571l-54.857,0 q-4,0 -6.571-2.571t-2.571-6.571l0-54.857 q0-4 2.571-6.571
t 6.571-2.571l 54.857,0 q 4,0 6.571,2.571t 2.571,6.571zM 438.357,192q0-59.714 -29.429-110.143t-79.857-79.857t-110.143-29.429t-110.143,29.429t-79.857,79.857t-29.429,110.143t 29.429,110.143t 79.857,79.857t 110.143,29.429t 110.143-29.429t 79.857-79.857t 29.429-110.143z" horiz-adv-x="437" data-tags="info-sign, information, sign" />
<glyph unicode="&#xee08;" d="M 240,416 C 214.667,416 190.209,412.025 167.307,404.186 C 145.845,396.839 126.75,386.469 110.555,373.363 C 80.534,349.069 64,317.962 64,285.776 C 64,267.781 69.033,250.302 78.96,233.827 C 89.303,216.657 104.909,200.93 124.090,188.349 C 139.31,178.363 149.558,162.373 152.271,144.373 C 152.722,141.378 153.086,138.37 153.361,135.357 C 154.722,136.617 156.073,137.914 157.418,139.254 C 169.487,151.274 185.762,157.91 202.579,157.91 C 205.253,157.91 207.938,157.742 210.626,157.401 C 220.306,156.175 230.187,155.553 240,155.553 C 265.333,155.553 289.79,159.527 312.693,167.367 C 334.155,174.713 353.25,185.085 369.445,198.189 C 399.467,222.483 416,253.59 416,285.776 C 416,317.962 399.467,349.067 369.445,373.363 C 353.25,386.469 334.155,396.839 312.693,404.186 C 289.79,412.025 265.333,416 240,416 Z M 240,480 L 240,480 C 372.549,480 480,393.043 480,285.776 C 480,178.509 372.549,91.552 240,91.552 C 227.271,91.552 214.777,92.362 202.583,93.907 C 151.030,42.56 91.497,33.353 32,32 L 32,44.567 C 64.126,60.245 90,88.8 90,121.434 C 90,125.987 89.645,130.458 88.985,134.831 C 34.706,170.438 0,224.825 0,285.776 C 0,393.043 107.451,480 240,480 ZM 498,44.657 C 498,16.686 516.157-7.792 544-21.229 L 544-32 C 492.437-30.841 445.107-22.949 400.429,21.063 C 389.859,19.738 379.032,19.043 368,19.043 C 320.265,19.043 276.296,31.922 241.193,53.563 C 313.53,53.816 381.823,76.99 433.61,118.899 C 459.714,140.025 480.307,164.813 494.817,192.573 C 510.2,222.006 518,253.365 518,285.776 C 518,291 517.775,296.194 517.371,301.36 C 553.656,271.393 576,230.549 576,185.522 C 576,133.278 545.921,86.661 498.88,56.141 C 498.309,52.392 498,48.56 498,44.657 Z" horiz-adv-x="576" data-tags="bubbles, comments, chat, talk" />
<glyph unicode="&#xee10;" d="M 64,224L 192,352L 128,352L0,224L 128,96L 192,96 	zM 384,352L 320,352L 448,224L 320,96L 384,96L 512,224 	zM 272,416L 192,32L 240,32L 320,416 	z" data-tags="code, embed" />
<glyph unicode="&#xee12;" d="M 306.643,269.714q0-3.714 -2.857-6.571l-133.143-133.143q-2.857-2.857 -6.571-2.857t-6.571,2.857l-133.143,133.143q-2.857,2.857 -2.857,6.571t 2.857,6.571l 14.286,14.286q 2.857,2.857 6.571,2.857t 6.571-2.857l 112.286-112.286l 112.286,112.286q 2.857,2.857 6.571,2.857t 6.571-2.857l 14.286-14.286q 2.857-2.857 2.857-6.571z" horiz-adv-x="328" data-tags="angle-down, arrow, down" />
<glyph unicode="&#xee13;" d="M 306.643,141.714q0-3.714 -2.857-6.571l-14.286-14.286q-2.857-2.857 -6.571-2.857t-6.571,2.857l-112.286,112.286l-112.286-112.286q-2.857-2.857 -6.571-2.857t-6.571,2.857l-14.286,14.286q-2.857,2.857 -2.857,6.571t 2.857,6.571l 133.143,133.143q 2.857,2.857 6.571,2.857t 6.571-2.857l 133.143-133.143q 2.857-2.857 2.857-6.571z" horiz-adv-x="328" data-tags="angle-up, arrow, up" />
<glyph unicode="&#xee14;" d="M 169.5,205.714q0-3.714 -2.857-6.571l-133.143-133.143q-2.857-2.857 -6.571-2.857t-6.571,2.857l-14.286,14.286q-2.857,2.857 -2.857,6.571t 2.857,6.571l 112.286,112.286l-112.286,112.286q-2.857,2.857 -2.857,6.571t 2.857,6.571l 14.286,14.286q 2.857,2.857 6.571,2.857t 6.571-2.857l 133.143-133.143q 2.857-2.857 2.857-6.571z" horiz-adv-x="181" data-tags="angle-right, arrow, right" />
<glyph unicode="&#xee15;" d="M 178.643,324.571q0-3.714 -2.857-6.571l-112.286-112.286l 112.286-112.286q 2.857-2.857 2.857-6.571t-2.857-6.571l-14.286-14.286q-2.857-2.857 -6.571-2.857t-6.571,2.857l-133.143,133.143q-2.857,2.857 -2.857,6.571t 2.857,6.571l 133.143,133.143q 2.857,2.857 6.571,2.857t 6.571-2.857l 14.286-14.286q 2.857-2.857 2.857-6.571z" horiz-adv-x="181" data-tags="angle-left, arrow, left" />
<glyph unicode="&#xee16;" d="M 401.786,269.714l0-54.857 q0-11.429 -8-19.429t-19.429-8l-118.857,0 l0-118.857 q0-11.429 -8-19.429t-19.429-8l-54.857,0 q-11.429,0 -19.429,8t-8,19.429l0,118.857 l-118.857,0 q-11.429,0 -19.429,8t-8,19.429l0,54.857 q0,11.429 8,19.429t 19.429,8l 118.857,0 l0,118.857 q0,11.429 8,19.429t 19.429,8l 54.857,0 q 11.429,0 19.429-8t 8-19.429l0-118.857 l 118.857,0 q 11.429,0 19.429-8t 8-19.429z" horiz-adv-x="401" data-tags="plus, add, sum" />
<glyph unicode="&#xee17;" d="M 401.786,269.714l0-54.857 q0-11.429 -8-19.429t-19.429-8l-347.429,0 q-11.429,0 -19.429,8t-8,19.429l0,54.857 q0,11.429 8,19.429t 19.429,8l 347.429,0 q 11.429,0 19.429-8t 8-19.429z" horiz-adv-x="401" data-tags="minus, remove, delete, subtract" />
<glyph unicode="&#xee18;" d="M 103.285,41.143l 26,26l-67.143,67.143l-26-26l0-30.571 l 36.571,0 l0-36.571 l 30.571,0 zM 252.714,306.286q0,6.286 -6.286,6.286q-2.857,0 -4.857-2l-154.857-154.857q-2-2 -2-4.857q0-6.286 6.286-6.286q 2.857,0 4.857,2l 154.857,154.857q 2,2 2,4.857zM 237.285,361.143l 118.857-118.857l-237.714-237.714l-118.857,0 l0,118.857 zM 432.428,333.714q0-15.143 -10.571-25.714l-47.429-47.429l-118.857,118.857l 47.429,47.143q 10.286,10.857 25.714,10.857 q 15.143,0 26-10.857l 67.143-66.857q 10.571-11.143 10.571-26z" horiz-adv-x="438" data-tags="pencil, write, edit, blog" />
<glyph unicode="&#xee19;" d="M 321,169.143q0-7.714 -5.143-12.857l-29.143-29.143q-5.143-5.143 -12.857-5.143t-12.857,5.143l-42,42l-42-42q-5.143-5.143 -12.857-5.143t-12.857,5.143l-29.143,29.143q-5.143,5.143 -5.143,12.857t 5.143,12.857l 42,42l-42,42q-5.143,5.143 -5.143,12.857t 5.143,12.857l 29.143,29.143q 5.143,5.143 12.857,5.143t 12.857-5.143l 42-42l 42,42q 5.143,5.143 12.857,5.143t 12.857-5.143l 29.143-29.143q 5.143-5.143 5.143-12.857 t-5.143-12.857l-42-42l 42-42q 5.143-5.143 5.143-12.857zM 365.285,224q0,29.714 -11.571,56.714t-31.286,46.714t-46.714,31.286t-56.714,11.571t-56.714-11.571t-46.714-31.286t-31.286-46.714t-11.571-56.714t 11.571-56.714t 31.286-46.714t 46.714-31.286t 56.714-11.571t 56.714,11.571t 46.714,31.286t 31.286,46.714 t 11.571,56.714zM 438.428,224q0-59.714 -29.429-110.143t-79.857-79.857t-110.143-29.429t-110.143,29.429t-79.857,79.857t-29.429,110.143t 29.429,110.143t 79.857,79.857t 110.143,29.429t 110.143-29.429t 79.857-79.857t 29.429-110.143z" horiz-adv-x="438" data-tags="remove-circle, cancel, close, remove, delete" />
<glyph unicode="&#xee20;" d="M 365.285,224q0,39.714 -20.286,74.286l-200.286-200.286q 34.571-20.286 74.286-20.286q 29.714,0 56.714,11.571t 46.714,31.286t 31.286,46.714t 11.571,56.714zM 93,149.714l 200.286,200.286q-34.571,20.286 -74.286,20.286q-29.714,0 -56.714-11.571t-46.714-31.286t-31.286-46.714t-11.571-56.714q0-39.714 20.286-74.286zM 438.428,224q0-59.714 -29.429-110.143 t-79.857-79.857t-110.143-29.429t-110.143,29.429t-79.857,79.857t-29.429,110.143t 29.429,110.143t 79.857,79.857t 110.143,29.429t 110.143-29.429t 79.857-79.857t 29.429-110.143z" horiz-adv-x="438" data-tags="ban-circle, block, forbidden" />
<glyph unicode="&#xee21;" d="M 477.429,318.286q0-11.429 -8-19.429l-206.857-206.857l-38.857-38.857q-8-8 -19.429-8t-19.429,8l-38.857,38.857l-103.429,103.429q-8,8 -8,19.429t 8,19.429l 38.857,38.857q 8,8 19.429,8t 19.429-8l 84-84.286l 187.429,187.714q 8,8 19.429,8t 19.429-8l 38.857-38.857q 8-8 8-19.429z" data-tags="ok, checkmark, tick, correct" />
<glyph unicode="&#xee22;" d="M 370.714,102.286q0-11.429 -8-19.429l-38.857-38.857q-8-8 -19.429-8t-19.429,8l-84,84l-84-84q-8-8 -19.429-8t-19.429,8l-38.857,38.857q-8,8 -8,19.429t 8,19.429l 84,84l-84,84q-8,8 -8,19.429t 8,19.429l 38.857,38.857q 8,8 19.429,8t 19.429-8l 84-84l 84,84q 8,8 19.429,8t 19.429-8l 38.857-38.857q 8-8 8-19.429 t-8-19.429l-84-84l 84-84q 8-8 8-19.429z" horiz-adv-x="402" data-tags="remove, cancel, close, delete, mutiply" />
<glyph unicode="&#xee23;" d="M 402.072,214.286l0-90.857 q0-34 -24.143-58.143t-58.143-24.143l-237.714,0 q-34,0 -58.143,24.143t-24.143,58.143l0,237.714 q0,34 24.143,58.143t 58.143,24.143l 237.714,0 q 18,0 33.429-7.143q 4.286-2 5.143-6.571q 0.857-4.857 -2.571-8.286l-14-14q-2.857-2.857 -6.571-2.857q-0.857,0 -2.571,0.571q-6.571,1.714 -12.857,1.714l-237.714,0 q-18.857,0 -32.286-13.429t-13.429-32.286l0-237.714  q0-18.857 13.429-32.286t 32.286-13.429l 237.714,0 q 18.857,0 32.286,13.429t 13.429,32.286l0,72.571 q0,3.714 2.571,6.286l 18.286,18.286q 2.857,2.857 6.571,2.857q 1.714,0 3.429-0.857q 5.714-2.286 5.714-8.286zM 468.072,354l-232.571-232.571q-6.857-6.857 -16.286-6.857t-16.286,6.857l-122.857,122.857q-6.857,6.857 -6.857,16.286t 6.857,16.286l 31.429,31.429q 6.857,6.857 16.286,6.857t 16.286-6.857l 75.143-75.143l 184.857,184.857q 6.857,6.857 16.286,6.857t 16.286-6.857l 31.429-31.429 q 6.857-6.857 6.857-16.286t-6.857-16.286z" horiz-adv-x="475" data-tags="check, checkbox, correct, tick" />
<glyph unicode="&#xee24;" d="M 319.786,406.857l-237.714,0 q-18.857,0 -32.286-13.429t-13.429-32.286l0-237.714 q0-18.857 13.429-32.286t 32.286-13.429l 237.714,0 q 18.857,0 32.286,13.429t 13.429,32.286l0,237.714 q0,18.857 -13.429,32.286t-32.286,13.429zM 402.072,361.143l0-237.714 q0-34 -24.143-58.143t-58.143-24.143l-237.714,0 q-34,0 -58.143,24.143t-24.143,58.143l0,237.714 q0,34 24.143,58.143t 58.143,24.143l 237.714,0  q 34,0 58.143-24.143t 24.143-58.143z" horiz-adv-x="475" data-tags="check-empty, checkbox, square" />
<glyph unicode="&#xee25;" d="M 365.333,233.134q0,3.996 -2.568,6.564l-100.466,100.466q-2.568,2.568 -6.564,2.568t-6.564-2.568l-100.182-100.182q-2.854-3.425 -2.854-6.85q0-3.996 2.568-6.564t 6.564-2.568l 63.933,0 l0-100.466 q0-3.71 2.711-6.422t 6.422-2.711l 54.8,0 q 3.71,0 6.422,2.711t 2.711,6.422l0,100.466 l 63.933,0 q 3.71,0 6.422,2.711t 2.711,6.422zM 548,150.934q0-45.382 -32.11-77.49t-77.49-32.11l-310.533,0  q-52.802,0 -90.335,37.532t-37.532,90.335q0,37.104 19.979,68.5t 53.658,47.094q-0.57,8.562 -0.57,12.273q0,60.508 42.812,103.321t 103.321,42.812q 44.525,0 81.486-24.831t 53.801-65.931q 20.265,17.696 47.38,17.696q 30.254,0 51.66-21.407t 21.407-51.66q0-21.691 -11.702-39.388q 37.104-8.848 60.937-38.674t 23.832-68.072z" horiz-adv-x="548" data-tags="cloud-upload, upload, load, open" />
<glyph unicode="&#xee26;" d="M 365.333,214.867q0,3.996 -2.568,6.564t-6.564,2.568l-63.933,0 l0,100.466 q0,3.71 -2.711,6.422t-6.422,2.711l-54.8,0 q-3.71,0 -6.422-2.711t-2.711-6.422l0-100.466 l-63.933,0 q-3.71,0 -6.422-2.711t-2.711-6.422q0-3.996 2.568-6.564l 100.466-100.466q 2.568-2.568 6.564-2.568t 6.564,2.568l 100.182,100.182q 2.854,3.425 2.854,6.85zM 548,150.934q0-45.382 -32.11-77.49t-77.49-32.11l-310.533,0  q-52.802,0 -90.335,37.532t-37.532,90.335q0,37.104 19.979,68.5t 53.658,47.094q-0.57,8.562 -0.57,12.273q0,60.508 42.812,103.321t 103.321,42.812q 44.525,0 81.486-24.831t 53.801-65.931q 20.265,17.696 47.38,17.696q 30.254,0 51.66-21.407t 21.407-51.66q0-21.691 -11.702-39.388q 37.104-8.848 60.937-38.674t 23.832-68.072z" horiz-adv-x="548" data-tags="cloud-download, download, store, save" />
<glyph unicode="&#xee27;" d="M 548,150.934q0-45.382 -32.11-77.49t-77.49-32.11l-310.533,0 q-52.802,0 -90.335,37.532t-37.532,90.335q0,37.675 20.265,68.928t 53.373,46.665q-0.57,7.992 -0.57,12.273q0,60.508 42.812,103.321t 103.321,42.812q 45.096,0 81.772-25.117t 53.515-65.646q 19.979,17.696 47.38,17.696q 30.254,0 51.66-21.407t 21.407-51.66q0-21.407 -11.702-39.388q 36.819-8.562 60.794-38.389t 23.975-68.358z " horiz-adv-x="548" data-tags="cloud, weather" />
<glyph unicode="&#xee28;" d="M 255.734,224q0,30.254 -21.407,51.66t-51.66,21.407t-51.66-21.407t-21.407-51.66t 21.407-51.66t 51.66-21.407t 51.66,21.407t 21.407,51.66zM 474.934,77.867q0,14.842 -10.846,25.687t-25.687,10.846t-25.687-10.846t-10.846-25.687q0-15.127 10.703-25.83t 25.83-10.703t 25.83,10.703t 10.703,25.83zM 474.934,370.134q0,14.842 -10.846,25.687t-25.687,10.846t-25.687-10.846t-10.846-25.687q0-15.127 10.703-25.83t 25.83-10.703 t 25.83,10.703t 10.703,25.83zM 365.333,249.973l0-52.802 q0-2.854 -1.998-5.565t-4.566-2.997l-44.24-6.85q-3.14-9.99 -9.133-21.691q 9.704-13.7 25.687-32.823q 1.998-2.854 1.998-5.708q0-3.425 -1.998-5.423q-6.564-8.562 -23.546-25.544t-22.406-16.982q-3.14,0 -5.994,1.998l-32.823,25.687q-10.56-5.423 -21.977-8.848q-3.14-30.825 -6.564-44.24q-1.998-6.85 -8.562-6.85l-53.088,0 q-3.14,0 -5.708,2.141t-2.854,4.995 l-6.564,43.668q-9.704,2.854 -21.407,8.848l-33.679-25.403q-1.998-1.998 -5.708-1.998q-3.14,0 -5.994,2.284q-41.1,37.96 -41.1,45.666q0,2.568 1.998,5.423q 2.854,3.996 11.702,15.127t 13.415,17.411q-6.564,12.558 -9.99,23.405l-43.384,6.85q-2.854,0.286 -4.852,2.711t-1.998,5.565l0,52.802 q0,2.854 1.998,5.565t 4.566,2.997l 44.24,6.85q 3.14,9.99 9.133,21.691q-9.704,13.7 -25.687,32.823q-1.998,3.14 -1.998,5.708q0,3.425 1.998,5.708q 6.279,8.562 23.405,25.403t 22.548,16.839q 3.14,0 5.994-1.998 l 32.823-25.687q 9.704,5.138 21.977,9.133q 3.14,30.825 6.564,43.954q 1.998,6.85 8.562,6.85l 53.088,0 q 3.14,0 5.708-2.141t 2.854-4.995l 6.564-43.668q 9.704-2.854 21.407-8.848l 33.679,25.403q 2.284,1.998 5.708,1.998q 3.14,0 5.994-2.284q 41.1-37.96 41.1-45.666q0-2.568 -1.998-5.423q-3.425-4.566 -11.988-15.413t-12.844-17.125q 6.564-13.7 9.704-23.405l 43.384-6.564q 2.854-0.57 4.852-2.997t 1.998-5.565zM 548,97.846l0-39.958 q0-4.566 -42.527-8.848 q-3.425-7.706 -8.562-14.842q 14.556-32.252 14.556-39.388q0-1.142 -1.142-1.998q-34.821-20.265 -35.392-20.265q-2.284,0 -13.129,13.415t-14.842,19.409q-5.708-0.57 -8.562-0.57t-8.562,0.57q-3.996-5.994 -14.842-19.409t-13.129-13.415q-0.57,0 -35.392,20.265q-1.142,0.856 -1.142,1.998q0,7.136 14.556,39.388q-5.138,7.136 -8.562,14.842q-42.527,4.282 -42.527,8.848l0,39.958 q0,4.566 42.527,8.848q 3.71,8.277 8.562,14.842q-14.556,32.252 -14.556,39.388q0,1.142 1.142,1.998q 1.142,0.57 9.99,5.708 t 16.839,9.704t 8.562,4.566q 2.284,0 13.129-13.272t 14.842-19.266q 5.708,0.57 8.562,0.57t 8.562-0.57q 14.556,20.265 26.259,31.967l 1.712,0.57q 1.142,0 35.392-19.979q 1.142-0.856 1.142-1.998q0-7.136 -14.556-39.388q 4.852-6.564 8.562-14.842q 42.527-4.282 42.527-8.848zM 548,390.113l0-39.958 q0-4.566 -42.527-8.848q-3.425-7.706 -8.562-14.842q 14.556-32.252 14.556-39.388q0-1.142 -1.142-1.998q-34.821-20.265 -35.392-20.265q-2.284,0 -13.129,13.415t-14.842,19.409 q-5.708-0.57 -8.562-0.57t-8.562,0.57q-3.996-5.994 -14.842-19.409t-13.129-13.415q-0.57,0 -35.392,20.265q-1.142,0.856 -1.142,1.998q0,7.136 14.556,39.388q-5.138,7.136 -8.562,14.842q-42.527,4.282 -42.527,8.848l0,39.958 q0,4.566 42.527,8.848q 3.71,8.277 8.562,14.842q-14.556,32.252 -14.556,39.388q0,1.142 1.142,1.998q 1.142,0.57 9.99,5.708t 16.839,9.704t 8.562,4.566q 2.284,0 13.129-13.272t 14.842-19.266q 5.708,0.57 8.562,0.57t 8.562-0.57q 14.556,20.265 26.259,31.967l 1.712,0.57q 1.142,0 35.392-19.979 q 1.142-0.856 1.142-1.998q0-7.136 -14.556-39.388q 4.852-6.564 8.562-14.842q 42.527-4.282 42.527-8.848z" horiz-adv-x="548" data-tags="cogs, settings, options, preferences, gears" />
<glyph unicode="&#xee29;" d="M 382.357,249.429q 4.857-11.714 -4-20l-128-128q-5.143-5.429 -12.857-5.429t-12.857,5.429l-128,128q-8.857,8.286 -4,20q 4.857,11.143 16.857,11.143l 73.143,0 l0,128 q0,7.429 5.429,12.857t 12.857,5.429l 73.143,0 q 7.429,0 12.857-5.429t 5.429-12.857l0-128 l 73.143,0 q 12,0 16.857-11.143zM 466.072,187.429q 4,0 6.571-2.571t 2.571-6.571l0-164.571 q0-4 -2.571-6.571t-6.571-2.571l-457.143,0 q-4,0 -6.571,2.571t-2.571,6.571l0,164.571 q0,4 2.571,6.571 t 6.571,2.571l 54.857,0 q 4,0 6.571-2.571t 2.571-6.571l0-100.571 l 329.143,0 l0,100.571 q0,4 2.571,6.571t 6.571,2.571l 54.857,0 z" horiz-adv-x="475" data-tags="download-alt, arrow, store, save" />
<glyph unicode="&#xee30;" d="M 252.857,318.286q 5.143-5.714 2-12.571l-154.286-330.571q-3.714-7.143 -12-7.143q-1.143,0 -4,0.571q-4.857,1.429 -7.286,5.429t-1.286,8.571l 56.286,230.857l-116-28.857q-1.143-0.286 -3.429-0.286q-5.143,0 -8.857,3.143q-5.143,4.286 -3.714,11.143l 57.429,235.714q 1.143,4 4.571,6.571t 8,2.571l 93.714,0 q 5.429,0 9.143-3.571t 3.714-8.429q0-2.286 -1.429-5.143l-48.857-132.286l 113.143,28q 2.286,0.571 3.429,0.571q 5.429,0 9.714-4.286z" horiz-adv-x="256" data-tags="bolt, lightning, power, electricity, energy" />
<glyph unicode="&#xee31;" d="M 324.643,193.143l 87.429,84.857l-120.571,17.714l-54,109.143l-54-109.143l-120.571-17.714l 87.429-84.857l-20.857-120.286l 108,56.857l 107.714-56.857zM 475.214,295.143q0-6.286 -7.429-13.714l-103.714-101.143l 24.571-142.857q 0.286-2 0.286-5.714q0-14.286 -11.714-14.286q-5.429,0 -11.429,3.429l-128.286,67.429l-128.286-67.429q-6.286-3.429 -11.429-3.429q-6,0 -9,4.143t-3,10.143q0,1.714 0.571,5.714l 24.571,142.857 l-104,101.143q-7.143,7.714 -7.143,13.714q0,10.571 16,13.143l 143.429,20.857l 64.286,130q 5.429,11.714 14,11.714t 14-11.714l 64.286-130l 143.429-20.857q 16-2.571 16-13.143z" horiz-adv-x="475" data-tags="star-empty, favorite, rate" />
<glyph unicode="&#xee32;" d="M 310.428,214.857l0-18.286 q0-3.714 -2.714-6.429t-6.429-2.714l-109.714,0 q-3.714,0 -6.429,2.714t-2.714,6.429l0,128 q0,3.714 2.714,6.429t 6.429,2.714l 18.286,0 q 3.714,0 6.429-2.714t 2.714-6.429l0-100.571 l 82.286,0 q 3.714,0 6.429-2.714t 2.714-6.429zM 365.285,224q0,29.714 -11.571,56.714t-31.286,46.714t-46.714,31.286t-56.714,11.571t-56.714-11.571 t-46.714-31.286t-31.286-46.714t-11.571-56.714t 11.571-56.714t 31.286-46.714t 46.714-31.286t 56.714-11.571t 56.714,11.571t 46.714,31.286t 31.286,46.714t 11.571,56.714zM 438.428,224q0-59.714 -29.429-110.143t-79.857-79.857t-110.143-29.429t-110.143,29.429t-79.857,79.857t-29.429,110.143t 29.429,110.143t 79.857,79.857 t 110.143,29.429t 110.143-29.429t 79.857-79.857t 29.429-110.143z" horiz-adv-x="438" data-tags="time, clock" />
<glyph unicode="&#xee33;" d="M 364.496,224C 433.373,267.667, 480,351.605, 480,448c0,10.838-0.595,21.517-1.739,32L 33.741,480 C 32.595,469.515, 32,458.837, 32,448
		c0-96.397, 46.627-180.333, 115.503-224C 78.627,180.333, 32,96.395, 32,0c0-10.838, 0.595-21.517, 1.739-32l 444.521,0 
		c 1.144,10.483, 1.739,21.162, 1.739,32C 480,96.395, 433.373,180.333, 364.496,224z M 80,0c0,93.456, 40.081,172.707, 112,198.854
		l0,50.293 l0,0 C 120.081,275.293, 80,354.543, 80,448l0,0 l 352,0 l0,0 c0-93.457-40.081-172.707-112-198.853l0-50.293 
		C 391.919,172.707, 432,93.456, 432,0L 80,0 zM 309.813,145.203c-35.827,20.322-37.805,46.685-37.813,62.683L 272,240 c0,15.997, 1.902,42.457, 37.872,62.832
		c 19.251,11.182, 35.904,28.174, 48.525,49.168L 153.605,352 c 12.633-21.016, 29.306-38.021, 48.583-49.203
		c 35.827-20.322, 37.803-46.683, 37.813-62.683L 240.001,208 c0-15.997-1.902-42.457-37.872-62.832c-36.311-21.090-63.369-62.842-71.545-113.168
		l 250.835,0 C 373.237,82.354, 346.154,124.125, 309.813,145.203z" data-tags="busy, wait, loading, hour glass" />
<glyph unicode="&#xee34;" d="M 108.857,17.143q0-22.857 -15.571-36t-38.714-13.143q-30.286,0 -49.143,18.857l 16.286,25.143q 14-12.857 30.286-12.857q 8.286,0 14.429,4.143t 6.143,12.143q0,18.286 -30,16l-7.429,16q 2.286,2.857 9.286,12.429t 12.143,15.429t 10.571,11l0,0.286 q-4.571,0 -13.857-0.286t-13.857-0.286l0-15.143 l-30.286,0 l0,43.429 l 95.143,0 l0-25.143 l-27.143-32.857q 14.571-3.429 23.143-14t 8.571-25.143zM 109.429,196.286l0-45.429 l-103.429,0  q-1.714,10.286 -1.714,15.429q0,14.571 6.714,26.571t 16.143,19.429t 18.857,13.571t 16.143,12.429t 6.714,12.857q0,7.143 -4.143,11t-11.286,3.857q-13.143,0 -23.143-16.571l-24.286,16.857q 6.857,14.571 20.429,22.714t 30.143,8.143q 20.857,0 35.143-11.857t 14.286-32.143q0-14.286 -9.714-26.143t-21.429-18.429t-21.571-14.429t-10.143-15l 36.286,0 l0,17.143 l 30,0 zM 512,105.143l0-54.857 q0-3.714 -2.714-6.429 t-6.429-2.714l-347.429,0 q-3.714,0 -6.429,2.714t-2.714,6.429l0,54.857 q0,4 2.571,6.571t 6.571,2.571l 347.429,0 q 3.714,0 6.429-2.714t 2.714-6.429zM 109.714,362l0-28.286 l-95.714,0 l0,28.286 l 30.571,0 q0,11.714 0.143,34.857t 0.143,34.571l0,3.429 l-0.571,0 q-2.286-4.857 -14.286-15.429l-20.286,21.714l 38.857,36.286l 30.286,0 l0-115.429 l 30.857,0 zM 512,251.429l0-54.857 q0-3.714 -2.714-6.429t-6.429-2.714l-347.429,0 q-3.714,0 -6.429,2.714 t-2.714,6.429l0,54.857 q0,4 2.571,6.571t 6.571,2.571l 347.429,0 q 3.714,0 6.429-2.714t 2.714-6.429zM 512,397.714l0-54.857 q0-3.714 -2.714-6.429t-6.429-2.714l-347.429,0 q-3.714,0 -6.429,2.714t-2.714,6.429l0,54.857 q0,3.714 2.714,6.429t 6.429,2.714l 347.429,0 q 3.714,0 6.429-2.714t 2.714-6.429z" data-tags="list-ol, numbered list" />
<glyph unicode="&#xee35;" d="M 211.405,38.614l 52.461,373.057l 36.957,0 l-53.161-373.057L 211.405,38.614 zM 466.281,202.665l-149.686-105.667l0,45.576 l 118.547,81.224l-118.547,80.459l0,45.576 l 149.686-104.394L 466.281,202.665 zM 44.595,244.751l 149.686,105.667l0-45.576 L 75.735,223.618l 118.547-80.459l0-45.577 L 44.595,201.976L 44.595,244.751 zM 498.286,480L 13.714,480 C 6.141,480,0,473.859,0,466.286l0-484.571 c0-7.574, 6.141-13.714, 13.714-13.714l 484.571,0 c 7.574,0, 13.714,6.141, 13.714,13.714L 512,466.286 C 512,473.859, 505.859,480, 498.286,480z
	 M 486.857-6.857L 25.143-6.857 L 25.143,454.857 l 461.714,0 L 486.857-6.857 z" data-tags="app-code" />
<glyph unicode="&#xee36;" d="M 311.413,128.632c-11.055,1.759-11.307,32.157-11.307,32.157s 32.484,32.158, 39.564,75.401
	c 19.045,0, 30.809,45.973, 11.761,62.148C 352.226,315.365, 375.911,432, 256,432c-119.911,0-96.225-116.635-95.432-133.662
	c-19.047-16.175-7.285-62.148, 11.761-62.148c 7.079-43.243, 39.564-75.401, 39.564-75.401s-0.252-30.398-11.307-32.157
	C 164.976,122.966, 32,64.315, 32,0l 224,0 l 224,0 C 480,64.315, 347.024,122.966, 311.413,128.632z" data-tags="user, profile, avatar, person, talk, member" />
<glyph unicode="&#xee37;" d="M 367.497,77.313c-9.476,1.494-9.692,27.327-9.692,27.327s 27.844,27.328, 33.912,64.076
	c 16.326,0, 26.407,39.069, 10.082,52.814c 0.681,14.47, 20.984,113.588-81.799,113.588c-102.782,0-82.479-99.118-81.799-113.588
	c-16.327-13.745-6.244-52.814, 10.081-52.814c 6.067-36.748, 33.913-64.076, 33.913-64.076s-0.216-25.833-9.692-27.327
	C 241.979,72.497, 128,22.655, 128-32l 192,0 l 192,0 C 512,22.655, 398.021,72.497, 367.497,77.313zM 172.027,68.595c 22.047,13.575, 48.813,26.154, 70.769,33.712c-7.876,11.216-16.647,26.468-22.165,44.531
	c-7.703,6.283-13.972,15.266-17.999,26.301c-4.033,11.052-5.561,23.426-4.304,34.842c 0.902,8.196, 3.239,15.833, 6.825,22.544
	c-2.175,23.293-3.707,69.017, 26.224,102.366c 11.607,12.933, 26.278,22.23, 43.85,27.843C 272.090,393.114, 255.647,431.119, 192,431.119
	c-102.782,0-82.479-99.118-81.799-113.588c-16.327-13.745-6.244-52.814, 10.081-52.814c 6.067-36.748, 33.913-64.076, 33.913-64.076
	s-0.216-25.833-9.692-27.327C 113.979,168.497,0,118.655,0,64l 164.798,0 C 167.153,65.537, 169.551,67.070, 172.027,68.595z" data-tags="users, people, group, team, members, community" />
<glyph unicode="&#xee38;" d="M 448-32l-384,0 q-26.501,0 -45.25,18.75t-18.75,45.25l0,384 q0,26.501 18.75,45.25t 45.25,18.75l 384,0 q 26.501,0 45.25-18.75t 18.75-45.25l0-384 q0-26.501 -18.75-45.25t-45.25-18.75zM 448,384q0,13 -9.501,22.501t-22.501,9.501l-320,0 q-13.501,0 -22.75-9.501t-9.25-22.501l0-320 q0-13.501 9.25-22.75t 22.75-9.25l 320,0 q 13,0 22.501,9.25t 9.501,22.75
l0,320 zM 384,64l-256,0 q-13.501,0 -22.75,9.501t-9.25,22.501l0,64 q0,13 9.25,22.501t 22.75,9.501l 256,0 q 13,0 22.501-9.501t 9.501-22.501l0-64 q0-13.501 -9.501-22.75t-22.501-9.25zM 159.75,160q-13.25,0 -22.501-9.501t-9.25-22.75t 9.25-22.501t 22.501-9.25t 22.75,9.25t 9.501,22.501t-9.501,22.75t-22.75,9.501zM 368,128l-128,0 q-6.501,0 -11.25-4.75t-4.75-11.25
t 4.75-11.25t 11.25-4.75l 128,0 q 6.501,0 11.25,4.75t 4.75,11.25t-4.75,11.25t-11.25,4.75zM 384,256l-256,0 q-13.501,0 -22.75,9.25t-9.25,22.75l0,64 q0,13 9.25,22.501t 22.75,9.501l 256,0 q 13,0 22.501-9.501t 9.501-22.501l0-64 q0-13.501 -9.501-22.75t-22.501-9.25zM 159.75,352q-13.25,0 -22.501-9.501t-9.25-22.75t 9.25-22.501t 22.501-9.25
t 22.75,9.25t 9.501,22.501t-9.501,22.75t-22.75,9.501zM 368,320l-128,0 q-6.501,0 -11.25-4.75t-4.75-11.25t 4.75-11.25t 11.25-4.75l 128,0 q 6.501,0 11.25,4.75t 4.75,11.25t-4.75,11.25t-11.25,4.75z" data-tags="colocation2" />
<glyph unicode="&#xee39;" d="M 292.571,77.714l 182.857,0 l0,36.571 l-182.857,0 l0-36.571 zM 182.857,224l 292.571,0 l0,36.571 l-292.571,0 l0-36.571 zM 365.714,370.286l 109.714,0 l0,36.571 l-109.714,0 l0-36.571 zM 512,132.571l0-73.143 q0-7.429 -5.429-12.857t-12.857-5.429l-475.429,0 q-7.429,0 -12.857,5.429t-5.429,12.857l0,73.143 q0,7.429 5.429,12.857t 12.857,5.429l 475.429,0 q 7.429,0 12.857-5.429t 5.429-12.857zM 512,278.857l0-73.143 q0-7.429 -5.429-12.857t-12.857-5.429l-475.429,0 q-7.429,0 -12.857,5.429 t-5.429,12.857l0,73.143 q0,7.429 5.429,12.857t 12.857,5.429l 475.429,0 q 7.429,0 12.857-5.429t 5.429-12.857zM 512,425.143l0-73.143 q0-7.429 -5.429-12.857t-12.857-5.429l-475.429,0 q-7.429,0 -12.857,5.429t-5.429,12.857l0,73.143 q0,7.429 5.429,12.857t 12.857,5.429l 475.429,0 q 7.429,0 12.857-5.429t 5.429-12.857z" data-tags="tasks, bars" />
<glyph unicode="&#xee40;" d="M 448,256l 8,0 c 13.2,0 24,10.8 24,24l0,80 c0,13.2-10.8,24-24,24l-8,0 L 448,480 l-64,0 l 0-96 l-8,0 c-13.2,0, -24-10.8, -24-24l 0-80 c 0-13.2, 10.8-24, 24-24l 8,0 
		l 0-288 L 448-32 L 448,256 z M 384,352L 448,352 l 0-64 l-64,0 L 384,352 zM 296,64c 13.2,0 24,10.8 24,24l0,80 c0,13.2-10.8,24-24,24l-8,0 L 288,480 l-64,0 l 0-288 l-8,0 c-13.2,0, -24-10.8, -24-24l 0-80 c 0-13.2, 10.8-24, 24-24l 8,0 
		l 0-96 l 64,0 l0,96 L 296,64 z M 224,160l 64,0 l 0-64 l-64,0 L 224,160 zM 136,256c 13.2,0 24,10.8 24,24l0,80 c0,13.2-10.8,24-24,24l-8,0 L 128,480 l-64,0 l 0-96 l-8,0 c-13.2,0, -24-10.8, -24-24l 0-80 c 0-13.2, 10.8-24, 24-24l 8,0 
		l 0-288 l 64,0 L 128,256 L 136,256 z M 64,352l 64,0 l 0-64 l-64,0 L 64,352 z" data-tags="equalizer, control, options, settings, dashboard" />
<glyph unicode="&#xee41;" d="M 279.143,141.429q0-43.714 -28.429-75.286t-73.857-39l0-50 q0-4 -2.571-6.571t-6.571-2.571l-38.571,0 q-3.714,0 -6.429,2.714t-2.714,6.429l0,50 q-18.857,2.571 -36.429,8.857t-29,12.714t-21.143,13.714t-13.286,10.714t-5,5.143q-4.857,6 -0.571,11.714l 29.429,38.571q 2,2.857 6.571,3.429q 4.286,0.571 6.857-2.571l 0.571-0.571q 32.286-28.286 69.429-35.714q 10.571-2.286 21.143-2.286q 23.143,0 40.714,12.286 t 17.571,34.857q0,8 -4.286,15.143t-9.571,12t-16.714,10.714t-18.857,9.143t-22.857,9.286q-11.143,4.571 -17.571,7.143t-17.571,7.571t-17.857,8.857t-16.143,10.143t-15.286,12.143t-12.429,14t-10.143,16.571t-6,19t-2.429,22.286q0,39.429 28,69.143t 72.857,38.286l0,51.429 q0,3.714 2.714,6.429t 6.429,2.714l 38.571,0 q 4,0 6.571-2.571t 2.571-6.571l0-50.286 q 16.286-1.714 31.571-6.571t 24.857-9.571 t 18.143-10.714t 11.143-8.286t 4.286-4q 4.857-5.143 1.429-10.857l-23.143-41.714q-2.286-4.286 -6.571-4.571q-4-0.857 -7.714,2q-0.857,0.857 -4.143,3.429t-11.143,7.571t-16.714,9.143t-21.286,7.429t-24.429,3.286q-27.143,0 -44.286-12.286t-17.143-31.714q0-7.429 2.429-13.714t 8.429-11.857t 11.286-9.429t 16-8.857t 17.286-7.714t 20-7.857q 15.143-5.714 23.143-9t 21.714-10t 21.571-12.143t 17.714-14.286 t 15.143-18.143t 9-21.857t 3.714-26.857z" horiz-adv-x="292" data-tags="dollar, usd, currency, dollar" />
<glyph unicode="&#xee42;" d="M 278.572,106.571l 10-45.429q 0.857-3.429 -0.857-6.429t-4.857-4.143l-1.429-0.286q-1.143-0.571 -3-1t-4.571-1.286t-6.143-1.571t-7.286-1.429t-8.571-1.429t-9.571-1.286t-10.429-0.857t-11-0.286q-66.857,0 -116.857,37.286t-68,100.429l-27.143,0 q-3.714,0 -6.429,2.714t-2.714,6.429l0,32.286 q0,3.714 2.714,6.429t 6.429,2.714l 18.857,0 q-0.571,16.286 0.286,30l-19.143,0 q-4,0 -6.571,2.571 t-2.571,6.571l0,32.571 q0,4 2.571,6.571t 6.571,2.571l 28,0 q 19.143,60 69.571,96.571t 114.429,36.571q 29.143,0 55.429-6.571q 3.143-0.857 5.714-4.286q 1.714-3.143 0.857-6.857l-12.286-45.429q-0.857-3.714 -4-5.571t-6.857-0.714l-1.143,0.286q-1.143,0.286 -3.286,0.714l-5,1t-6.429,1t-7.429,0.857t-8.286,0.714t-8.429,0.286q-36,0 -64.571-18.286t-42.857-50.286l 133.714,0 q 4.571,0 7.143-3.429q 2.857-3.429 2-7.429 l-6.857-32.571q-1.429-7.429 -9.143-7.429l-139.429,0 q-0.857-10.571 0-30l 131.143,0 q 4.286,0 7.143-3.429q 2.571-3.429 1.714-7.714l-6.857-32q-0.571-3.143 -3.143-5.286t-5.714-2.143l-110.571,0 q 13.714-33.429 42.714-53t 65.286-19.571q 5.143,0 10.286,0.429t 9.571,1t 8.429,1.286t 7,1.429t 5.286,1.286l 3.429,0.857l 1.429,0.571q 3.714,1.429 7.429-0.571q 3.429-2 4.286-6z" horiz-adv-x="292" data-tags="euro, currency, money" />
<glyph unicode="&#xee43;" d="M 502.334,443.201q 18.837,0 32.252-13.415t 13.415-32.252l0-347.067 q0-18.837 -13.415-32.252t-32.252-13.415l-456.667,0 q-18.837,0 -32.252,13.415t-13.415,32.252l0,347.067 q0,18.837 13.415,32.252t 32.252,13.415l 456.667,0 zM 45.666,406.667q-3.71,0 -6.422-2.711t-2.711-6.422l0-63.933 l 474.934,0 l0,63.933 q0,3.71 -2.711,6.422t-6.422,2.711l-456.667,0 zM 502.334,41.334q 3.71,0 6.422,2.711t 2.711,6.422l0,173.533 l-474.934,0 l0-173.533  q0-3.71 2.711-6.422t 6.422-2.711l 456.667,0 zM 73.067,77.867l0,36.533 l 73.067,0 l0-36.533 l-73.067,0 zM 182.667,77.867l0,36.533 l 109.6,0 l0-36.533 l-109.6,0 z" horiz-adv-x="548" data-tags="credit, payment, card" />
<glyph unicode="&#xee44;" d="M 512,192l0,32 l-96.645,0 c-2.931,36.343-15.893,69.513-35.835,96.125l 80.972,0 l 35.030,140.12l-31.045,7.761l-28.97-115.88l-87.34,0 
	c-0.446,0.347-0.898,0.687-1.349,1.028c 3.355,9.751, 5.181,20.211, 5.181,31.097C 352,437.131, 309.020,480, 256,480s-96-42.869-96-95.75
	c0-10.886, 1.825-21.346, 5.181-31.097c-0.45-0.342-0.902-0.681-1.349-1.028l-87.34,0 l-28.97,115.88l-31.045-7.761l 35.030-140.12l 80.972,0 
	C 112.537,293.513, 99.576,260.343, 96.645,224L0,224 l0-32 l 96.685,0 c 1.901-22.832, 7.754-44.406, 16.819-63.875L 51.508,128.125 l-35.030-140.119
	l 31.045-7.762l 28.97,115.881l 56.177,0 C 162.016,57.109, 206.368,32.25, 256,32.25s 93.983,24.859, 123.331,63.875l 56.177,0 l 28.97-115.881
	l 31.045,7.762l-35.030,140.119l-61.996,0 c 9.065,19.469, 14.918,41.043, 16.818,63.875L 512,192 z" data-tags="bug, virus, error" />
<glyph unicode="&#xee45;" d="M 440.5,319q-5,1 -7.5,1q-18.5,0 -32-12.5q-30.5,13.5 -57,22q-43.5,14 -91,23q-4.5,12 -13.5,20q 12.5,59 33.5,107q 63-4.5 115.75-36.5t 85.25-84q-18.5-20 -33.5-40zM 208.5,384q-13,0 -24.5-7q-40.5,30 -81.5,51q 62,47 139,51.5q-19.5-43.5 -31.5-95.5l-1,0 l-0.5,0 zM 35,353q 17,28.5 43,54q 34-17.5 70.5-43
q-64.5,1.5 -113.5-11zM 160.5,333q 1-15.5 10.75-27.25t 24.25-15.75q-3-35 -3-66.5q0-22 1.5-50.5q-11-3.5 -19.5-12q-27,10.5 -52,24q 5.5,11 5.5,22.5q0,20 -14,34t-34,14q-22,0 -36.5-17q-21,19 -37.5,39.5q 4.5,21.5 13.5,42.5q 61,17 141,12.5zM 32.5,203.5q 1.5-18.5 15.25-31.25t 32.25-12.75q 5.5,0 12,2
q 32-18.5 68.5-32l0-1 l0-1 q0-19.5 13.25-33.25t 32.75-14.75q 12.5-61 35-111.5q-50,3 -94.5,24.25t-76.75,55.25t-51.25,80t-19,96q0,0.5 0.5,13.5q 14-17.5 32-33.5zM 250.5,105q 36-6.5 72.5-8.5q 3.5-10 11-18.5q-11.5-52.5 -14-102q-25.5-6.5 -47-8q-23.5,53.5 -36.5,121q 9,6 14,16zM 405.5,81
q 6.5,8 9,17q 36.5,3 70.5,9.5q-24-47 -66-81.5q-4.5,26 -13.5,55zM 324,128.5q-35,2 -69,9q-5.5,25 -28.5,34.5q-2,29.5 -2,51.5q0,33 3,68.5q 1,0 2.5,1t 2,1q 19.5-19 34-35q 43.5-48 74-109q-11-8.5 -16-21.5zM 368.5,63.5q 1,0 5.5,0.5q 8.5-30.5 12.5-60.5q-14.5-8.5 -35-17q 3.5,39 12,77.5q 4-0.5 5-0.5z
M 366,183q-0.5-1 -1.25-3t-1.25-3q-31.5,57 -74,103.5q-15.5,17.5 -37,38q 0.5,0 0.75,0.75l 0.25,0.75q 42-8.5 80.5-21q 23.5-7.5 51.5-20q-1-5 -1-7.5q0-15 9-27.5q-16.5-31.5 -27.5-61zM 389.5,154q 6,17.5 6,18q 10,25 25,53.5q 6.5-2 12.5-2q 17,0 30.5,11.5q 24.5-17 48-38q-3-28.5 -12-55
q-41-8.5 -86.5-12q-6.5,16 -23.5,24zM 481,272q0,16.5 -11,30q 10.5,13.5 21,24.5q 18-41 21-84.5q-16.5,12.5 -32,22.5q 1,4.5 1,7.5z" data-tags="domain2" />
<glyph unicode="&#xee46;" d="M 436.286,66.286q 16-25.429 6.143-43.571t-40.143-18.143l-329.143,0 q-30.286,0 -40.143,18.143t 6.143,43.571l 143.714,226.571l0,114 l-18.286,0 q-7.429,0 -12.857,5.429t-5.429,12.857t 5.429,12.857t 12.857,5.429l 146.286,0 q 7.429,0 12.857-5.429t 5.429-12.857t-5.429-12.857t-12.857-5.429l-18.286,0 l0-114 zM 213.714,273.429l-77.714-122.571l 203.429,0 l-77.714,122.571l-5.714,8.857l0,10.571 l0,114 l-36.571,0 l0-114 l0-10.571 z" horiz-adv-x="475.429" data-tags="beaker, lab, beta, experiment, test" />
<glyph unicode="&#xee47;" d="M 160,384l 128,0 c 9,0, 16.583,3.167, 22.75,9.5S 320,407.333, 320,416c0,9-3.083,16.583-9.25,22.75S 297,448, 288,448
		c0,9-3.083,16.583-9.25,22.75C 272.584,476.917, 265,480, 256,480l-64,0 c-8.667,0-16.167-3.083-22.5-9.25S 160,457, 160,448
		c-8.667,0-16.167-3.083-22.5-9.25S 128,425, 128,416c0-8.667, 3.167-16.167, 9.5-22.5S 151.333,384, 160,384zM 471.824,134.097c-9.555,10.076-20.417,19.411-32.475,27.936c-0.227,0.161-0.458,0.318-0.687,0.479
		c-1.195,0.839-2.399,1.671-3.618,2.493c-0.407,0.275-0.819,0.548-1.229,0.82c-1.053,0.702-2.111,1.399-3.181,2.089
		c-0.494,0.318-0.99,0.635-1.488,0.951c-1.004,0.638-2.016,1.271-3.035,1.898c-0.54,0.333-1.081,0.666-1.626,0.995
		c-1.005,0.609-2.019,1.211-3.038,1.81c-0.554,0.326-1.104,0.653-1.663,0.976c-1.083,0.627-2.179,1.244-3.278,1.859
		c-0.492,0.275-0.979,0.555-1.475,0.828c-1.594,0.879-3.201,1.748-4.826,2.604c-25.654,13.254-49.344,21.652-74.422,26.375l-14.484,0 
		l0,62.908 l-137.366-106.84l 137.366-106.84l0,59.4 l 10.833,3.132c 13.785,3.986, 30.655,6.094, 48.787,6.094
		c 3.456,0, 6.964-0.079, 10.427-0.233l 0.103-0.005c 1.332-0.068, 2.658-0.15, 3.979-0.242c 0.47-0.033, 0.936-0.072, 1.404-0.108
		c 0.846-0.063, 1.69-0.128, 2.531-0.201c 0.575-0.050, 1.146-0.107, 1.719-0.161c 0.724-0.069, 1.447-0.138, 2.167-0.214
		c 0.632-0.066, 1.261-0.139, 1.89-0.211c 0.647-0.073, 1.294-0.148, 1.938-0.228c 0.681-0.084, 1.358-0.173, 2.035-0.263
		c 0.577-0.077, 1.152-0.156, 1.727-0.237c 0.727-0.104, 1.45-0.209, 2.172-0.319c 0.504-0.077, 1.006-0.157, 1.508-0.237
		c 0.782-0.126, 1.564-0.253, 2.342-0.388c 0.402-0.069, 0.802-0.142, 1.202-0.213c 0.866-0.155, 1.733-0.312, 2.594-0.478
		c 0.233-0.045, 0.464-0.093, 0.695-0.138c 9.247-1.814, 18.147-4.244, 26.649-7.285c 1.848-0.66, 3.683-1.341, 5.492-2.060
		c 21.164-8.41, 39.898-21.139, 55.689-37.834c 0.148-0.159, 0.296-0.317, 0.443-0.478C 502.015,94.819, 488.94,116.118, 471.824,134.097zM 389.954,93.861c-3.002,0.134-6.041,0.201-9.035,0.201c-10.543,0-20.715-0.847-29.62-2.433l0-97.533 l-216.231,168.18
		l 216.231,168.179l0-96.827 c 24.375-5.51, 47.767-14.268, 72.723-27.166l 0.095-0.049c 8.32-4.375, 16.285-9.049, 23.884-13.999L 448.001,416 
		c0,9-3.083,16.667-9.25,23S 425,448.5, 416,448.5l-64,0 l0-64 c0-9-3.083-16.583-9.25-22.75S 329,352.5, 320,352.5L 128,352.5 
		c-8.667,0-16.167,3.083-22.5,9.25S 96,375.5, 96,384.5l0,64 L 32,448.5 c-9,0-16.583-3.167-22.75-9.5S0,425,0,416l0-416 
		c0-8.667, 3.167-16.167, 9.5-22.5S 23.333-32, 32-32l 384,0 c 9,0, 16.583,3.167, 22.75,9.5S 448-8.667, 448,0l0,80.577 
		c-1.838,0.835-3.696,1.634-5.582,2.384C 426.694,89.202, 409.041,92.87, 389.954,93.861z" data-tags="copy-clipboard" />
<glyph unicode="&#xee48;" d="M 256-23l0,224 l 224,119.5l0-224 zM0,352.5l 240,128l 240-128l-240-128zM 224-23l-224,119.5l0,224 l 224-119.5l0-224 z" data-tags="app-box" />
<glyph unicode="&#xee49;" d="M 202.064,480c 93.849,0 194.88-28.3 194.88-90.48l0-264.48 c0-62.153 -101.018-90.48 -194.88-90.48c-93.877,0 -194.88,28.327 -194.88,90.48l0,264.48 c0,62.18 101.003,90.48 194.88,90.48zM 369.104,125.040l0,52.005 c-28.759-29.636 -98.136-45.045 -167.040-45.045s-138.281,15.41 -167.040,45.045l0-52.005 c0-34.577 74.778-62.64 167.040-62.64c 92.248,0 167.040,28.063 167.040,62.64zM 369.104,208.56l0,52.005 c-28.759-29.636 -98.136-45.045 -167.040-45.045s-138.281,15.41 -167.040,45.045l0-52.005 l 0.055,0 c0-0.139 -0.055-0.292 -0.055-0.432c0-34.369 74.792-62.209 167.040-62.209s 167.040,27.84 167.040,62.209 c0,0.139 -0.055,0.292 -0.055,0.432l 0.055,0 zM 369.104,292.080l0,47.829 c-36.485-27.798 -103.356-40.869 -167.040-40.869s-130.555,13.071 -167.040,40.869l0-47.829 l 0.055,0 c0-0.139 -0.055-0.292 -0.055-0.432 c0-34.369 74.792-62.209 167.040-62.209s 167.040,27.84 167.040,62.209c0,0.139 -0.055,0.292 -0.055,0.432l 0.055,0 zM 202.064,326.88c 92.248,0 167.040,28.063 167.040,62.64c0,34.605 -74.792,62.64 -167.040,62.64 c-92.262,0 -167.040-28.035 -167.040-62.64c0-34.577 74.778-62.64 167.040-62.64zM 313.424,118.080c0,9.28 4.64,13.92 13.92,13.92s 13.92-4.64 13.92-13.92s-4.64-13.92 -13.92-13.92s-13.92,4.64 -13.92,13.92z M 313.424,201.6c0,9.28 4.64,13.92 13.92,13.92s 13.92-4.64 13.92-13.92s-4.64-13.92 -13.92-13.92s-13.92,4.64 -13.92,13.92zM 313.424,285.12c0,9.28 4.64,13.92 13.92,13.92s 13.92-4.64 13.92-13.92 s-4.64-13.92 -13.92-13.92s-13.92,4.64 -13.92,13.92z" horiz-adv-x="404" data-tags="database" />
<glyph unicode="&#x20;" horiz-adv-x="256" />
</font>
</defs>
</svg>
