<?xml version="1.0" encoding="UTF-8" standalone="no"?>
<!DOCTYPE svg PUBLIC "-//W3C//DTD SVG 1.1//EN"
 "http://www.w3.org/Graphics/SVG/1.1/DTD/svg11.dtd">
<!-- Generated by graphviz version 8.1.0 (20230707.0739)
 -->
<!-- Title: OpenShift Certificates Pages: 1 -->
<svg width="14243pt" height="475pt"
 viewBox="0.00 0.00 14243.40 474.57" xmlns="http://www.w3.org/2000/svg" xmlns:xlink="http://www.w3.org/1999/xlink">
<g id="graph0" class="graph" transform="scale(1 1) rotate(0) translate(4 470.57)">
<title>OpenShift Certificates</title>
<polygon fill="white" stroke="none" points="-4,4 -4,-470.57 14239.4,-470.57 14239.4,4 -4,4"/>
<!-- 0 -->
<g id="node1" class="node">
<title>0</title>
<ellipse fill="#c7bfff" stroke="black" cx="2335.13" cy="-294.27" rx="395.27" ry="41.37"/>
<text text-anchor="middle" x="2335.13" y="-306.22" font-family="Times,serif" font-size="14.00">certkeypair/kube&#45;apiserver&#45;to&#45;kubelet&#45;signer::5911051446634154830</text>
<text text-anchor="middle" x="2335.13" y="-272.97" font-family="Times,serif" font-size="14.00">secret/kube&#45;apiserver&#45;to&#45;kubelet&#45;signer &#45;nopenshift&#45;kube&#45;apiserver&#45;operator</text>
</g>
<!-- 15 -->
<g id="node16" class="node">
<title>15</title>
<ellipse fill="#c8fbcd" stroke="black" cx="314.13" cy="-102.35" rx="314.13" ry="41.37"/>
<text text-anchor="middle" x="314.13" y="-114.3" font-family="Times,serif" font-size="14.00">certkeypair/system:kube&#45;apiserver::4721398849933843688</text>
<text text-anchor="middle" x="314.13" y="-81.05" font-family="Times,serif" font-size="14.00">secret/kubelet&#45;client &#45;nopenshift&#45;kube&#45;apiserver</text>
</g>
<!-- 0&#45;&gt;15 -->
<g id="edge1" class="edge">
<title>0&#45;&gt;15</title>
<path fill="none" stroke="black" d="M1950.58,-284.45C1528.88,-272.77 879.81,-248.39 637.13,-204.71 564.81,-191.69 486.08,-167.21 424.45,-145.57"/>
<polygon fill="black" stroke="black" points="425.92,-142.02 415.32,-141.98 423.58,-148.62 425.92,-142.02"/>
</g>
<!-- 16 -->
<g id="node17" class="node">
<title>16</title>
<ellipse fill="#fda172" stroke="black" cx="1078.13" cy="-102.35" rx="431.87" ry="41.37"/>
<text text-anchor="middle" x="1078.13" y="-114.3" font-family="Times,serif" font-size="14.00">cabundle/kube&#45;apiserver&#45;to&#45;kubelet&#45;signer</text>
<text text-anchor="middle" x="1078.13" y="-81.05" font-family="Times,serif" font-size="14.00">configmaps/kube&#45;apiserver&#45;to&#45;kubelet&#45;client&#45;ca &#45;nopenshift&#45;kube&#45;apiserver&#45;operator</text>
</g>
<!-- 0&#45;&gt;16 -->
<g id="edge2" class="edge">
<title>0&#45;&gt;16</title>
<path fill="none" stroke="black" d="M2025.42,-268.32C1872.45,-253.79 1685.47,-232.75 1519.13,-204.71 1424.32,-188.72 1319.37,-164.86 1235.64,-144.3"/>
<polygon fill="black" stroke="black" points="1236.56,-140.68 1226.02,-141.68 1234.89,-147.47 1236.56,-140.68"/>
</g>
<!-- 17 -->
<g id="node18" class="node">
<title>17</title>
<ellipse fill="#fda172" stroke="black" cx="6589.13" cy="-102.35" rx="745.29" ry="41.37"/>
<text text-anchor="middle" x="6589.13" y="-114.3" font-family="Times,serif" font-size="14.00">cabundle/admin&#45;kubeconfig&#45;signer|kubelet&#45;signer|kube&#45;control&#45;plane&#45;signer|kube&#45;apiserver&#45;to&#45;kubelet&#45;signer|kubelet&#45;bootstrap&#45;kubeconfig&#45;signer</text>
<text text-anchor="middle" x="6589.13" y="-81.05" font-family="Times,serif" font-size="14.00">configmaps/initial&#45;kube&#45;apiserver&#45;server&#45;ca &#45;nopenshift&#45;config</text>
</g>
<!-- 0&#45;&gt;17 -->
<g id="edge3" class="edge">
<title>0&#45;&gt;17</title>
<path fill="none" stroke="black" d="M2707.59,-280.19C3044,-268.68 3552.68,-252.04 3995.13,-240.71 4812.8,-219.76 5019.6,-267.29 5835.13,-204.71 6005.54,-191.63 6196.31,-165.88 6343.33,-143.61"/>
<polygon fill="black" stroke="black" points="6343.47,-146.97 6352.83,-142.01 6342.42,-140.05 6343.47,-146.97"/>
</g>
<!-- 23 -->
<g id="node24" class="node">
<title>23</title>
<ellipse fill="#fda172" stroke="black" cx="9262.13" cy="-102.35" rx="1292.06" ry="90.16"/>
<text text-anchor="middle" x="9262.13" y="-148.8" font-family="Times,serif" font-size="14.00">cabundle/admin&#45;kubeconfig&#45;signer|kube&#45;csr&#45;signer_@1704273808|kubelet&#45;signer|kube&#45;apiserver&#45;to&#45;kubelet&#45;signer|kube&#45;control&#45;plane&#45;signer|kubelet&#45;bootstrap&#45;kubeconfig&#45;signer|openshift&#45;kube&#45;apiserver&#45;operator_node&#45;system&#45;admin&#45;signer@1704273804</text>
<text text-anchor="middle" x="9262.13" y="-115.55" font-family="Times,serif" font-size="14.00">configmaps/kube&#45;apiserver&#45;client&#45;ca &#45;nopenshift&#45;config&#45;managed</text>
<text text-anchor="middle" x="9262.13" y="-98.3" font-family="Times,serif" font-size="14.00"> &#160;&#160;&#160;configmaps/client&#45;ca &#45;nopenshift&#45;controller&#45;manager</text>
<text text-anchor="middle" x="9262.13" y="-81.05" font-family="Times,serif" font-size="14.00"> &#160;&#160;&#160;configmaps/client&#45;ca &#45;nopenshift&#45;kube&#45;apiserver</text>
<text text-anchor="middle" x="9262.13" y="-63.8" font-family="Times,serif" font-size="14.00"> &#160;&#160;&#160;configmaps/client&#45;ca &#45;nopenshift&#45;kube&#45;controller&#45;manager</text>
<text text-anchor="middle" x="9262.13" y="-46.55" font-family="Times,serif" font-size="14.00"> &#160;&#160;&#160;configmaps/client&#45;ca &#45;nopenshift&#45;route&#45;controller&#45;manager</text>
</g>
<!-- 0&#45;&gt;23 -->
<g id="edge4" class="edge">
<title>0&#45;&gt;23</title>
<path fill="none" stroke="black" d="M2704.29,-279.19C3040.64,-266.93 3551.18,-249.75 3995.13,-240.71 5757.51,-204.81 6200.05,-281.21 7961.13,-204.71 8121.84,-197.73 8293.48,-186.82 8457.63,-174.71"/>
<polygon fill="black" stroke="black" points="8457.72,-178.13 8467.44,-173.91 8457.2,-171.15 8457.72,-178.13"/>
</g>
<!-- 1 -->
<g id="node2" class="node">
<title>1</title>
<ellipse fill="#c7bfff" stroke="black" cx="4364.13" cy="-294.27" rx="359.74" ry="41.37"/>
<text text-anchor="middle" x="4364.13" y="-306.22" font-family="Times,serif" font-size="14.00">certkeypair/kube&#45;control&#45;plane&#45;signer::227887426676886745</text>
<text text-anchor="middle" x="4364.13" y="-272.97" font-family="Times,serif" font-size="14.00">secret/kube&#45;control&#45;plane&#45;signer &#45;nopenshift&#45;kube&#45;apiserver&#45;operator</text>
</g>
<!-- 2 -->
<g id="node3" class="node">
<title>2</title>
<ellipse fill="#c8fbcd" stroke="black" cx="4364.13" cy="-102.35" rx="387.85" ry="41.37"/>
<text text-anchor="middle" x="4364.13" y="-114.3" font-family="Times,serif" font-size="14.00">certkeypair/system:control&#45;plane&#45;node&#45;admin::1059210817525278201</text>
<text text-anchor="middle" x="4364.13" y="-81.05" font-family="Times,serif" font-size="14.00">secret/control&#45;plane&#45;node&#45;admin&#45;client&#45;cert&#45;key &#45;nopenshift&#45;kube&#45;apiserver</text>
</g>
<!-- 1&#45;&gt;2 -->
<g id="edge5" class="edge">
<title>1&#45;&gt;2</title>
<path fill="none" stroke="black" d="M4364.13,-252.53C4364.13,-223.99 4364.13,-185.63 4364.13,-154.95"/>
<polygon fill="black" stroke="black" points="4367.63,-155.03 4364.13,-145.03 4360.63,-155.03 4367.63,-155.03"/>
</g>
<!-- 3 -->
<g id="node4" class="node">
<title>3</title>
<ellipse fill="#c8fbcd" stroke="black" cx="5298.13" cy="-102.35" rx="527.86" ry="41.37"/>
<text text-anchor="middle" x="5298.13" y="-114.3" font-family="Times,serif" font-size="14.00">certkeypair/system:serviceaccount:openshift&#45;kube&#45;apiserver:check&#45;endpoints::2576004262911247332</text>
<text text-anchor="middle" x="5298.13" y="-81.05" font-family="Times,serif" font-size="14.00">secret/check&#45;endpoints&#45;client&#45;cert&#45;key &#45;nopenshift&#45;kube&#45;apiserver</text>
</g>
<!-- 1&#45;&gt;3 -->
<g id="edge6" class="edge">
<title>1&#45;&gt;3</title>
<path fill="none" stroke="black" d="M4538.99,-257.72C4698.57,-225.27 4934.21,-177.35 5100.54,-143.53"/>
<polygon fill="black" stroke="black" points="5100.8,-146.85 5109.9,-141.43 5099.4,-139.99 5100.8,-146.85"/>
</g>
<!-- 4 -->
<g id="node5" class="node">
<title>4</title>
<ellipse fill="#c8fbcd" stroke="black" cx="1879.13" cy="-102.35" rx="350.72" ry="53.56"/>
<text text-anchor="middle" x="1879.13" y="-122.93" font-family="Times,serif" font-size="14.00">certkeypair/system:kube&#45;scheduler::6257318142771253203</text>
<text text-anchor="middle" x="1879.13" y="-89.68" font-family="Times,serif" font-size="14.00">secret/kube&#45;scheduler&#45;client&#45;cert&#45;key &#45;nopenshift&#45;config&#45;managed</text>
<text text-anchor="middle" x="1879.13" y="-72.43" font-family="Times,serif" font-size="14.00"> &#160;&#160;&#160;secret/kube&#45;scheduler&#45;client&#45;cert&#45;key &#45;nopenshift&#45;kube&#45;scheduler</text>
</g>
<!-- 1&#45;&gt;4 -->
<g id="edge7" class="edge">
<title>1&#45;&gt;4</title>
<path fill="none" stroke="black" d="M4016.9,-283.22C3459.26,-266.42 2409.15,-231.8 2239.13,-204.71 2170.04,-193.7 2095.33,-174 2031.98,-154.88"/>
<polygon fill="black" stroke="black" points="2033.09,-151.25 2022.51,-151.69 2031.05,-157.95 2033.09,-151.25"/>
</g>
<!-- 5 -->
<g id="node6" class="node">
<title>5</title>
<ellipse fill="#c8fbcd" stroke="black" cx="2694.13" cy="-102.35" rx="446.18" ry="53.56"/>
<text text-anchor="middle" x="2694.13" y="-122.93" font-family="Times,serif" font-size="14.00">certkeypair/system:kube&#45;controller&#45;manager::3036637072996509399</text>
<text text-anchor="middle" x="2694.13" y="-89.68" font-family="Times,serif" font-size="14.00">secret/kube&#45;controller&#45;manager&#45;client&#45;cert&#45;key &#45;nopenshift&#45;config&#45;managed</text>
<text text-anchor="middle" x="2694.13" y="-72.43" font-family="Times,serif" font-size="14.00"> &#160;&#160;&#160;secret/kube&#45;controller&#45;manager&#45;client&#45;cert&#45;key &#45;nopenshift&#45;kube&#45;controller&#45;manager</text>
</g>
<!-- 1&#45;&gt;5 -->
<g id="edge8" class="edge">
<title>1&#45;&gt;5</title>
<path fill="none" stroke="black" d="M4020.95,-281.66C3776.79,-270.14 3441.56,-247.7 3149.13,-204.71 3063.98,-192.19 2971.05,-172.58 2891.5,-153.93"/>
<polygon fill="black" stroke="black" points="2892.41,-150.31 2881.87,-151.43 2890.8,-157.13 2892.41,-150.31"/>
</g>
<!-- 1&#45;&gt;17 -->
<g id="edge9" class="edge">
<title>1&#45;&gt;17</title>
<path fill="none" stroke="black" d="M4702.45,-279.97C5000.96,-266.55 5447.59,-242.37 5835.13,-204.71 5999.29,-188.75 6182.71,-164.25 6327.54,-143.33"/>
<polygon fill="black" stroke="black" points="6327.94,-146.66 6337.33,-141.77 6326.94,-139.74 6327.94,-146.66"/>
</g>
<!-- 18 -->
<g id="node19" class="node">
<title>18</title>
<ellipse fill="#fda172" stroke="black" cx="3558.13" cy="-102.35" rx="400.05" ry="41.37"/>
<text text-anchor="middle" x="3558.13" y="-114.3" font-family="Times,serif" font-size="14.00">cabundle/kube&#45;control&#45;plane&#45;signer</text>
<text text-anchor="middle" x="3558.13" y="-81.05" font-family="Times,serif" font-size="14.00">configmaps/kube&#45;control&#45;plane&#45;signer&#45;ca &#45;nopenshift&#45;kube&#45;apiserver&#45;operator</text>
</g>
<!-- 1&#45;&gt;18 -->
<g id="edge10" class="edge">
<title>1&#45;&gt;18</title>
<path fill="none" stroke="black" d="M4198.3,-257.19C4127.06,-241.45 4042.92,-222.55 3967.13,-204.71 3884.67,-185.3 3793.12,-162.71 3717.58,-143.79"/>
<polygon fill="black" stroke="black" points="3718.58,-140.18 3708.03,-141.14 3716.88,-146.97 3718.58,-140.18"/>
</g>
<!-- 1&#45;&gt;23 -->
<g id="edge11" class="edge">
<title>1&#45;&gt;23</title>
<path fill="none" stroke="black" d="M4704.76,-280.66C5029.43,-268.98 5532.06,-251.79 5968.13,-240.71 6853.77,-218.2 7076.23,-247.13 7961.13,-204.71 8119.04,-197.14 8287.53,-186.16 8449.09,-174.2"/>
<polygon fill="black" stroke="black" points="8449.01,-177.65 8458.72,-173.41 8448.49,-170.66 8449.01,-177.65"/>
</g>
<!-- 6 -->
<g id="node7" class="node">
<title>6</title>
<ellipse fill="#c7bfff" stroke="black" cx="9094.13" cy="-425.2" rx="365.57" ry="41.37"/>
<text text-anchor="middle" x="9094.13" y="-437.15" font-family="Times,serif" font-size="14.00">certkeypair/kubelet&#45;signer::2112051707629287438</text>
<text text-anchor="middle" x="9094.13" y="-403.9" font-family="Times,serif" font-size="14.00">secret/csr&#45;signer&#45;signer &#45;nopenshift&#45;kube&#45;controller&#45;manager&#45;operator</text>
</g>
<!-- 7 -->
<g id="node8" class="node">
<title>7</title>
<ellipse fill="#c8fbcd" stroke="black" cx="6667.13" cy="-294.27" rx="690.14" ry="41.37"/>
<text text-anchor="middle" x="6667.13" y="-306.22" font-family="Times,serif" font-size="14.00">certkeypair/system:serviceaccount:openshift&#45;oauth&#45;apiserver:openshift&#45;authenticator::39470527241106009848019183161878199127</text>
<text text-anchor="middle" x="6667.13" y="-272.97" font-family="Times,serif" font-size="14.00">secret/openshift&#45;authenticator&#45;certs &#45;nopenshift&#45;oauth&#45;apiserver</text>
</g>
<!-- 6&#45;&gt;7 -->
<g id="edge12" class="edge">
<title>6&#45;&gt;7</title>
<path fill="none" stroke="black" d="M8747.06,-411.99C8398.21,-398.98 7845.16,-376.34 7367.13,-347.83 7276.15,-342.41 7178.58,-335.67 7086.04,-328.84"/>
<polygon fill="black" stroke="black" points="7086.31,-325.28 7076.08,-328.03 7085.79,-332.26 7086.31,-325.28"/>
</g>
<!-- 8 -->
<g id="node9" class="node">
<title>8</title>
<ellipse fill="#c8fbcd" stroke="black" cx="8453.13" cy="-294.27" rx="628.62" ry="41.37"/>
<text text-anchor="middle" x="8453.13" y="-306.22" font-family="Times,serif" font-size="14.00">certkeypair/system:serviceaccount:openshift&#45;monitoring:prometheus&#45;k8s::74288101070105103377383352571615521356</text>
<text text-anchor="middle" x="8453.13" y="-272.97" font-family="Times,serif" font-size="14.00">secret/metrics&#45;client&#45;certs &#45;nopenshift&#45;monitoring</text>
</g>
<!-- 6&#45;&gt;8 -->
<g id="edge13" class="edge">
<title>6&#45;&gt;8</title>
<path fill="none" stroke="black" d="M8917.28,-388.63C8836.52,-372.38 8740.42,-353.06 8656.67,-336.21"/>
<polygon fill="black" stroke="black" points="8657.49,-332.6 8646.99,-334.06 8656.11,-339.47 8657.49,-332.6"/>
</g>
<!-- 9 -->
<g id="node10" class="node">
<title>9</title>
<ellipse fill="#c8fbcd" stroke="black" cx="9735.13" cy="-294.27" rx="634.98" ry="41.37"/>
<text text-anchor="middle" x="9735.13" y="-306.22" font-family="Times,serif" font-size="14.00">certkeypair/system:serviceaccount:openshift&#45;monitoring:prometheus&#45;k8s::144420821587744385522574508721281371890</text>
<text text-anchor="middle" x="9735.13" y="-272.97" font-family="Times,serif" font-size="14.00">secret/federate&#45;client&#45;certs &#45;nopenshift&#45;monitoring</text>
</g>
<!-- 6&#45;&gt;9 -->
<g id="edge14" class="edge">
<title>6&#45;&gt;9</title>
<path fill="none" stroke="black" d="M9270.99,-388.63C9351.65,-372.4 9447.63,-353.1 9531.32,-336.27"/>
<polygon fill="black" stroke="black" points="9531.87,-339.52 9540.99,-334.12 9530.49,-332.66 9531.87,-339.52"/>
</g>
<!-- 10 -->
<g id="node11" class="node">
<title>10</title>
<ellipse fill="#c7bfff" stroke="black" cx="11272.13" cy="-294.27" rx="356.03" ry="53.56"/>
<text text-anchor="middle" x="11272.13" y="-314.85" font-family="Times,serif" font-size="14.00">certkeypair/kube&#45;csr&#45;signer_@1704273808::9167585266960646865</text>
<text text-anchor="middle" x="11272.13" y="-281.6" font-family="Times,serif" font-size="14.00">secret/csr&#45;signer &#45;nopenshift&#45;kube&#45;controller&#45;manager&#45;operator</text>
<text text-anchor="middle" x="11272.13" y="-264.35" font-family="Times,serif" font-size="14.00"> &#160;&#160;&#160;secret/csr&#45;signer &#45;nopenshift&#45;kube&#45;controller&#45;manager</text>
</g>
<!-- 6&#45;&gt;10 -->
<g id="edge15" class="edge">
<title>6&#45;&gt;10</title>
<path fill="none" stroke="black" d="M9456.9,-419.68C9823.41,-412.58 10405.62,-394.39 10907.13,-347.83 10943.26,-344.48 10981.28,-340.04 11018.58,-335.15"/>
<polygon fill="black" stroke="black" points="11018.63,-338.54 11028.08,-333.76 11017.71,-331.6 11018.63,-338.54"/>
</g>
<!-- 6&#45;&gt;17 -->
<g id="edge16" class="edge">
<title>6&#45;&gt;17</title>
<path fill="none" stroke="black" d="M8729.48,-421.9C7915.09,-415.88 6015.76,-396.64 5968.13,-347.83 5859.47,-236.48 6035.66,-174.68 6227.77,-141.09"/>
<polygon fill="black" stroke="black" points="6228.12,-144.4 6237.38,-139.26 6226.93,-137.51 6228.12,-144.4"/>
</g>
<!-- 19 -->
<g id="node20" class="node">
<title>19</title>
<ellipse fill="#fda172" stroke="black" cx="12032.13" cy="-102.35" rx="401.11" ry="102.35"/>
<text text-anchor="middle" x="12032.13" y="-157.43" font-family="Times,serif" font-size="14.00">cabundle/kube&#45;csr&#45;signer_@1704273808|kubelet&#45;signer</text>
<text text-anchor="middle" x="12032.13" y="-124.18" font-family="Times,serif" font-size="14.00">configmaps/csr&#45;controller&#45;ca &#45;nopenshift&#45;config&#45;managed</text>
<text text-anchor="middle" x="12032.13" y="-106.93" font-family="Times,serif" font-size="14.00"> &#160;&#160;&#160;configmaps/kubelet&#45;serving&#45;ca &#45;nopenshift&#45;config&#45;managed</text>
<text text-anchor="middle" x="12032.13" y="-89.68" font-family="Times,serif" font-size="14.00"> &#160;&#160;&#160;configmaps/kubelet&#45;serving&#45;ca &#45;nopenshift&#45;kube&#45;apiserver</text>
<text text-anchor="middle" x="12032.13" y="-72.43" font-family="Times,serif" font-size="14.00"> &#160;&#160;&#160;configmaps/csr&#45;controller&#45;ca &#45;nopenshift&#45;kube&#45;controller&#45;manager&#45;operator</text>
<text text-anchor="middle" x="12032.13" y="-55.18" font-family="Times,serif" font-size="14.00"> &#160;&#160;&#160;configmaps/csr&#45;signer&#45;ca &#45;nopenshift&#45;kube&#45;controller&#45;manager&#45;operator</text>
<text text-anchor="middle" x="12032.13" y="-37.93" font-family="Times,serif" font-size="14.00"> &#160;&#160;&#160;configmaps/kubelet&#45;serving&#45;ca&#45;bundle &#45;nopenshift&#45;monitoring</text>
</g>
<!-- 6&#45;&gt;19 -->
<g id="edge17" class="edge">
<title>6&#45;&gt;19</title>
<path fill="none" stroke="black" d="M9459.39,-422.67C10327.97,-418.15 12448.54,-401.62 12501.13,-347.83 12534.42,-313.79 12529.68,-278.81 12501.13,-240.71 12480.24,-212.81 12424.45,-188.68 12358.32,-168.76"/>
<polygon fill="black" stroke="black" points="12359.63,-165.2 12349.05,-165.72 12357.65,-171.92 12359.63,-165.2"/>
</g>
<!-- 20 -->
<g id="node21" class="node">
<title>20</title>
<ellipse fill="#fda172" stroke="black" cx="12069.13" cy="-294.27" rx="423.38" ry="41.37"/>
<text text-anchor="middle" x="12069.13" y="-306.22" font-family="Times,serif" font-size="14.00">cabundle/kubelet&#45;signer</text>
<text text-anchor="middle" x="12069.13" y="-272.97" font-family="Times,serif" font-size="14.00">configmaps/csr&#45;controller&#45;signer&#45;ca &#45;nopenshift&#45;kube&#45;controller&#45;manager&#45;operator</text>
</g>
<!-- 6&#45;&gt;20 -->
<g id="edge18" class="edge">
<title>6&#45;&gt;20</title>
<path fill="none" stroke="black" d="M9459.74,-423.66C9954.25,-420.55 10863.49,-406.39 11637.13,-347.83 11695.41,-343.42 11757.91,-336.88 11816.77,-329.89"/>
<polygon fill="black" stroke="black" points="11816.81,-333.29 11826.33,-328.63 11815.98,-326.34 11816.81,-333.29"/>
</g>
<!-- 6&#45;&gt;23 -->
<g id="edge19" class="edge">
<title>6&#45;&gt;23</title>
<path fill="none" stroke="black" d="M8739.45,-414.87C8371.99,-403.43 7846.69,-381.33 7815.13,-347.83 7782.48,-313.18 7783.1,-275.93 7815.13,-240.71 7836.6,-217.1 8067,-190.71 8337.88,-167.42"/>
<polygon fill="black" stroke="black" points="8338.09,-170.83 8347.75,-166.48 8337.49,-163.85 8338.09,-170.83"/>
</g>
<!-- 10&#45;&gt;19 -->
<g id="edge20" class="edge">
<title>10&#45;&gt;19</title>
<path fill="none" stroke="black" d="M11453.69,-247.9C11538.31,-226.75 11641.19,-201.05 11736.59,-177.21"/>
<polygon fill="black" stroke="black" points="11737.13,-180.43 11745.99,-174.61 11735.44,-173.64 11737.13,-180.43"/>
</g>
<!-- 10&#45;&gt;23 -->
<g id="edge21" class="edge">
<title>10&#45;&gt;23</title>
<path fill="none" stroke="black" d="M11024.02,-255.51C10984.95,-250.15 10944.98,-245.01 10907.13,-240.71 10666.62,-213.37 10405.75,-189.12 10164.13,-168.9"/>
<polygon fill="black" stroke="black" points="10164.62,-165.35 10154.37,-168 10164.04,-172.32 10164.62,-165.35"/>
</g>
<!-- 11 -->
<g id="node12" class="node">
<title>11</title>
<ellipse fill="white" stroke="black" cx="7572.13" cy="-294.27" rx="196.4" ry="40.48"/>
<text text-anchor="middle" x="7572.13" y="-305.6" font-family="Times,serif" font-size="14.00">certkeypair/admin&#45;kubeconfig&#45;signer</text>
</g>
<!-- 11&#45;&gt;17 -->
<g id="edge22" class="edge">
<title>11&#45;&gt;17</title>
<path fill="none" stroke="black" d="M7454.03,-261.52C7425.36,-254.26 7394.73,-246.87 7366.13,-240.71 7193.02,-203.37 6996.59,-168.72 6844.55,-143.56"/>
<polygon fill="black" stroke="black" points="6845.58,-140.02 6835.14,-141.84 6844.44,-146.92 6845.58,-140.02"/>
</g>
<!-- 21 -->
<g id="node22" class="node">
<title>21</title>
<ellipse fill="#fda172" stroke="black" cx="7652.13" cy="-102.35" rx="299.81" ry="41.37"/>
<text text-anchor="middle" x="7652.13" y="-114.3" font-family="Times,serif" font-size="14.00">cabundle/admin&#45;kubeconfig&#45;signer</text>
<text text-anchor="middle" x="7652.13" y="-81.05" font-family="Times,serif" font-size="14.00">configmaps/admin&#45;kubeconfig&#45;client&#45;ca &#45;nopenshift&#45;config</text>
</g>
<!-- 11&#45;&gt;21 -->
<g id="edge23" class="edge">
<title>11&#45;&gt;21</title>
<path fill="none" stroke="black" d="M7588.9,-253.46C7601.1,-224.5 7617.7,-185.08 7630.84,-153.91"/>
<polygon fill="black" stroke="black" points="7634.31,-155.67 7634.97,-145.1 7627.86,-152.95 7634.31,-155.67"/>
</g>
<!-- 11&#45;&gt;23 -->
<g id="edge24" class="edge">
<title>11&#45;&gt;23</title>
<path fill="none" stroke="black" d="M7687.27,-261.09C7717.9,-253.45 7751.1,-246 7782.13,-240.71 7960.24,-210.34 8151.62,-186.3 8335.71,-167.41"/>
<polygon fill="black" stroke="black" points="8335.83,-170.82 8345.42,-166.32 8335.12,-163.85 8335.83,-170.82"/>
</g>
<!-- 12 -->
<g id="node13" class="node">
<title>12</title>
<ellipse fill="white" stroke="black" cx="10643.13" cy="-294.27" rx="254.74" ry="40.48"/>
<text text-anchor="middle" x="10643.13" y="-305.6" font-family="Times,serif" font-size="14.00">certkeypair/kubelet&#45;bootstrap&#45;kubeconfig&#45;signer</text>
</g>
<!-- 12&#45;&gt;17 -->
<g id="edge25" class="edge">
<title>12&#45;&gt;17</title>
<path fill="none" stroke="black" d="M10502.06,-260.18C10462.51,-252.28 10419.34,-244.91 10379.13,-240.71 9708.08,-170.53 8016.06,-253.74 7343.13,-204.71 7171.71,-192.22 6979.75,-166.24 6832.41,-143.71"/>
<polygon fill="black" stroke="black" points="6833.3,-140.15 6822.88,-142.09 6832.23,-147.07 6833.3,-140.15"/>
</g>
<!-- 22 -->
<g id="node23" class="node">
<title>22</title>
<ellipse fill="#fda172" stroke="black" cx="10934.13" cy="-102.35" rx="361.86" ry="41.37"/>
<text text-anchor="middle" x="10934.13" y="-114.3" font-family="Times,serif" font-size="14.00">cabundle/kubelet&#45;bootstrap&#45;kubeconfig&#45;signer</text>
<text text-anchor="middle" x="10934.13" y="-81.05" font-family="Times,serif" font-size="14.00">configmaps/kubelet&#45;bootstrap&#45;kubeconfig &#45;nopenshift&#45;config&#45;managed</text>
</g>
<!-- 12&#45;&gt;22 -->
<g id="edge26" class="edge">
<title>12&#45;&gt;22</title>
<path fill="none" stroke="black" d="M10702.37,-254.61C10748.99,-224.18 10814.1,-181.69 10863.45,-149.49"/>
<polygon fill="black" stroke="black" points="10865.01,-151.99 10871.47,-143.6 10861.18,-146.13 10865.01,-151.99"/>
</g>
<!-- 12&#45;&gt;23 -->
<g id="edge27" class="edge">
<title>12&#45;&gt;23</title>
<path fill="none" stroke="black" d="M10492.36,-261.25C10455.42,-253.96 10415.93,-246.62 10379.13,-240.71 10242.81,-218.79 10096.63,-198.5 9956.42,-180.62"/>
<polygon fill="black" stroke="black" points="9957.27,-177.07 9946.91,-179.28 9956.39,-184.01 9957.27,-177.07"/>
</g>
<!-- 13 -->
<g id="node14" class="node">
<title>13</title>
<ellipse fill="#c7bfff" stroke="black" cx="13132.13" cy="-294.27" rx="583.54" ry="41.37"/>
<text text-anchor="middle" x="13132.13" y="-306.22" font-family="Times,serif" font-size="14.00">certkeypair/openshift&#45;kube&#45;apiserver&#45;operator_node&#45;system&#45;admin&#45;signer@1704273804::3782504597567108544</text>
<text text-anchor="middle" x="13132.13" y="-272.97" font-family="Times,serif" font-size="14.00">secret/node&#45;system&#45;admin&#45;signer &#45;nopenshift&#45;kube&#45;apiserver&#45;operator</text>
</g>
<!-- 14 -->
<g id="node15" class="node">
<title>14</title>
<ellipse fill="#c8fbcd" stroke="black" cx="13875.13" cy="-102.35" rx="360.27" ry="41.37"/>
<text text-anchor="middle" x="13875.13" y="-114.3" font-family="Times,serif" font-size="14.00">certkeypair/system:admin::8613085297608310858</text>
<text text-anchor="middle" x="13875.13" y="-81.05" font-family="Times,serif" font-size="14.00">secret/node&#45;system&#45;admin&#45;client &#45;nopenshift&#45;kube&#45;apiserver&#45;operator</text>
</g>
<!-- 13&#45;&gt;14 -->
<g id="edge28" class="edge">
<title>13&#45;&gt;14</title>
<path fill="none" stroke="black" d="M13302.34,-254.31C13366.35,-239.31 13439.71,-221.69 13506.13,-204.71 13580.67,-185.65 13663.28,-163.1 13731.41,-144.11"/>
<polygon fill="black" stroke="black" points="13732.09,-147.27 13740.78,-141.21 13730.21,-140.53 13732.09,-147.27"/>
</g>
<!-- 13&#45;&gt;23 -->
<g id="edge29" class="edge">
<title>13&#45;&gt;23</title>
<path fill="none" stroke="black" d="M12787.31,-260.5C12694.47,-252.78 12594.04,-245.44 12501.13,-240.71 11640.76,-196.93 11423.62,-246.18 10563.13,-204.71 10405.36,-197.1 10237.04,-186.12 10075.6,-174.17"/>
<polygon fill="black" stroke="black" points="10076.21,-170.63 10065.98,-173.38 10075.69,-177.61 10076.21,-170.63"/>
</g>
<!-- 24 -->
<g id="node25" class="node">
<title>24</title>
<ellipse fill="#fda172" stroke="black" cx="13053.13" cy="-102.35" rx="444.06" ry="41.37"/>
<text text-anchor="middle" x="13053.13" y="-114.3" font-family="Times,serif" font-size="14.00">cabundle/openshift&#45;kube&#45;apiserver&#45;operator_node&#45;system&#45;admin&#45;signer@1704273804</text>
<text text-anchor="middle" x="13053.13" y="-81.05" font-family="Times,serif" font-size="14.00">configmaps/node&#45;system&#45;admin&#45;ca &#45;nopenshift&#45;kube&#45;apiserver&#45;operator</text>
</g>
<!-- 13&#45;&gt;24 -->
<g id="edge30" class="edge">
<title>13&#45;&gt;24</title>
<path fill="none" stroke="black" d="M13115.18,-252.53C13103.21,-223.74 13087.07,-184.95 13074.26,-154.14"/>
<polygon fill="black" stroke="black" points="13077.12,-152.92 13070.05,-145.03 13070.66,-155.61 13077.12,-152.92"/>
</g>
</g>
</svg>
