<?xml version="1.0" encoding="UTF-8" standalone="no"?>
<!DOCTYPE svg PUBLIC "-//W3C//DTD SVG 1.1//EN"
 "http://www.w3.org/Graphics/SVG/1.1/DTD/svg11.dtd">
<!-- Generated by graphviz version 8.1.0 (20230707.0739)
 -->
<!-- Title: OpenShift Certificates Pages: 1 -->
<svg width="1278pt" height="209pt"
 viewBox="0.00 0.00 1277.61 209.46" xmlns="http://www.w3.org/2000/svg" xmlns:xlink="http://www.w3.org/1999/xlink">
<g id="graph0" class="graph" transform="scale(1 1) rotate(0) translate(4 205.46)">
<title>OpenShift Certificates</title>
<polygon fill="white" stroke="none" points="-4,4 -4,-205.46 1273.61,-205.46 1273.61,4 -4,4"/>
<!-- 0 -->
<g id="node1" class="node">
<title>0</title>
<ellipse fill="#fffdb8" stroke="black" cx="312.54" cy="-41.37" rx="312.54" ry="41.37"/>
<text text-anchor="middle" x="312.54" y="-53.32" font-family="Times,serif" font-size="14.00">certkeypair/ovn&#45;kubernetes&#45;signer::6109523786742506565</text>
<text text-anchor="middle" x="312.54" y="-20.07" font-family="Times,serif" font-size="14.00">secret/signer&#45;cert &#45;nopenshift&#45;ovn&#45;kubernetes</text>
</g>
<!-- 1 -->
<g id="node2" class="node">
<title>1</title>
<ellipse fill="#c7bfff" stroke="black" cx="634.54" cy="-160.1" rx="452.55" ry="41.37"/>
<text text-anchor="middle" x="634.54" y="-172.05" font-family="Times,serif" font-size="14.00">certkeypair/openshift&#45;ovn&#45;kubernetes_signer&#45;ca@1704273748::3983576275979405413</text>
<text text-anchor="middle" x="634.54" y="-138.8" font-family="Times,serif" font-size="14.00">secret/signer&#45;ca &#45;nopenshift&#45;ovn&#45;kubernetes</text>
</g>
<!-- 1&#45;&gt;0 -->
<g id="edge1" class="edge">
<title>1&#45;&gt;0</title>
<path fill="none" stroke="black" d="M525.53,-119.58C494.33,-108.27 460.21,-95.9 428.61,-84.44"/>
<polygon fill="black" stroke="black" points="430.04,-80.88 419.44,-80.76 427.65,-87.46 430.04,-80.88"/>
</g>
<!-- 2 -->
<g id="node3" class="node">
<title>2</title>
<ellipse fill="#fda172" stroke="black" cx="956.54" cy="-41.37" rx="313.07" ry="41.37"/>
<text text-anchor="middle" x="956.54" y="-53.32" font-family="Times,serif" font-size="14.00">cabundle/openshift&#45;ovn&#45;kubernetes_signer&#45;ca@1704273748</text>
<text text-anchor="middle" x="956.54" y="-20.07" font-family="Times,serif" font-size="14.00">configmaps/signer&#45;ca &#45;nopenshift&#45;ovn&#45;kubernetes</text>
</g>
<!-- 1&#45;&gt;2 -->
<g id="edge2" class="edge">
<title>1&#45;&gt;2</title>
<path fill="none" stroke="black" d="M743.56,-119.58C774.75,-108.27 808.87,-95.9 840.47,-84.44"/>
<polygon fill="black" stroke="black" points="841.43,-87.46 849.64,-80.76 839.05,-80.88 841.43,-87.46"/>
</g>
</g>
</svg>
