<?xml version="1.0" encoding="UTF-8" standalone="no"?>
<!DOCTYPE svg PUBLIC "-//W3C//DTD SVG 1.1//EN"
 "http://www.w3.org/Graphics/SVG/1.1/DTD/svg11.dtd">
<!-- Generated by graphviz version 8.1.0 (20230707.0739)
 -->
<!-- Title: OpenShift Certificates Pages: 1 -->
<svg width="3388pt" height="283pt"
 viewBox="0.00 0.00 3387.83 282.65" xmlns="http://www.w3.org/2000/svg" xmlns:xlink="http://www.w3.org/1999/xlink">
<g id="graph0" class="graph" transform="scale(1 1) rotate(0) translate(4 278.65)">
<title>OpenShift Certificates</title>
<polygon fill="white" stroke="none" points="-4,4 -4,-278.65 3383.83,-278.65 3383.83,4 -4,4"/>
<!-- 0 -->
<g id="node1" class="node">
<title>0</title>
<ellipse fill="#fffdb8" stroke="black" cx="352.85" cy="-77.96" rx="352.85" ry="41.37"/>
<text text-anchor="middle" x="352.85" y="-89.91" font-family="Times,serif" font-size="14.00">certkeypair/system:etcd&#45;metric:etcd&#45;client::3719957492711729721</text>
<text text-anchor="middle" x="352.85" y="-56.66" font-family="Times,serif" font-size="14.00">secret/etcd&#45;serving&#45;metrics&#45;&lt;master&#45;2&gt; &#45;nopenshift&#45;etcd</text>
</g>
<!-- 1 -->
<g id="node2" class="node">
<title>1</title>
<ellipse fill="#c7bfff" stroke="black" cx="1774.85" cy="-233.28" rx="292.39" ry="41.37"/>
<text text-anchor="middle" x="1774.85" y="-245.23" font-family="Times,serif" font-size="14.00">certkeypair/etcd&#45;metric&#45;signer::5943027354895113293</text>
<text text-anchor="middle" x="1774.85" y="-211.98" font-family="Times,serif" font-size="14.00">secret/etcd&#45;metric&#45;signer &#45;nopenshift&#45;config</text>
</g>
<!-- 1&#45;&gt;0 -->
<g id="edge1" class="edge">
<title>1&#45;&gt;0</title>
<path fill="none" stroke="black" d="M1491.96,-222.49C1277.79,-212.51 976.77,-193.01 714.85,-155.92 648.41,-146.51 575.93,-131.97 513.4,-118.05"/>
<polygon fill="black" stroke="black" points="514.57,-114.5 504.05,-115.73 513.04,-121.33 514.57,-114.5"/>
</g>
<!-- 2 -->
<g id="node3" class="node">
<title>2</title>
<ellipse fill="#fffdb8" stroke="black" cx="1063.85" cy="-77.96" rx="340.12" ry="41.37"/>
<text text-anchor="middle" x="1063.85" y="-89.91" font-family="Times,serif" font-size="14.00">certkeypair/system:etcd&#45;metric:etcd&#45;client::77625113340125371</text>
<text text-anchor="middle" x="1063.85" y="-56.66" font-family="Times,serif" font-size="14.00">secret/etcd&#45;serving&#45;metrics&#45;&lt;master&#45;1&gt; &#45;nopenshift&#45;etcd</text>
</g>
<!-- 1&#45;&gt;2 -->
<g id="edge2" class="edge">
<title>1&#45;&gt;2</title>
<path fill="none" stroke="black" d="M1613.05,-198.48C1550.48,-185.32 1478.3,-170.04 1412.85,-155.92 1355.04,-143.45 1291.89,-129.59 1235.4,-117.12"/>
<polygon fill="black" stroke="black" points="1236.45,-113.54 1225.93,-114.8 1234.94,-120.38 1236.45,-113.54"/>
</g>
<!-- 3 -->
<g id="node4" class="node">
<title>3</title>
<ellipse fill="#fffdb8" stroke="black" cx="1774.85" cy="-77.96" rx="352.85" ry="41.37"/>
<text text-anchor="middle" x="1774.85" y="-89.91" font-family="Times,serif" font-size="14.00">certkeypair/system:etcd&#45;metric:etcd&#45;client::5017176833193065517</text>
<text text-anchor="middle" x="1774.85" y="-56.66" font-family="Times,serif" font-size="14.00">secret/etcd&#45;serving&#45;metrics&#45;&lt;master&#45;0&gt; &#45;nopenshift&#45;etcd</text>
</g>
<!-- 1&#45;&gt;3 -->
<g id="edge3" class="edge">
<title>1&#45;&gt;3</title>
<path fill="none" stroke="black" d="M1774.85,-191.6C1774.85,-172.81 1774.85,-150.29 1774.85,-130.34"/>
<polygon fill="black" stroke="black" points="1778.35,-130.57 1774.85,-120.57 1771.35,-130.57 1778.35,-130.57"/>
</g>
<!-- 4 -->
<g id="node5" class="node">
<title>4</title>
<ellipse fill="#c8fbcd" stroke="black" cx="2424.85" cy="-77.96" rx="279.13" ry="53.56"/>
<text text-anchor="middle" x="2424.85" y="-98.53" font-family="Times,serif" font-size="14.00">certkeypair/etcd&#45;metric::4040660940659145820</text>
<text text-anchor="middle" x="2424.85" y="-65.28" font-family="Times,serif" font-size="14.00">secret/etcd&#45;metric&#45;client &#45;nopenshift&#45;config</text>
<text text-anchor="middle" x="2424.85" y="-48.03" font-family="Times,serif" font-size="14.00"> &#160;&#160;&#160;secret/etcd&#45;metric&#45;client &#45;nopenshift&#45;etcd&#45;operator</text>
</g>
<!-- 1&#45;&gt;4 -->
<g id="edge4" class="edge">
<title>1&#45;&gt;4</title>
<path fill="none" stroke="black" d="M1941.97,-198.96C2003.4,-186.21 2073.44,-171.07 2136.85,-155.92 2175.89,-146.59 2217.72,-135.85 2257.05,-125.41"/>
<polygon fill="black" stroke="black" points="2257.77,-128.57 2266.54,-122.62 2255.97,-121.81 2257.77,-128.57"/>
</g>
<!-- 5 -->
<g id="node6" class="node">
<title>5</title>
<ellipse fill="#fda172" stroke="black" cx="3050.85" cy="-77.96" rx="328.98" ry="77.96"/>
<text text-anchor="middle" x="3050.85" y="-115.78" font-family="Times,serif" font-size="14.00">cabundle/etcd&#45;metric&#45;signer</text>
<text text-anchor="middle" x="3050.85" y="-82.53" font-family="Times,serif" font-size="14.00">configmaps/etcd&#45;metric&#45;serving&#45;ca &#45;nopenshift&#45;config</text>
<text text-anchor="middle" x="3050.85" y="-65.28" font-family="Times,serif" font-size="14.00"> &#160;&#160;&#160;configmaps/etcd&#45;metric&#45;serving&#45;ca &#45;nopenshift&#45;etcd&#45;operator</text>
<text text-anchor="middle" x="3050.85" y="-48.03" font-family="Times,serif" font-size="14.00"> &#160;&#160;&#160;configmaps/etcd&#45;metrics&#45;proxy&#45;client&#45;ca &#45;nopenshift&#45;etcd</text>
<text text-anchor="middle" x="3050.85" y="-30.78" font-family="Times,serif" font-size="14.00"> &#160;&#160;&#160;configmaps/etcd&#45;metrics&#45;proxy&#45;serving&#45;ca &#45;nopenshift&#45;etcd</text>
</g>
<!-- 1&#45;&gt;5 -->
<g id="edge5" class="edge">
<title>1&#45;&gt;5</title>
<path fill="none" stroke="black" d="M2052.59,-220.08C2239.91,-209.3 2492.21,-189.84 2712.85,-155.92 2746,-150.82 2780.74,-144.29 2814.8,-137.2"/>
<polygon fill="black" stroke="black" points="2815.28,-140.47 2824.35,-134.99 2813.84,-133.62 2815.28,-140.47"/>
</g>
</g>
</svg>
