<?xml version="1.0" encoding="UTF-8" standalone="no"?>
<!DOCTYPE svg PUBLIC "-//W3C//DTD SVG 1.1//EN"
 "http://www.w3.org/Graphics/SVG/1.1/DTD/svg11.dtd">
<!-- Generated by graphviz version 8.1.0 (20230707.0739)
 -->
<!-- Title: OpenShift Certificates Pages: 1 -->
<svg width="5410pt" height="405pt"
 viewBox="0.00 0.00 5409.83 404.62" xmlns="http://www.w3.org/2000/svg" xmlns:xlink="http://www.w3.org/1999/xlink">
<g id="graph0" class="graph" transform="scale(1 1) rotate(0) translate(4 400.62)">
<title>OpenShift Certificates</title>
<polygon fill="white" stroke="none" points="-4,4 -4,-400.62 5405.83,-400.62 5405.83,4 -4,4"/>
<!-- 0 -->
<g id="node1" class="node">
<title>0</title>
<ellipse fill="#fffdb8" stroke="black" cx="342.77" cy="-138.95" rx="342.77" ry="41.37"/>
<text text-anchor="middle" x="342.77" y="-150.9" font-family="Times,serif" font-size="14.00">certkeypair/system:etcd&#45;peer:etcd&#45;client::2725202915269078509</text>
<text text-anchor="middle" x="342.77" y="-117.65" font-family="Times,serif" font-size="14.00">secret/etcd&#45;peer&#45;&lt;master&#45;0&gt; &#45;nopenshift&#45;etcd</text>
</g>
<!-- 1 -->
<g id="node2" class="node">
<title>1</title>
<ellipse fill="#c7bfff" stroke="black" cx="2767.77" cy="-355.26" rx="256.33" ry="41.37"/>
<text text-anchor="middle" x="2767.77" y="-367.21" font-family="Times,serif" font-size="14.00">certkeypair/etcd&#45;signer::7398120930410332159</text>
<text text-anchor="middle" x="2767.77" y="-333.96" font-family="Times,serif" font-size="14.00">secret/etcd&#45;signer &#45;nopenshift&#45;config</text>
</g>
<!-- 1&#45;&gt;0 -->
<g id="edge1" class="edge">
<title>1&#45;&gt;0</title>
<path fill="none" stroke="black" d="M2513.42,-349.67C1998.8,-339.69 868.14,-313.97 694.77,-277.89 601.48,-258.48 500.8,-216.72 431.11,-184.21"/>
<polygon fill="black" stroke="black" points="433.03,-180.77 422.49,-179.69 430.05,-187.11 433.03,-180.77"/>
</g>
<!-- 2 -->
<g id="node3" class="node">
<title>2</title>
<ellipse fill="#fffdb8" stroke="black" cx="1049.77" cy="-138.95" rx="345.95" ry="41.37"/>
<text text-anchor="middle" x="1049.77" y="-150.9" font-family="Times,serif" font-size="14.00">certkeypair/system:etcd&#45;server:etcd&#45;client::330111323943769430</text>
<text text-anchor="middle" x="1049.77" y="-117.65" font-family="Times,serif" font-size="14.00">secret/etcd&#45;serving&#45;&lt;master&#45;0&gt; &#45;nopenshift&#45;etcd</text>
</g>
<!-- 1&#45;&gt;2 -->
<g id="edge2" class="edge">
<title>1&#45;&gt;2</title>
<path fill="none" stroke="black" d="M2513.5,-349.53C2178.82,-341.66 1609.04,-322.14 1404.77,-277.89 1311.26,-257.64 1210.05,-216.21 1139.71,-184.02"/>
<polygon fill="black" stroke="black" points="1141.54,-180.55 1131,-179.54 1138.61,-186.9 1141.54,-180.55"/>
</g>
<!-- 3 -->
<g id="node4" class="node">
<title>3</title>
<ellipse fill="#fffdb8" stroke="black" cx="1756.77" cy="-138.95" rx="342.77" ry="41.37"/>
<text text-anchor="middle" x="1756.77" y="-150.9" font-family="Times,serif" font-size="14.00">certkeypair/system:etcd&#45;peer:etcd&#45;client::1409427642758997409</text>
<text text-anchor="middle" x="1756.77" y="-117.65" font-family="Times,serif" font-size="14.00">secret/etcd&#45;peer&#45;&lt;master&#45;2&gt; &#45;nopenshift&#45;etcd</text>
</g>
<!-- 1&#45;&gt;3 -->
<g id="edge3" class="edge">
<title>1&#45;&gt;3</title>
<path fill="none" stroke="black" d="M2526.02,-341.25C2400.21,-330.72 2244.69,-311.79 2108.77,-277.89 2017.99,-255.25 1919.17,-215.05 1849.41,-183.87"/>
<polygon fill="black" stroke="black" points="1851.32,-180.44 1840.76,-179.53 1848.45,-186.83 1851.32,-180.44"/>
</g>
<!-- 4 -->
<g id="node5" class="node">
<title>4</title>
<ellipse fill="#fffdb8" stroke="black" cx="2460.77" cy="-138.95" rx="342.77" ry="41.37"/>
<text text-anchor="middle" x="2460.77" y="-150.9" font-family="Times,serif" font-size="14.00">certkeypair/system:etcd&#45;peer:etcd&#45;client::1716658538684005070</text>
<text text-anchor="middle" x="2460.77" y="-117.65" font-family="Times,serif" font-size="14.00">secret/etcd&#45;peer&#45;&lt;master&#45;1&gt; &#45;nopenshift&#45;etcd</text>
</g>
<!-- 1&#45;&gt;4 -->
<g id="edge4" class="edge">
<title>1&#45;&gt;4</title>
<path fill="none" stroke="black" d="M2710.75,-314.45C2658.76,-278.16 2581.94,-224.53 2527.2,-186.32"/>
<polygon fill="black" stroke="black" points="2529.47,-182.94 2519.27,-180.09 2525.47,-188.68 2529.47,-182.94"/>
</g>
<!-- 5 -->
<g id="node6" class="node">
<title>5</title>
<ellipse fill="#c8fbcd" stroke="black" cx="3075.77" cy="-138.95" rx="254.2" ry="102.35"/>
<text text-anchor="middle" x="3075.77" y="-194.02" font-family="Times,serif" font-size="14.00">certkeypair/etcd::4690944913116105880</text>
<text text-anchor="middle" x="3075.77" y="-160.77" font-family="Times,serif" font-size="14.00">secret/etcd&#45;client &#45;nopenshift&#45;apiserver</text>
<text text-anchor="middle" x="3075.77" y="-143.52" font-family="Times,serif" font-size="14.00"> &#160;&#160;&#160;secret/etcd&#45;client &#45;nopenshift&#45;config</text>
<text text-anchor="middle" x="3075.77" y="-126.27" font-family="Times,serif" font-size="14.00"> &#160;&#160;&#160;secret/etcd&#45;client &#45;nopenshift&#45;etcd&#45;operator</text>
<text text-anchor="middle" x="3075.77" y="-109.02" font-family="Times,serif" font-size="14.00"> &#160;&#160;&#160;secret/etcd&#45;client &#45;nopenshift&#45;etcd</text>
<text text-anchor="middle" x="3075.77" y="-91.77" font-family="Times,serif" font-size="14.00"> &#160;&#160;&#160;secret/etcd&#45;client &#45;nopenshift&#45;kube&#45;apiserver</text>
<text text-anchor="middle" x="3075.77" y="-74.52" font-family="Times,serif" font-size="14.00"> &#160;&#160;&#160;secret/etcd&#45;client &#45;nopenshift&#45;oauth&#45;apiserver</text>
</g>
<!-- 1&#45;&gt;5 -->
<g id="edge5" class="edge">
<title>1&#45;&gt;5</title>
<path fill="none" stroke="black" d="M2824.98,-314.45C2857.56,-291.78 2899.85,-262.35 2940.4,-234.14"/>
<polygon fill="black" stroke="black" points="2942.08,-236.54 2948.29,-227.95 2938.08,-230.79 2942.08,-236.54"/>
</g>
<!-- 6 -->
<g id="node7" class="node">
<title>6</title>
<ellipse fill="#fffdb8" stroke="black" cx="3700.77" cy="-138.95" rx="352.32" ry="41.37"/>
<text text-anchor="middle" x="3700.77" y="-150.9" font-family="Times,serif" font-size="14.00">certkeypair/system:etcd&#45;server:etcd&#45;client::1741649852910445878</text>
<text text-anchor="middle" x="3700.77" y="-117.65" font-family="Times,serif" font-size="14.00">secret/etcd&#45;serving&#45;&lt;master&#45;2&gt; &#45;nopenshift&#45;etcd</text>
</g>
<!-- 1&#45;&gt;6 -->
<g id="edge6" class="edge">
<title>1&#45;&gt;6</title>
<path fill="none" stroke="black" d="M2995.5,-335.99C3101.01,-324.43 3227.41,-306.15 3338.77,-277.89 3431.23,-254.43 3532.35,-214.62 3604.16,-183.79"/>
<polygon fill="black" stroke="black" points="3605.3,-186.67 3613.09,-179.5 3602.52,-180.25 3605.3,-186.67"/>
</g>
<!-- 7 -->
<g id="node8" class="node">
<title>7</title>
<ellipse fill="#fffdb8" stroke="black" cx="4423.77" cy="-138.95" rx="352.32" ry="41.37"/>
<text text-anchor="middle" x="4423.77" y="-150.9" font-family="Times,serif" font-size="14.00">certkeypair/system:etcd&#45;server:etcd&#45;client::2705306945968581530</text>
<text text-anchor="middle" x="4423.77" y="-117.65" font-family="Times,serif" font-size="14.00">secret/etcd&#45;serving&#45;&lt;master&#45;1&gt; &#45;nopenshift&#45;etcd</text>
</g>
<!-- 1&#45;&gt;7 -->
<g id="edge7" class="edge">
<title>1&#45;&gt;7</title>
<path fill="none" stroke="black" d="M3021.06,-348.45C3340.2,-339.55 3870.14,-319.04 4061.77,-277.89 4156.76,-257.5 4259.81,-216.19 4331.58,-184.08"/>
<polygon fill="black" stroke="black" points="4332.82,-186.91 4340.5,-179.61 4329.94,-180.52 4332.82,-186.91"/>
</g>
<!-- 8 -->
<g id="node9" class="node">
<title>8</title>
<ellipse fill="#fda172" stroke="black" cx="5097.77" cy="-138.95" rx="304.06" ry="138.95"/>
<text text-anchor="middle" x="5097.77" y="-219.9" font-family="Times,serif" font-size="14.00">cabundle/etcd&#45;signer</text>
<text text-anchor="middle" x="5097.77" y="-186.65" font-family="Times,serif" font-size="14.00">configmaps/etcd&#45;serving&#45;ca &#45;nopenshift&#45;apiserver</text>
<text text-anchor="middle" x="5097.77" y="-169.4" font-family="Times,serif" font-size="14.00"> &#160;&#160;&#160;configmaps/etcd&#45;ca&#45;bundle &#45;nopenshift&#45;config</text>
<text text-anchor="middle" x="5097.77" y="-152.15" font-family="Times,serif" font-size="14.00"> &#160;&#160;&#160;configmaps/etcd&#45;serving&#45;ca &#45;nopenshift&#45;config</text>
<text text-anchor="middle" x="5097.77" y="-134.9" font-family="Times,serif" font-size="14.00"> &#160;&#160;&#160;configmaps/etcd&#45;ca&#45;bundle &#45;nopenshift&#45;etcd&#45;operator</text>
<text text-anchor="middle" x="5097.77" y="-117.65" font-family="Times,serif" font-size="14.00"> &#160;&#160;&#160;configmaps/etcd&#45;ca&#45;bundle &#45;nopenshift&#45;etcd</text>
<text text-anchor="middle" x="5097.77" y="-100.4" font-family="Times,serif" font-size="14.00"> &#160;&#160;&#160;configmaps/etcd&#45;peer&#45;client&#45;ca &#45;nopenshift&#45;etcd</text>
<text text-anchor="middle" x="5097.77" y="-83.15" font-family="Times,serif" font-size="14.00"> &#160;&#160;&#160;configmaps/etcd&#45;serving&#45;ca &#45;nopenshift&#45;etcd</text>
<text text-anchor="middle" x="5097.77" y="-65.9" font-family="Times,serif" font-size="14.00"> &#160;&#160;&#160;configmaps/etcd&#45;serving&#45;ca &#45;nopenshift&#45;kube&#45;apiserver</text>
<text text-anchor="middle" x="5097.77" y="-48.65" font-family="Times,serif" font-size="14.00"> &#160;&#160;&#160;configmaps/etcd&#45;serving&#45;ca &#45;nopenshift&#45;oauth&#45;apiserver</text>
</g>
<!-- 1&#45;&gt;8 -->
<g id="edge8" class="edge">
<title>1&#45;&gt;8</title>
<path fill="none" stroke="black" d="M3022.1,-349.97C3526.1,-340.68 4617.61,-316.41 4784.77,-277.89 4817.81,-270.28 4851.68,-259.2 4884.37,-246.58"/>
<polygon fill="black" stroke="black" points="4885.44,-249.53 4893.47,-242.62 4882.88,-243.01 4885.44,-249.53"/>
</g>
</g>
</svg>
