<?xml version="1.0" encoding="UTF-8" standalone="no"?>
<!DOCTYPE svg PUBLIC "-//W3C//DTD SVG 1.1//EN"
 "http://www.w3.org/Graphics/SVG/1.1/DTD/svg11.dtd">
<!-- Generated by graphviz version 8.1.0 (20230707.0739)
 -->
<!-- Title: OpenShift Certificates Pages: 1 -->
<svg width="1082pt" height="209pt"
 viewBox="0.00 0.00 1081.50 209.46" xmlns="http://www.w3.org/2000/svg" xmlns:xlink="http://www.w3.org/1999/xlink">
<g id="graph0" class="graph" transform="scale(1 1) rotate(0) translate(4 205.46)">
<title>OpenShift Certificates</title>
<polygon fill="white" stroke="none" points="-4,4 -4,-205.46 1077.5,-205.46 1077.5,4 -4,4"/>
<!-- 0 -->
<g id="node1" class="node">
<title>0</title>
<ellipse fill="#c7bfff" stroke="black" cx="501.22" cy="-160.1" rx="438.76" ry="41.37"/>
<text text-anchor="middle" x="501.22" y="-172.05" font-family="Times,serif" font-size="14.00">certkeypair/openshift&#45;ovn&#45;kubernetes_ovn&#45;ca@1704273747::4223223887240789198</text>
<text text-anchor="middle" x="501.22" y="-138.8" font-family="Times,serif" font-size="14.00">secret/ovn&#45;ca &#45;nopenshift&#45;ovn&#45;kubernetes</text>
</g>
<!-- 1 -->
<g id="node2" class="node">
<title>1</title>
<ellipse fill="#fffdb8" stroke="black" cx="228.22" cy="-41.37" rx="228.22" ry="41.37"/>
<text text-anchor="middle" x="228.22" y="-53.32" font-family="Times,serif" font-size="14.00">certkeypair/ovn::6017550323937142920</text>
<text text-anchor="middle" x="228.22" y="-20.07" font-family="Times,serif" font-size="14.00">secret/ovn&#45;cert &#45;nopenshift&#45;ovn&#45;kubernetes</text>
</g>
<!-- 0&#45;&gt;1 -->
<g id="edge1" class="edge">
<title>0&#45;&gt;1</title>
<path fill="none" stroke="black" d="M408.03,-119.25C381.48,-107.9 352.49,-95.5 325.69,-84.04"/>
<polygon fill="black" stroke="black" points="327.5,-80.58 316.93,-79.87 324.74,-87.02 327.5,-80.58"/>
</g>
<!-- 2 -->
<g id="node3" class="node">
<title>2</title>
<ellipse fill="#fda172" stroke="black" cx="774.22" cy="-41.37" rx="299.28" ry="41.37"/>
<text text-anchor="middle" x="774.22" y="-53.32" font-family="Times,serif" font-size="14.00">cabundle/openshift&#45;ovn&#45;kubernetes_ovn&#45;ca@1704273747</text>
<text text-anchor="middle" x="774.22" y="-20.07" font-family="Times,serif" font-size="14.00">configmaps/ovn&#45;ca &#45;nopenshift&#45;ovn&#45;kubernetes</text>
</g>
<!-- 0&#45;&gt;2 -->
<g id="edge2" class="edge">
<title>0&#45;&gt;2</title>
<path fill="none" stroke="black" d="M594.41,-119.25C619.88,-108.36 647.6,-96.5 673.48,-85.44"/>
<polygon fill="black" stroke="black" points="674.48,-88.39 682.3,-81.24 671.73,-81.96 674.48,-88.39"/>
</g>
</g>
</svg>
