<?xml version="1.0" encoding="UTF-8" standalone="no"?>
<!DOCTYPE svg PUBLIC "-//W3C//DTD SVG 1.1//EN"
 "http://www.w3.org/Graphics/SVG/1.1/DTD/svg11.dtd">
<!-- Generated by graphviz version 8.1.0 (20230707.0739)
 -->
<!-- Title: OpenShift Certificates Pages: 1 -->
<svg width="1588pt" height="209pt"
 viewBox="0.00 0.00 1588.00 209.46" xmlns="http://www.w3.org/2000/svg" xmlns:xlink="http://www.w3.org/1999/xlink">
<g id="graph0" class="graph" transform="scale(1 1) rotate(0) translate(4 205.46)">
<title>OpenShift Certificates</title>
<polygon fill="white" stroke="none" points="-4,4 -4,-205.46 1584,-205.46 1584,4 -4,4"/>
<!-- 0 -->
<g id="node1" class="node">
<title>0</title>
<ellipse fill="#fffdb8" stroke="black" cx="354.97" cy="-41.37" rx="354.97" ry="41.37"/>
<text text-anchor="middle" x="354.97" y="-53.32" font-family="Times,serif" font-size="14.00">certkeypair/127.0.0.1::103972737128662425</text>
<text text-anchor="middle" x="354.97" y="-20.07" font-family="Times,serif" font-size="14.00">secret/network&#45;node&#45;identity&#45;cert &#45;nopenshift&#45;network&#45;node&#45;identity</text>
</g>
<!-- 1 -->
<g id="node2" class="node">
<title>1</title>
<ellipse fill="#c7bfff" stroke="black" cx="753.97" cy="-160.1" rx="565.51" ry="41.37"/>
<text text-anchor="middle" x="753.97" y="-172.05" font-family="Times,serif" font-size="14.00">certkeypair/openshift&#45;network&#45;node&#45;identity_network&#45;node&#45;identity&#45;ca@1704273764::1372784190514149555</text>
<text text-anchor="middle" x="753.97" y="-138.8" font-family="Times,serif" font-size="14.00">secret/network&#45;node&#45;identity&#45;ca &#45;nopenshift&#45;network&#45;node&#45;identity</text>
</g>
<!-- 1&#45;&gt;0 -->
<g id="edge1" class="edge">
<title>1&#45;&gt;0</title>
<path fill="none" stroke="black" d="M618.61,-119.5C578.79,-107.85 535.17,-95.08 495.06,-83.35"/>
<polygon fill="black" stroke="black" points="496.26,-79.76 485.67,-80.31 494.29,-86.48 496.26,-79.76"/>
</g>
<!-- 2 -->
<g id="node3" class="node">
<title>2</title>
<ellipse fill="#fda172" stroke="black" cx="1153.97" cy="-41.37" rx="426.03" ry="41.37"/>
<text text-anchor="middle" x="1153.97" y="-53.32" font-family="Times,serif" font-size="14.00">cabundle/openshift&#45;network&#45;node&#45;identity_network&#45;node&#45;identity&#45;ca@1704273764</text>
<text text-anchor="middle" x="1153.97" y="-20.07" font-family="Times,serif" font-size="14.00">configmaps/network&#45;node&#45;identity&#45;ca &#45;nopenshift&#45;network&#45;node&#45;identity</text>
</g>
<!-- 1&#45;&gt;2 -->
<g id="edge2" class="edge">
<title>1&#45;&gt;2</title>
<path fill="none" stroke="black" d="M889.67,-119.5C928.66,-108.12 971.31,-95.67 1010.75,-84.16"/>
<polygon fill="black" stroke="black" points="1011.62,-87.26 1020.24,-81.1 1009.66,-80.54 1011.62,-87.26"/>
</g>
</g>
</svg>
