<?xml version="1.0" encoding="utf-8"?>
<!-- Generator: Adobe Illustrator 16.0.4, SVG Export Plug-In . SVG Version: 6.00 Build 0)  -->
<svg version="1.2" baseProfile="tiny" id="Layer_1" xmlns="http://www.w3.org/2000/svg" xmlns:xlink="http://www.w3.org/1999/xlink"
	 x="0px" y="0px" width="132px" height="55px" viewBox="0 0 132 55" xml:space="preserve">
<g id="g3187">
	<g id="g6186" transform="matrix(1.6755 0 0 -1.6917 -334.84 486.75)">
		<path id="path6188" fill="#EF2E32" d="M212.57,274.063c0-1.447,0.386-2.591,1.159-3.432c0.793-0.852,1.837-1.279,3.136-1.279
			c1.308,0,2.352,0.421,3.135,1.263s1.174,1.967,1.174,3.374s-0.391,2.531-1.174,3.374c-0.793,0.852-1.838,1.277-3.135,1.277
			c-1.279,0-2.315-0.425-3.107-1.277C212.966,276.51,212.57,275.409,212.57,274.063 M209.152,274.123
			c0,2.09,0.747,3.869,2.244,5.335c1.496,1.466,3.318,2.199,5.468,2.199c2.159,0,3.991-0.738,5.497-2.214
			c1.486-1.477,2.229-3.289,2.229-5.439c0-2.169-0.748-3.987-2.244-5.454c-1.506-1.456-3.353-2.184-5.541-2.184
			c-2.171,0-3.988,0.743-5.454,2.229C209.884,270.061,209.152,271.904,209.152,274.123"/>
	</g>
	<path id="path6194" fill="#FFFFFF" d="M64.845,1.522c-0.779,0-1.441,0.293-2,0.867c-0.559,0.573-0.842,1.255-0.842,2.043
		c0,0.829,0.283,1.528,0.842,2.103c0.559,0.575,1.229,0.867,2.021,0.867c0.791,0,1.463-0.292,2.01-0.867
		c0.559-0.573,0.832-1.264,0.832-2.079c0-0.813-0.273-1.506-0.832-2.065C66.316,1.816,65.636,1.523,64.845,1.522L64.845,1.522
		L64.845,1.522z M62.119,10.206v25.173h5.475V10.206H62.119L62.119,10.206z"/>
	<path id="path6196" fill="#FFFFFF" d="M106.777,35.378H101.3V10.205h5.477V35.378L106.777,35.378z M101.187,4.429
		c0-0.788,0.279-1.47,0.836-2.045c0.559-0.573,1.229-0.861,2.006-0.861c0.793,0,1.467,0.288,2.025,0.861
		c0.559,0.562,0.838,1.25,0.838,2.064s-0.279,1.51-0.838,2.084c-0.545,0.575-1.213,0.862-2.004,0.862
		c-0.793,0-1.467-0.287-2.025-0.862C101.466,5.958,101.187,5.257,101.187,4.429"/>
	<g id="g6447" transform="matrix(.99955 0 0 1.023 -1053.6 -130.43)">
		<g id="text6218">
			<path id="path844" fill="#FFFFFF" d="M1060.431,131.207c0-0.584-0.078-1.104-0.236-1.556c-0.152-0.459-0.367-0.849-0.649-1.165
				c-0.276-0.323-0.61-0.566-1-0.73c-0.385-0.173-0.811-0.259-1.278-0.259c-0.473,0-0.907,0.086-1.297,0.259
				c-0.391,0.172-0.727,0.419-1.01,0.742c-0.281,0.316-0.5,0.704-0.658,1.164c-0.151,0.46-0.227,0.982-0.227,1.567
				c0,0.583,0.076,1.105,0.227,1.566c0.158,0.452,0.373,0.841,0.649,1.165c0.281,0.316,0.615,0.558,0.999,0.73
				c0.391,0.165,0.825,0.247,1.299,0.247c0.467,0,0.895-0.086,1.288-0.258c0.391-0.172,0.727-0.415,1.008-0.731
				c0.281-0.323,0.498-0.714,0.649-1.174C1060.353,132.312,1060.431,131.789,1060.431,131.207z M1058.948,131.228
				c0,0.734-0.154,1.296-0.463,1.689c-0.303,0.391-0.707,0.587-1.215,0.587c-0.508,0-0.92-0.199-1.237-0.598
				c-0.315-0.398-0.473-0.964-0.473-1.699s0.151-1.298,0.453-1.691c0.309-0.39,0.717-0.586,1.225-0.586
				c0.508,0,0.92,0.199,1.237,0.598C1058.789,129.926,1058.948,130.493,1058.948,131.228L1058.948,131.228z"/>
			<path id="path846" fill="#FFFFFF" d="M1067.723,129.897c0-0.384-0.064-0.717-0.195-0.999c-0.129-0.288-0.309-0.529-0.535-0.722
				c-0.227-0.193-0.49-0.332-0.793-0.422c-0.303-0.096-0.621-0.144-0.958-0.144h-3.152v7.21h1.442v-2.555h1.587
				c0.371,0,0.713-0.044,1.03-0.134c0.322-0.089,0.6-0.23,0.834-0.422c0.233-0.193,0.416-0.436,0.545-0.732
				C1067.659,130.678,1067.723,130.316,1067.723,129.897z M1066.24,129.93c0,0.625-0.344,0.937-1.03,0.937h-1.678v-1.855h1.657
				c0.322,0,0.576,0.075,0.764,0.226C1066.144,129.384,1066.24,129.614,1066.24,129.93L1066.24,129.93z"/>
			<path id="path848" fill="#FFFFFF" d="M1074.511,134.822v-1.411h-3.719v-1.74h2.071v-1.401h-2.071v-1.247h3.564v-1.411h-5.006
				v7.21H1074.511z"/>
			<path id="path850" fill="#FFFFFF" d="M1082.146,134.822v-7.21h-1.422v3.049c0,0.103,0,0.23,0,0.381
				c0.006,0.152,0.01,0.305,0.01,0.464c0,0.151,0,0.295,0,0.431c0.008,0.132,0.01,0.23,0.01,0.3
				c-0.047-0.096-0.123-0.221-0.227-0.371c-0.096-0.158-0.189-0.305-0.277-0.443l-2.556-3.811h-1.38v7.21h1.422v-3.172
				c0-0.103-0.004-0.23-0.012-0.381c0-0.152,0-0.304,0-0.453c0-0.158-0.004-0.303-0.01-0.431c0-0.137,0-0.242,0-0.309
				c0.047,0.096,0.121,0.223,0.215,0.381c0.104,0.151,0.199,0.295,0.289,0.432l2.648,3.935L1082.146,134.822L1082.146,134.822z"/>
		</g>
		<g id="text6222">
			<path id="path833" fill="#FFFFFF" d="M1088.707,132.927c0-0.268-0.035-0.505-0.104-0.711c-0.068-0.205-0.186-0.394-0.35-0.566
				c-0.158-0.172-0.371-0.329-0.637-0.474c-0.27-0.145-0.602-0.288-1-0.432c-0.363-0.13-0.659-0.25-0.885-0.36
				c-0.221-0.112-0.393-0.221-0.516-0.33c-0.123-0.117-0.205-0.233-0.246-0.35c-0.043-0.122-0.063-0.261-0.063-0.41
				c0-0.144,0.024-0.279,0.072-0.402c0.055-0.132,0.137-0.243,0.246-0.341c0.117-0.095,0.264-0.172,0.443-0.226
				c0.178-0.061,0.391-0.094,0.639-0.094c0.363,0,0.676,0.059,0.936,0.177c0.268,0.11,0.531,0.274,0.793,0.494l0.516-0.628
				c-0.303-0.241-0.625-0.43-0.969-0.567c-0.336-0.137-0.746-0.205-1.227-0.205c-0.336,0-0.645,0.041-0.926,0.123
				c-0.275,0.082-0.512,0.206-0.711,0.37c-0.192,0.158-0.344,0.35-0.453,0.578c-0.109,0.226-0.164,0.485-0.164,0.772
				c0,0.262,0.035,0.492,0.102,0.69c0.076,0.2,0.193,0.381,0.35,0.546c0.166,0.158,0.379,0.308,0.639,0.453
				c0.268,0.137,0.598,0.275,0.989,0.411c0.33,0.117,0.604,0.234,0.825,0.35c0.219,0.11,0.395,0.222,0.526,0.34
				c0.137,0.116,0.233,0.243,0.287,0.381c0.057,0.137,0.082,0.288,0.082,0.453c0,0.385-0.141,0.685-0.422,0.907
				c-0.274,0.22-0.653,0.328-1.131,0.328c-0.371,0-0.715-0.078-1.032-0.237c-0.315-0.158-0.61-0.367-0.885-0.629l-0.535,0.599
				c0.289,0.288,0.639,0.529,1.051,0.722c0.418,0.185,0.875,0.278,1.37,0.278c0.377,0,0.713-0.052,1.008-0.155
				c0.297-0.103,0.547-0.243,0.752-0.422c0.205-0.179,0.362-0.391,0.463-0.64C1088.65,133.473,1088.707,133.209,1088.707,132.927z"
				/>
			<path id="path835" fill="#FFFFFF" d="M1095.825,134.822v-7.21h-0.805v3.08h-3.586v-3.08h-0.802v7.21h0.802v-3.399h3.586v3.399
				H1095.825z"/>
			<path id="path837" fill="#FFFFFF" d="M1098.83,134.822v-7.21h-0.803v7.21H1098.83z"/>
			<path id="path839" fill="#FFFFFF" d="M1105.269,128.343v-0.731h-4.234v7.21h0.803v-3.357h1.979v-0.732h-1.979v-2.388
				L1105.269,128.343L1105.269,128.343z"/>
			<path id="path841" fill="#FFFFFF" d="M1111.543,128.343v-0.731h-5.049v0.731h2.122v6.479h0.805v-6.479H1111.543z"/>
		</g>
	</g>
	<path id="path6212" fill="#FFFFFF" d="M84.435,10.271c-3.602,0-6.658,1.229-9.166,3.709c-2.506,2.479-3.756,5.5-3.756,9.035
		c0,3.754,1.229,6.863,3.686,9.344c2.457,2.514,5.506,3.78,9.143,3.78c1.641,0,3.164-0.256,4.576-0.749l1.795,2.78
		c2.516,3.894,2.479,6.675-0.107,8.334c-0.855,0.55-4.592,2.089-4.637,1.997l2.4,5.136c4.973-0.896,14.586-6.548,8.668-16.049
		l-3.363-5.207c2.469-2.471,3.709-5.521,3.709-9.166c0-3.636-1.244-6.703-3.734-9.2C91.126,11.52,88.052,10.272,84.435,10.271
		L84.435,10.271z M84.435,15.372c2.174,0,3.928,0.722,5.254,2.163c1.312,1.425,1.961,3.327,1.961,5.706
		c0,2.38-0.648,4.282-1.961,5.706c-1.311,1.425-3.062,2.128-5.254,2.128c-2.174,0-3.926-0.709-5.254-2.151
		c-1.293-1.424-1.938-3.364-1.938-5.812c0-2.278,0.658-4.134,1.984-5.575c1.328-1.441,3.066-2.164,5.209-2.164H84.435z"/>
	<path id="path3058" fill="#FFFFFF" d="M121.642,9.895c-0.168,0.004-0.332,0.011-0.496,0.022c-0.326,0.025-0.643,0.068-0.955,0.131
		c-0.016,0.003-0.031,0.01-0.047,0.013c-0.139,0.028-0.277,0.059-0.412,0.096c-3.994,0.92-7.896,4.229-7.883,9.598l-0.012,15.624
		h5.584V22.696c0-4.61,1.498-6.936,4.49-6.978c2.992,0.042,4.488,2.366,4.488,6.978v12.683h5.6l-0.014-15.624
		c0.014-5.364-3.893-8.675-7.883-9.598c-0.156-0.036-0.303-0.078-0.459-0.107c-0.311-0.062-0.639-0.104-0.965-0.131
		c-0.008-0.001-0.018,0.001-0.023,0c-0.16-0.014-0.314-0.019-0.473-0.022c-0.012-0.001-0.023,0-0.035,0
		C121.978,9.892,121.808,9.892,121.642,9.895L121.642,9.895z"/>
	<g id="g3052" transform="matrix(1.7114 0 0 -1.6897 -271.86 477.92)">
		<path id="path3054" fill="#FFFFFF" d="M185.308,271.149c-0.011,4.383,4.435,6.453,7.329,5.682l-0.009-3.366
			c0,0.061-0.644,0.075-1.247,0.075c-1.824,0-2.734-1.377-2.734-4.131v-7.504h-3.344"/>
	</g>
</g>
</svg>
