<?xml version="1.0" encoding="UTF-8" standalone="no"?>
<svg width="194px" height="14px" viewBox="0 0 194 14" version="1.1" xmlns="http://www.w3.org/2000/svg" xmlns:xlink="http://www.w3.org/1999/xlink">
    <!-- Generator: Sketch 3.7.2 (28276) - http://www.bohemiancoding.com/sketch -->
    <title>logo-origin-thin</title>
    <desc>Created with Sketch.</desc>
    <defs></defs>
    <g id="Page-1" stroke="none" stroke-width="1" fill="none" fill-rule="evenodd">
        <path d="M12.6669922,6.91552734 C12.6669922,8.95752974 12.1661834,10.5097603 11.1645508,11.5722656 C10.1629182,12.6347709 8.69646148,13.1660156 6.76513672,13.1660156 C4.86148137,13.1660156 3.40194193,12.632004 2.38647461,11.5639648 C1.37100729,10.4959256 0.86328125,8.94092818 0.86328125,6.89892578 C0.86328125,4.87905891 1.36824039,3.33651249 2.37817383,2.27124023 C3.38810726,1.20596798 4.8559474,0.673339844 6.78173828,0.673339844 C8.71306304,0.673339844 10.1767528,1.20181763 11.1728516,2.25878906 C12.1689503,3.31576049 12.6669922,4.86799106 12.6669922,6.91552734 L12.6669922,6.91552734 Z M4.31640625,6.91552734 C4.31640625,9.26189324 5.13264158,10.4350586 6.76513672,10.4350586 C7.59521899,10.4350586 8.21085411,10.150068 8.61206055,9.58007812 C9.01326698,9.0100883 9.21386719,8.12191358 9.21386719,6.91552734 C9.21386719,5.70360722 9.01050008,4.80851526 8.60375977,4.23022461 C8.19701945,3.65193396 7.58968503,3.36279297 6.78173828,3.36279297 C5.13817538,3.36279297 4.31640625,4.54702592 4.31640625,6.91552734 L4.31640625,6.91552734 Z M27.6655273,4.72412109 C27.6655273,6.07992214 27.2657104,7.12719357 26.4660645,7.8659668 C25.6664185,8.60474002 24.5306063,8.97412109 23.0585938,8.97412109 L22.137207,8.97412109 L22.137207,13 L18.8583984,13 L18.8583984,0.864257812 L23.0585938,0.864257812 C24.591479,0.864257812 25.7425092,1.19905264 26.5117188,1.86865234 C27.2809283,2.53825205 27.6655273,3.49006544 27.6655273,4.72412109 L27.6655273,4.72412109 Z M22.137207,6.30126953 L22.7348633,6.30126953 C23.2273788,6.30126953 23.618895,6.16292456 23.9094238,5.88623047 C24.1999526,5.60953638 24.3452148,5.22770426 24.3452148,4.74072266 C24.3452148,3.92170814 23.8914433,3.51220703 22.9838867,3.51220703 L22.137207,3.51220703 L22.137207,6.30126953 Z M40.8046875,13 L33.5996094,13 L33.5996094,0.864257812 L40.8046875,0.864257812 L40.8046875,3.49560547 L36.878418,3.49560547 L36.878418,5.40478516 L40.5141602,5.40478516 L40.5141602,8.03613281 L36.878418,8.03613281 L36.878418,10.3271484 L40.8046875,10.3271484 L40.8046875,13 Z M58.484375,13 L54.1845703,13 L49.7519531,4.45019531 L49.6772461,4.45019531 C49.7823898,5.7949286 49.8349609,6.82144828 49.8349609,7.52978516 L49.8349609,13 L46.9296875,13 L46.9296875,0.864257812 L51.2128906,0.864257812 L55.6289062,9.29785156 L55.6787109,9.29785156 C55.6012366,8.07486368 55.5625,7.09261438 55.5625,6.35107422 L55.5625,0.864257812 L58.484375,0.864257812 L58.484375,13 Z M73.0429688,9.31445312 C73.0429688,10.0670611 72.8520527,10.7352673 72.4702148,11.3190918 C72.088377,11.9029163 71.537764,12.3566878 70.8183594,12.6804199 C70.0989547,13.004152 69.2550504,13.1660156 68.2866211,13.1660156 C67.4786743,13.1660156 66.800784,13.1092942 66.2529297,12.9958496 C65.7050754,12.882405 65.1350941,12.6845717 64.5429688,12.4023438 L64.5429688,9.48046875 C65.1682974,9.8014339 65.8185188,10.0518383 66.4936523,10.2316895 C67.1687859,10.4115406 67.7885714,10.5014648 68.3530273,10.5014648 C68.8400089,10.5014648 69.196939,10.4170744 69.4238281,10.248291 C69.6507173,10.0795076 69.7641602,9.86230602 69.7641602,9.59667969 C69.7641602,9.43066323 69.7185063,9.28540101 69.6271973,9.16088867 C69.5358882,9.03637633 69.3892425,8.91048241 69.1872559,8.78320312 C68.9852692,8.65592384 68.4471072,8.3958353 67.5727539,8.00292969 C66.7814088,7.64322737 66.1879089,7.29459804 65.7922363,6.95703125 C65.3965638,6.61946446 65.1032724,6.23209854 64.9123535,5.79492188 C64.7214346,5.35774521 64.6259766,4.84033502 64.6259766,4.24267578 C64.6259766,3.12483165 65.0327108,2.25325833 65.8461914,1.62792969 C66.659672,1.00260104 67.7774994,0.689941406 69.199707,0.689941406 C70.4558982,0.689941406 71.7369726,0.980465845 73.0429688,1.56152344 L72.0385742,4.09326172 C70.9041284,3.57307683 69.924646,3.31298828 69.1000977,3.31298828 C68.6739888,3.31298828 68.364096,3.38769457 68.1704102,3.53710938 C67.9767243,3.68652418 67.8798828,3.87190645 67.8798828,4.09326172 C67.8798828,4.33121864 68.0030098,4.54426989 68.2492676,4.73242188 C68.4955253,4.92057386 69.1637315,5.26366938 70.2539062,5.76171875 C71.2998099,6.23209871 72.026121,6.73705785 72.4328613,7.27661133 C72.8396016,7.81616481 73.0429688,8.49543861 73.0429688,9.31445312 L73.0429688,9.31445312 Z M89.3198242,13 L86.0244141,13 L86.0244141,8.05273438 L82.2143555,8.05273438 L82.2143555,13 L78.9189453,13 L78.9189453,0.864257812 L82.2143555,0.864257812 L82.2143555,5.36328125 L86.0244141,5.36328125 L86.0244141,0.864257812 L89.3198242,0.864257812 L89.3198242,13 Z M95.9428711,13 L95.9428711,0.864257812 L99.2382812,0.864257812 L99.2382812,13 L95.9428711,13 Z M109.090332,13 L105.861328,13 L105.861328,0.864257812 L113.033203,0.864257812 L113.033203,3.49560547 L109.090332,3.49560547 L109.090332,5.81152344 L112.726074,5.81152344 L112.726074,8.44287109 L109.090332,8.44287109 L109.090332,13 Z M124.379395,13 L121.100586,13 L121.100586,3.54541016 L118.137207,3.54541016 L118.137207,0.864257812 L127.334473,0.864257812 L127.334473,3.54541016 L124.379395,3.54541016 L124.379395,13 Z" id="OPENSHIFT" fill="#FFFFFF"></path>
        <path d="M147.202148,6.91552734 C147.202148,8.85791987 146.711024,10.3852483 145.72876,11.4975586 C144.746496,12.6098688 143.381031,13.1660156 141.632324,13.1660156 C139.84488,13.1660156 138.465581,12.619553 137.494385,11.5266113 C136.523189,10.4336697 136.037598,8.89112324 136.037598,6.89892578 C136.037598,4.92332997 136.524572,3.39185114 137.498535,2.30444336 C138.472498,1.21703558 139.855948,0.673339844 141.648926,0.673339844 C143.392099,0.673339844 144.753413,1.22671973 145.73291,2.33349609 C146.712407,3.44027246 147.202148,4.96760094 147.202148,6.91552734 L147.202148,6.91552734 Z M137.531738,6.91552734 C137.531738,8.55909025 137.881751,9.80557844 138.581787,10.6550293 C139.281823,11.5044802 140.298659,11.9291992 141.632324,11.9291992 C142.977058,11.9291992 143.99251,11.5058636 144.678711,10.6591797 C145.364912,9.81249577 145.708008,8.56462413 145.708008,6.91552734 C145.708008,5.2830322 145.366296,4.04484471 144.682861,3.20092773 C143.999427,2.35701075 142.988125,1.93505859 141.648926,1.93505859 C140.304192,1.93505859 139.281823,2.35977765 138.581787,3.20922852 C137.881751,4.05867938 137.531738,5.29409997 137.531738,6.91552734 L137.531738,6.91552734 Z M151.319336,7.953125 L151.319336,13 L149.908203,13 L149.908203,0.864257812 L153.236816,0.864257812 C154.725431,0.864257812 155.825273,1.14924845 156.536377,1.71923828 C157.247481,2.28922811 157.603027,3.14696693 157.603027,4.29248047 C157.603027,5.8973062 156.789559,6.98193077 155.162598,7.54638672 L158.458008,13 L156.789551,13 L153.851074,7.953125 L151.319336,7.953125 Z M151.319336,6.74121094 L153.253418,6.74121094 C154.249517,6.74121094 154.979978,6.54337763 155.444824,6.14770508 C155.90967,5.75203253 156.14209,5.1585326 156.14209,4.3671875 C156.14209,3.56477463 155.90552,2.98649266 155.432373,2.63232422 C154.959226,2.27815578 154.199712,2.10107422 153.153809,2.10107422 L151.319336,2.10107422 L151.319336,6.74121094 Z M160.416992,13 L160.416992,0.864257812 L161.828125,0.864257812 L161.828125,13 L160.416992,13 Z M170.494141,6.64160156 L174.619629,6.64160156 L174.619629,12.543457 C173.977699,12.7482107 173.32471,12.903157 172.660645,13.0083008 C171.996579,13.1134445 171.227381,13.1660156 170.353027,13.1660156 C168.515779,13.1660156 167.085292,12.619553 166.061523,11.5266113 C165.037755,10.4336697 164.525879,8.90219084 164.525879,6.93212891 C164.525879,5.67040385 164.77905,4.56502753 165.2854,3.6159668 C165.791751,2.66690606 166.520829,1.94197842 167.472656,1.44116211 C168.424484,0.940345803 169.539544,0.689941406 170.817871,0.689941406 C172.112799,0.689941406 173.319168,0.927894756 174.437012,1.40380859 L173.88916,2.64892578 C172.793452,2.18407971 171.739263,1.95166016 170.726562,1.95166016 C169.249016,1.95166016 168.095219,2.39159716 167.265137,3.27148438 C166.435054,4.15137159 166.02002,5.37157423 166.02002,6.93212891 C166.02002,8.57015793 166.419836,9.81249577 167.219482,10.6591797 C168.019128,11.5058636 169.193677,11.9291992 170.743164,11.9291992 C171.584314,11.9291992 172.406083,11.8323577 173.208496,11.6386719 L173.208496,7.90332031 L170.494141,7.90332031 L170.494141,6.64160156 Z M177.533203,13 L177.533203,0.864257812 L178.944336,0.864257812 L178.944336,13 L177.533203,13 Z M191.752441,13 L190.14209,13 L183.509766,2.81494141 L183.443359,2.81494141 C183.531901,4.01025988 183.576172,5.10595205 183.576172,6.10205078 L183.576172,13 L182.272949,13 L182.272949,0.864257812 L183.866699,0.864257812 L190.482422,11.0078125 L190.548828,11.0078125 C190.53776,10.8583977 190.512858,10.3783406 190.474121,9.56762695 C190.435384,8.75691326 190.421549,8.17724784 190.432617,7.82861328 L190.432617,0.864257812 L191.752441,0.864257812 L191.752441,13 Z" id="ORIGIN" fill="#FFFFFF"></path>
    </g>
</svg>