<?xml version="1.0" encoding="utf-8"?>
<!-- Generator: Adobe Illustrator 14.0.0, SVG Export Plug-In . SVG Version: 6.00 Build 43363)  -->
<!DOCTYPE svg PUBLIC "-//W3C//DTD SVG 1.1//EN" "http://www.w3.org/Graphics/SVG/1.1/DTD/svg11.dtd">
<svg version="1.1" id="Layer_1" xmlns="http://www.w3.org/2000/svg" xmlns:xlink="http://www.w3.org/1999/xlink" x="0px" y="0px"
	 width="160px" height="10.159px" viewBox="-8.194 -0.059 160 10.159" enable-background="new -8.194 -0.059 160 10.159"
	 xml:space="preserve">
<g>
	<path fill="#FFFFFF" d="M1.366,4.996c0,1.654-0.406,2.911-1.216,3.772c-0.812,0.861-2,1.291-3.564,1.291
		c-1.541,0-2.723-0.434-3.546-1.298c-0.823-0.864-1.234-2.125-1.234-3.779c0-1.635,0.409-2.885,1.227-3.747
		c0.817-0.862,2.007-1.293,3.566-1.293c1.564,0,2.75,0.428,3.557,1.284C0.963,2.08,1.366,3.338,1.366,4.996z M-5.397,4.996
		c0,1.901,0.662,2.851,1.982,2.851c0.673,0,1.171-0.23,1.496-0.691c0.325-0.462,0.488-1.183,0.488-2.16
		c0-0.982-0.164-1.708-0.494-2.175c-0.33-0.468-0.822-0.703-1.477-0.703C-4.731,2.118-5.397,3.078-5.397,4.996z"/>
	<path fill="#FFFFFF" d="M14.06,3.221c0,1.098-0.324,1.945-0.971,2.545c-0.648,0.598-1.568,0.897-2.759,0.897H9.583v3.261H6.928
		v-9.83h3.401c1.241,0,2.173,0.271,2.796,0.814C13.748,1.451,14.06,2.222,14.06,3.221z M9.583,4.498h0.485
		c0.398,0,0.716-0.111,0.952-0.336c0.235-0.225,0.353-0.534,0.353-0.928c0-0.664-0.368-0.995-1.103-0.995H9.584v2.259H9.583z"/>
	<path fill="#FFFFFF" d="M25.249,9.924h-5.835v-9.83h5.835v2.131h-3.18v1.546h2.945v2.132h-2.945v1.854h3.18V9.924z"/>
	<path fill="#FFFFFF" d="M40.116,9.924h-3.482l-3.59-6.926h-0.062c0.085,1.089,0.128,1.92,0.128,2.494v4.432h-2.353v-9.83h3.469
		l3.577,6.83h0.04c-0.062-0.99-0.094-1.786-0.094-2.387V0.094h2.366V9.924z"/>
	<path fill="#FFFFFF" d="M52.453,6.939c0,0.608-0.154,1.149-0.463,1.623c-0.31,0.474-0.755,0.84-1.338,1.102
		c-0.582,0.262-1.267,0.395-2.051,0.395c-0.654,0-1.203-0.046-1.646-0.138s-0.906-0.252-1.385-0.481V7.072
		c0.507,0.26,1.034,0.463,1.581,0.609c0.546,0.146,1.049,0.218,1.506,0.218c0.395,0,0.684-0.068,0.867-0.205
		s0.276-0.313,0.276-0.528c0-0.135-0.037-0.253-0.11-0.352c-0.074-0.102-0.192-0.204-0.356-0.307
		c-0.163-0.103-0.6-0.314-1.308-0.631c-0.641-0.292-1.121-0.574-1.442-0.848c-0.321-0.273-0.559-0.587-0.713-0.941
		c-0.155-0.354-0.232-0.773-0.232-1.257c0-0.906,0.33-1.61,0.989-2.118c0.659-0.506,1.564-0.76,2.715-0.76
		c1.018,0,2.056,0.235,3.113,0.706l-0.813,2.05c-0.919-0.421-1.712-0.633-2.38-0.633c-0.345,0-0.597,0.061-0.753,0.182
		c-0.157,0.121-0.235,0.272-0.235,0.451c0,0.192,0.1,0.365,0.299,0.517c0.2,0.153,0.741,0.43,1.624,0.834
		c0.847,0.381,1.436,0.79,1.765,1.226C52.288,5.725,52.453,6.276,52.453,6.939z"/>
	<path fill="#FFFFFF" d="M66.183,9.924h-2.668V5.917h-3.086v4.007h-2.668v-9.83h2.668v3.644h3.086V0.094h2.668V9.924z"/>
	<path fill="#FFFFFF" d="M72.094,9.924v-9.83h2.668v9.83H72.094z"/>
	<path fill="#FFFFFF" d="M83.29,9.924h-2.615v-9.83h5.809v2.131H83.29v1.876h2.944v2.131H83.29V9.924z"/>
	<path fill="#FFFFFF" d="M96.22,9.924h-2.655V2.267h-2.399V0.094h7.448v2.172H96.22V9.924z"/>
</g>
<g>
	<path fill="#FFFFFF" d="M114.667,5.171c0,1.53-0.388,2.735-1.161,3.612c-0.774,0.877-1.852,1.316-3.23,1.316
		c-1.41,0-2.497-0.431-3.263-1.292c-0.768-0.86-1.149-2.079-1.149-3.649c0-1.559,0.385-2.766,1.152-3.623s1.858-1.286,3.272-1.286
		c1.375,0,2.448,0.438,3.221,1.309C114.282,2.432,114.667,3.635,114.667,5.171z M107.041,5.171c0,1.295,0.277,2.279,0.829,2.949
		c0.552,0.669,1.354,1.003,2.405,1.003c1.06,0,1.86-0.334,2.401-1.001c0.54-0.667,0.812-1.651,0.812-2.951
		c0-1.287-0.269-2.263-0.809-2.929c-0.539-0.666-1.336-0.999-2.393-0.999c-1.061,0-1.866,0.334-2.419,1.004
		C107.316,2.917,107.041,3.892,107.041,5.171z"/>
	<path fill="#FFFFFF" d="M118.314,5.988v3.979h-1.112V0.398h2.626c1.172,0,2.042,0.225,2.603,0.674
		c0.561,0.452,0.84,1.127,0.84,2.029c0,1.266-0.641,2.121-1.926,2.565l2.599,4.301h-1.315l-2.317-3.979H118.314z M118.314,5.034
		h1.525c0.785,0,1.361-0.157,1.729-0.469c0.366-0.311,0.549-0.779,0.549-1.404c0-0.632-0.186-1.089-0.559-1.368
		c-0.373-0.279-0.973-0.419-1.797-0.419h-1.447V5.034L118.314,5.034z"/>
	<path fill="#FFFFFF" d="M125.892,9.968V0.398h1.113v9.569H125.892z"/>
	<path fill="#FFFFFF" d="M134.239,4.954h3.253v4.653c-0.506,0.162-1.021,0.284-1.545,0.367c-0.524,0.082-1.131,0.125-1.819,0.125
		c-1.45,0-2.578-0.431-3.384-1.293c-0.808-0.861-1.211-2.07-1.211-3.624c0-0.996,0.199-1.867,0.598-2.615
		c0.399-0.749,0.975-1.32,1.726-1.715s1.63-0.592,2.637-0.592c1.021,0,1.974,0.186,2.855,0.563l-0.434,0.981
		c-0.863-0.366-1.695-0.55-2.492-0.55c-1.165,0-2.074,0.348-2.729,1.042c-0.654,0.694-0.982,1.655-0.982,2.886
		c0,1.292,0.314,2.271,0.947,2.938c0.631,0.667,1.556,1.001,2.777,1.001c0.663,0,1.312-0.076,1.944-0.229V5.949h-2.141V4.954z"/>
	<path fill="#FFFFFF" d="M140.191,9.968V0.398h1.112v9.569H140.191z"/>
	<path fill="#FFFFFF" d="M151.806,9.968h-1.271l-5.23-8.032h-0.052c0.069,0.944,0.104,1.807,0.104,2.593v5.439h-1.027V0.398h1.256
		l5.217,7.998h0.054c-0.01-0.117-0.028-0.495-0.061-1.134c-0.03-0.641-0.041-1.098-0.031-1.374v-5.49h1.041V9.968z"/>
</g>
</svg>
