<?xml version="1.0" encoding="utf-8"?>
<!-- Generator: Adobe Illustrator 14.0.0, SVG Export Plug-In . SVG Version: 6.00 Build 43363)  -->
<!DOCTYPE svg PUBLIC "-//W3C//DTD SVG 1.1//EN" "http://www.w3.org/Graphics/SVG/1.1/DTD/svg11.dtd">
<svg version="1.1" id="Layer_1" xmlns="http://www.w3.org/2000/svg" xmlns:xlink="http://www.w3.org/1999/xlink" x="0px" y="0px"
	 width="193.485px" height="10.117px" viewBox="-8.194 -0.058 193.485 10.117"
	 enable-background="new -8.194 -0.058 193.485 10.117" xml:space="preserve">
<g>
	<path fill="#FFFFFF" d="M1.366,4.996c0,1.654-0.406,2.912-1.216,3.772c-0.812,0.86-2,1.291-3.564,1.291
		c-1.541,0-2.723-0.435-3.546-1.298c-0.823-0.864-1.234-2.125-1.234-3.779c0-1.635,0.409-2.885,1.227-3.747
		C-6.15,0.373-4.96-0.058-3.401-0.058c1.564,0,2.75,0.428,3.557,1.284C0.963,2.08,1.366,3.338,1.366,4.996z M-5.397,4.996
		c0,1.901,0.662,2.851,1.982,2.851c0.673,0,1.171-0.23,1.496-0.691c0.325-0.462,0.488-1.183,0.488-2.16
		c0-0.982-0.164-1.708-0.494-2.175c-0.33-0.468-0.822-0.703-1.477-0.703C-4.731,2.118-5.397,3.078-5.397,4.996z"/>
	<path fill="#FFFFFF" d="M14.06,3.221c0,1.098-0.324,1.945-0.971,2.545c-0.648,0.599-1.568,0.897-2.759,0.897H9.583v3.26H6.928
		v-9.83h3.401c1.241,0,2.173,0.271,2.796,0.814S14.06,2.222,14.06,3.221z M9.583,4.498h0.485c0.398,0,0.716-0.111,0.952-0.336
		c0.235-0.225,0.353-0.534,0.353-0.928c0-0.664-0.368-0.995-1.103-0.995H9.584L9.583,4.498L9.583,4.498z"/>
	<path fill="#FFFFFF" d="M25.249,9.923h-5.835v-9.83h5.835v2.131h-3.18v1.546h2.945v2.132h-2.945v1.854h3.18V9.923z"/>
	<path fill="#FFFFFF" d="M40.116,9.923h-3.482l-3.59-6.925h-0.062c0.085,1.089,0.128,1.92,0.128,2.494v4.431h-2.353v-9.83h3.469
		l3.577,6.83h0.04c-0.062-0.989-0.094-1.785-0.094-2.386V0.094h2.366L40.116,9.923L40.116,9.923z"/>
	<path fill="#FFFFFF" d="M52.453,6.939c0,0.607-0.154,1.148-0.463,1.623c-0.31,0.475-0.755,0.84-1.338,1.102
		c-0.582,0.262-1.267,0.396-2.051,0.396c-0.654,0-1.203-0.046-1.646-0.138S46.049,9.669,45.57,9.44V7.072
		c0.507,0.26,1.034,0.463,1.581,0.609c0.546,0.146,1.049,0.218,1.506,0.218c0.395,0,0.684-0.067,0.867-0.205
		C49.707,7.557,49.8,7.38,49.8,7.166c0-0.135-0.037-0.252-0.11-0.352c-0.074-0.102-0.192-0.204-0.356-0.307
		c-0.163-0.104-0.6-0.314-1.308-0.631c-0.641-0.293-1.121-0.575-1.442-0.849c-0.321-0.273-0.559-0.587-0.713-0.941
		c-0.155-0.354-0.232-0.773-0.232-1.257c0-0.906,0.33-1.61,0.989-2.118c0.659-0.506,1.564-0.76,2.715-0.76
		c1.018,0,2.056,0.235,3.113,0.706l-0.813,2.05c-0.919-0.421-1.712-0.633-2.38-0.633c-0.345,0-0.597,0.061-0.753,0.182
		c-0.157,0.121-0.235,0.272-0.235,0.451c0,0.192,0.1,0.365,0.299,0.517c0.2,0.153,0.741,0.43,1.624,0.834
		c0.847,0.381,1.436,0.79,1.765,1.226C52.288,5.725,52.453,6.276,52.453,6.939z"/>
	<path fill="#FFFFFF" d="M66.183,9.923h-2.668V5.917h-3.086v4.006h-2.668v-9.83h2.668v3.644h3.086V0.094h2.668V9.923z"/>
	<path fill="#FFFFFF" d="M72.094,9.923v-9.83h2.668v9.83H72.094z"/>
	<path fill="#FFFFFF" d="M83.29,9.923h-2.615v-9.83h5.81v2.131H83.29v1.876h2.944v2.131H83.29V9.923z"/>
	<path fill="#FFFFFF" d="M96.221,9.923h-2.656V2.267h-2.398V0.094h7.447v2.172h-2.393V9.923z"/>
</g>
<g>
	<path fill="#FFFFFF" d="M113.139,9.923h-5.472V0.108h5.472v1.014h-4.33v3.162h4.068v1.007h-4.068v3.612h4.33V9.923z"/>
	<path fill="#FFFFFF" d="M123.229,9.923h-1.303l-5.364-8.238h-0.054c0.072,0.967,0.107,1.853,0.107,2.659v5.579h-1.054V0.108h1.289
		l5.351,8.204h0.054c-0.009-0.121-0.029-0.51-0.061-1.165s-0.042-1.124-0.033-1.406V0.108h1.067V9.923z"/>
	<path fill="#FFFFFF" d="M129.197,9.923h-1.142V1.122h-3.108V0.108h7.358v1.014h-3.108V9.923z"/>
	<path fill="#FFFFFF" d="M139.501,9.923h-5.472V0.108h5.472v1.014h-4.33v3.162h4.068v1.007h-4.068v3.612h4.33V9.923z"/>
	<path fill="#FFFFFF" d="M143.065,5.841v4.082h-1.142V0.108h2.692c1.204,0,2.094,0.23,2.669,0.691
		c0.574,0.461,0.862,1.155,0.862,2.081c0,1.298-0.658,2.175-1.974,2.632l2.665,4.411h-1.35l-2.376-4.082H143.065z M143.065,4.861
		h1.563c0.807,0,1.396-0.16,1.773-0.48c0.375-0.32,0.563-0.8,0.563-1.44c0-0.649-0.191-1.117-0.574-1.403
		c-0.383-0.286-0.997-0.43-1.843-0.43h-1.483V4.861z"/>
	<path fill="#FFFFFF" d="M156.896,2.968c0,0.994-0.339,1.758-1.018,2.293c-0.678,0.535-1.647,0.802-2.91,0.802h-1.154v3.86h-1.142
		V0.108h2.545C155.669,0.108,156.896,1.061,156.896,2.968z M151.813,5.083h1.026c1.012,0,1.744-0.163,2.196-0.49
		c0.452-0.327,0.678-0.85,0.678-1.571c0-0.649-0.213-1.132-0.638-1.45c-0.426-0.318-1.088-0.477-1.987-0.477h-1.275V5.083z"/>
	<path fill="#FFFFFF" d="M160.339,5.841v4.082h-1.142V0.108h2.692c1.204,0,2.094,0.23,2.669,0.691
		c0.574,0.461,0.862,1.155,0.862,2.081c0,1.298-0.658,2.175-1.974,2.632l2.665,4.411h-1.35l-2.376-4.082H160.339z M160.339,4.861
		h1.563c0.807,0,1.396-0.16,1.773-0.48c0.375-0.32,0.563-0.8,0.563-1.44c0-0.649-0.191-1.117-0.574-1.403
		c-0.383-0.286-0.997-0.43-1.843-0.43h-1.483V4.861z"/>
	<path fill="#FFFFFF" d="M167.944,9.923V0.108h1.142v9.815H167.944z"/>
	<path fill="#FFFFFF" d="M177.564,7.312c0,0.863-0.313,1.537-0.94,2.021c-0.626,0.483-1.477,0.726-2.551,0.726
		c-1.164,0-2.06-0.15-2.686-0.45V8.507c0.402,0.17,0.841,0.304,1.315,0.402c0.475,0.098,0.944,0.147,1.41,0.147
		c0.761,0,1.334-0.144,1.719-0.433s0.577-0.691,0.577-1.205c0-0.34-0.068-0.619-0.204-0.836c-0.137-0.217-0.365-0.418-0.686-0.602
		c-0.319-0.184-0.807-0.391-1.46-0.624c-0.913-0.327-1.565-0.714-1.957-1.162c-0.392-0.447-0.588-1.032-0.588-1.752
		c0-0.756,0.284-1.358,0.853-1.806c0.569-0.448,1.321-0.671,2.256-0.671c0.977,0,1.874,0.179,2.692,0.537l-0.355,0.994
		c-0.811-0.34-1.598-0.51-2.363-0.51c-0.604,0-1.076,0.13-1.417,0.389c-0.34,0.26-0.51,0.62-0.51,1.081
		c0,0.34,0.062,0.619,0.188,0.836c0.126,0.217,0.337,0.416,0.635,0.598c0.298,0.181,0.753,0.381,1.366,0.601
		c1.029,0.367,1.738,0.761,2.125,1.182C177.37,6.094,177.564,6.64,177.564,7.312z"/>
	<path fill="#FFFFFF" d="M185.291,9.923h-5.472V0.108h5.472v1.014h-4.33v3.162h4.068v1.007h-4.068v3.612h4.33V9.923z"/>
</g>
</svg>
