<?xml version="1.0" encoding="UTF-8" standalone="no"?>
<svg width="231px" height="14px" viewBox="0 0 231 14" version="1.1" xmlns="http://www.w3.org/2000/svg" xmlns:xlink="http://www.w3.org/1999/xlink">
    <!-- Generator: Sketch 3.7.2 (28276) - http://www.bohemiancoding.com/sketch -->
    <title>logo-enterprse-thin</title>
    <desc>Created with Sketch.</desc>
    <defs></defs>
    <g id="Page-1" stroke="none" stroke-width="1" fill="none" fill-rule="evenodd">
        <path d="M12.6669922,6.91552734 C12.6669922,8.95752974 12.1661834,10.5097603 11.1645508,11.5722656 C10.1629182,12.6347709 8.69646148,13.1660156 6.76513672,13.1660156 C4.86148137,13.1660156 3.40194193,12.632004 2.38647461,11.5639648 C1.37100729,10.4959256 0.86328125,8.94092818 0.86328125,6.89892578 C0.86328125,4.87905891 1.36824039,3.33651249 2.37817383,2.27124023 C3.38810726,1.20596798 4.8559474,0.673339844 6.78173828,0.673339844 C8.71306304,0.673339844 10.1767528,1.20181763 11.1728516,2.25878906 C12.1689503,3.31576049 12.6669922,4.86799106 12.6669922,6.91552734 L12.6669922,6.91552734 Z M4.31640625,6.91552734 C4.31640625,9.26189324 5.13264158,10.4350586 6.76513672,10.4350586 C7.59521899,10.4350586 8.21085411,10.150068 8.61206055,9.58007812 C9.01326698,9.0100883 9.21386719,8.12191358 9.21386719,6.91552734 C9.21386719,5.70360722 9.01050008,4.80851526 8.60375977,4.23022461 C8.19701945,3.65193396 7.58968503,3.36279297 6.78173828,3.36279297 C5.13817538,3.36279297 4.31640625,4.54702592 4.31640625,6.91552734 L4.31640625,6.91552734 Z M27.6655273,4.72412109 C27.6655273,6.07992214 27.2657104,7.12719357 26.4660645,7.8659668 C25.6664185,8.60474002 24.5306063,8.97412109 23.0585938,8.97412109 L22.137207,8.97412109 L22.137207,13 L18.8583984,13 L18.8583984,0.864257812 L23.0585938,0.864257812 C24.591479,0.864257812 25.7425092,1.19905264 26.5117188,1.86865234 C27.2809283,2.53825205 27.6655273,3.49006544 27.6655273,4.72412109 L27.6655273,4.72412109 Z M22.137207,6.30126953 L22.7348633,6.30126953 C23.2273788,6.30126953 23.618895,6.16292456 23.9094238,5.88623047 C24.1999526,5.60953638 24.3452148,5.22770426 24.3452148,4.74072266 C24.3452148,3.92170814 23.8914433,3.51220703 22.9838867,3.51220703 L22.137207,3.51220703 L22.137207,6.30126953 Z M40.8046875,13 L33.5996094,13 L33.5996094,0.864257812 L40.8046875,0.864257812 L40.8046875,3.49560547 L36.878418,3.49560547 L36.878418,5.40478516 L40.5141602,5.40478516 L40.5141602,8.03613281 L36.878418,8.03613281 L36.878418,10.3271484 L40.8046875,10.3271484 L40.8046875,13 Z M58.484375,13 L54.1845703,13 L49.7519531,4.45019531 L49.6772461,4.45019531 C49.7823898,5.7949286 49.8349609,6.82144828 49.8349609,7.52978516 L49.8349609,13 L46.9296875,13 L46.9296875,0.864257812 L51.2128906,0.864257812 L55.6289062,9.29785156 L55.6787109,9.29785156 C55.6012366,8.07486368 55.5625,7.09261438 55.5625,6.35107422 L55.5625,0.864257812 L58.484375,0.864257812 L58.484375,13 Z M73.0429688,9.31445312 C73.0429688,10.0670611 72.8520527,10.7352673 72.4702148,11.3190918 C72.088377,11.9029163 71.537764,12.3566878 70.8183594,12.6804199 C70.0989547,13.004152 69.2550504,13.1660156 68.2866211,13.1660156 C67.4786743,13.1660156 66.800784,13.1092942 66.2529297,12.9958496 C65.7050754,12.882405 65.1350941,12.6845717 64.5429688,12.4023438 L64.5429688,9.48046875 C65.1682974,9.8014339 65.8185188,10.0518383 66.4936523,10.2316895 C67.1687859,10.4115406 67.7885714,10.5014648 68.3530273,10.5014648 C68.8400089,10.5014648 69.196939,10.4170744 69.4238281,10.248291 C69.6507173,10.0795076 69.7641602,9.86230602 69.7641602,9.59667969 C69.7641602,9.43066323 69.7185063,9.28540101 69.6271973,9.16088867 C69.5358882,9.03637633 69.3892425,8.91048241 69.1872559,8.78320312 C68.9852692,8.65592384 68.4471072,8.3958353 67.5727539,8.00292969 C66.7814088,7.64322737 66.1879089,7.29459804 65.7922363,6.95703125 C65.3965638,6.61946446 65.1032724,6.23209854 64.9123535,5.79492188 C64.7214346,5.35774521 64.6259766,4.84033502 64.6259766,4.24267578 C64.6259766,3.12483165 65.0327108,2.25325833 65.8461914,1.62792969 C66.659672,1.00260104 67.7774994,0.689941406 69.199707,0.689941406 C70.4558982,0.689941406 71.7369726,0.980465845 73.0429688,1.56152344 L72.0385742,4.09326172 C70.9041284,3.57307683 69.924646,3.31298828 69.1000977,3.31298828 C68.6739888,3.31298828 68.364096,3.38769457 68.1704102,3.53710938 C67.9767243,3.68652418 67.8798828,3.87190645 67.8798828,4.09326172 C67.8798828,4.33121864 68.0030098,4.54426989 68.2492676,4.73242188 C68.4955253,4.92057386 69.1637315,5.26366938 70.2539062,5.76171875 C71.2998099,6.23209871 72.026121,6.73705785 72.4328613,7.27661133 C72.8396016,7.81616481 73.0429688,8.49543861 73.0429688,9.31445312 L73.0429688,9.31445312 Z M89.3198242,13 L86.0244141,13 L86.0244141,8.05273438 L82.2143555,8.05273438 L82.2143555,13 L78.9189453,13 L78.9189453,0.864257812 L82.2143555,0.864257812 L82.2143555,5.36328125 L86.0244141,5.36328125 L86.0244141,0.864257812 L89.3198242,0.864257812 L89.3198242,13 Z M95.9428711,13 L95.9428711,0.864257812 L99.2382812,0.864257812 L99.2382812,13 L95.9428711,13 Z M109.090332,13 L105.861328,13 L105.861328,0.864257812 L113.033203,0.864257812 L113.033203,3.49560547 L109.090332,3.49560547 L109.090332,5.81152344 L112.726074,5.81152344 L112.726074,8.44287109 L109.090332,8.44287109 L109.090332,13 Z M124.379395,13 L121.100586,13 L121.100586,3.54541016 L118.137207,3.54541016 L118.137207,0.864257812 L127.334473,0.864257812 L127.334473,3.54541016 L124.379395,3.54541016 L124.379395,13 Z" id="OPENSHIFT" fill="#FFFFFF"></path>
        <path d="M143.433594,13 L136.668457,13 L136.668457,0.864257812 L143.433594,0.864257812 L143.433594,2.11767578 L138.07959,2.11767578 L138.07959,6.02734375 L143.109863,6.02734375 L143.109863,7.27246094 L138.07959,7.27246094 L138.07959,11.7382812 L143.433594,11.7382812 L143.433594,13 Z M155.602539,13 L153.992188,13 L147.359863,2.81494141 L147.293457,2.81494141 C147.381999,4.01025988 147.42627,5.10595205 147.42627,6.10205078 L147.42627,13 L146.123047,13 L146.123047,0.864257812 L147.716797,0.864257812 L154.33252,11.0078125 L154.398926,11.0078125 C154.387858,10.8583977 154.362956,10.3783406 154.324219,9.56762695 C154.285482,8.75691326 154.271647,8.17724784 154.282715,7.82861328 L154.282715,0.864257812 L155.602539,0.864257812 L155.602539,13 Z M162.674805,13 L161.263672,13 L161.263672,2.11767578 L157.42041,2.11767578 L157.42041,0.864257812 L166.518066,0.864257812 L166.518066,2.11767578 L162.674805,2.11767578 L162.674805,13 Z M175.109375,13 L168.344238,13 L168.344238,0.864257812 L175.109375,0.864257812 L175.109375,2.11767578 L169.755371,2.11767578 L169.755371,6.02734375 L174.785645,6.02734375 L174.785645,7.27246094 L169.755371,7.27246094 L169.755371,11.7382812 L175.109375,11.7382812 L175.109375,13 Z M179.209961,7.953125 L179.209961,13 L177.798828,13 L177.798828,0.864257812 L181.127441,0.864257812 C182.616056,0.864257812 183.715898,1.14924845 184.427002,1.71923828 C185.138106,2.28922811 185.493652,3.14696693 185.493652,4.29248047 C185.493652,5.8973062 184.680184,6.98193077 183.053223,7.54638672 L186.348633,13 L184.680176,13 L181.741699,7.953125 L179.209961,7.953125 Z M179.209961,6.74121094 L181.144043,6.74121094 C182.140142,6.74121094 182.870603,6.54337763 183.335449,6.14770508 C183.800295,5.75203253 184.032715,5.1585326 184.032715,4.3671875 C184.032715,3.56477463 183.796145,2.98649266 183.322998,2.63232422 C182.849851,2.27815578 182.090337,2.10107422 181.044434,2.10107422 L179.209961,2.10107422 L179.209961,6.74121094 Z M196.002441,4.40039062 C196.002441,5.62891239 195.583256,6.57380854 194.744873,7.23510742 C193.90649,7.8964063 192.707039,8.22705078 191.146484,8.22705078 L189.71875,8.22705078 L189.71875,13 L188.307617,13 L188.307617,0.864257812 L191.453613,0.864257812 C194.486181,0.864257812 196.002441,2.04295696 196.002441,4.40039062 L196.002441,4.40039062 Z M189.71875,7.01513672 L190.98877,7.01513672 C192.239427,7.01513672 193.144203,6.81315306 193.703125,6.40917969 C194.262047,6.00520631 194.541504,5.35775185 194.541504,4.46679688 C194.541504,3.66438401 194.278648,3.06673374 193.75293,2.67382812 C193.227211,2.28092251 192.408209,2.08447266 191.295898,2.08447266 L189.71875,2.08447266 L189.71875,7.01513672 Z M199.953613,7.953125 L199.953613,13 L198.54248,13 L198.54248,0.864257812 L201.871094,0.864257812 C203.359708,0.864257812 204.45955,1.14924845 205.170654,1.71923828 C205.881758,2.28922811 206.237305,3.14696693 206.237305,4.29248047 C206.237305,5.8973062 205.423836,6.98193077 203.796875,7.54638672 L207.092285,13 L205.423828,13 L202.485352,7.953125 L199.953613,7.953125 Z M199.953613,6.74121094 L201.887695,6.74121094 C202.883794,6.74121094 203.614255,6.54337763 204.079102,6.14770508 C204.543948,5.75203253 204.776367,5.1585326 204.776367,4.3671875 C204.776367,3.56477463 204.539797,2.98649266 204.06665,2.63232422 C203.593503,2.27815578 202.83399,2.10107422 201.788086,2.10107422 L199.953613,2.10107422 L199.953613,6.74121094 Z M209.05127,13 L209.05127,0.864257812 L210.462402,0.864257812 L210.462402,13 L209.05127,13 Z M220.63916,9.77099609 C220.63916,10.8390353 220.251794,11.671872 219.477051,12.2695312 C218.702307,12.8671905 217.650886,13.1660156 216.322754,13.1660156 C214.883945,13.1660156 213.777185,12.9806334 213.002441,12.6098633 L213.002441,11.2485352 C213.500491,11.4588227 214.042803,11.6248366 214.629395,11.746582 C215.215986,11.8683274 215.797035,11.9291992 216.372559,11.9291992 C217.313319,11.9291992 218.021645,11.7507342 218.497559,11.3937988 C218.973472,11.0368634 219.211426,10.540205 219.211426,9.90380859 C219.211426,9.48323357 219.127035,9.1387546 218.958252,8.87036133 C218.789469,8.60196806 218.507245,8.35433056 218.111572,8.12744141 C217.7159,7.90055225 217.114099,7.64323061 216.306152,7.35546875 C215.17724,6.95149538 214.370689,6.47282178 213.886475,5.91943359 C213.40226,5.36604541 213.160156,4.64388466 213.160156,3.75292969 C213.160156,2.81770366 213.511552,2.07340771 214.214355,1.52001953 C214.917158,0.966631348 215.846837,0.689941406 217.003418,0.689941406 C218.209804,0.689941406 219.319331,0.911293359 220.332031,1.35400391 L219.89209,2.58251953 C218.890457,2.16194451 217.916509,1.95166016 216.970215,1.95166016 C216.223141,1.95166016 215.639325,2.11214032 215.21875,2.43310547 C214.798175,2.75407062 214.587891,3.19954142 214.587891,3.76953125 C214.587891,4.19010627 214.665364,4.53458525 214.820312,4.80297852 C214.975261,5.07137178 215.236733,5.31762583 215.604736,5.54174805 C215.972739,5.76587026 216.535804,6.01350776 217.293945,6.28466797 C218.566738,6.73844628 219.442462,7.22542058 219.921143,7.74560547 C220.399823,8.26579036 220.63916,8.94091382 220.63916,9.77099609 L220.63916,9.77099609 Z M229.88623,13 L223.121094,13 L223.121094,0.864257812 L229.88623,0.864257812 L229.88623,2.11767578 L224.532227,2.11767578 L224.532227,6.02734375 L229.5625,6.02734375 L229.5625,7.27246094 L224.532227,7.27246094 L224.532227,11.7382812 L229.88623,11.7382812 L229.88623,13 Z" id="ENTERPRISE" fill="#FFFFFF"></path>
    </g>
</svg>