<?xml version="1.0" encoding="utf-8"?>
<!-- Generator: Adobe Illustrator 16.0.4, SVG Export Plug-In . SVG Version: 6.00 Build 0)  -->
<!DOCTYPE svg PUBLIC "-//W3C//DTD SVG 1.1//EN" "http://www.w3.org/Graphics/SVG/1.1/DTD/svg11.dtd">
<svg version="1.1" id="Layer_1" xmlns="http://www.w3.org/2000/svg" xmlns:xlink="http://www.w3.org/1999/xlink" x="0px" y="0px"
	 width="144.125px" height="10px" viewBox="0 0 144.125 10" enable-background="new 0 0 144.125 10" xml:space="preserve">
<g>
	<path fill="#FFFFFF" d="M8.747,4.998c0,1.481-0.363,2.606-1.089,3.377C6.931,9.146,5.868,9.53,4.468,9.53
		c-1.38,0-2.438-0.387-3.175-1.161S0.188,6.467,0.188,4.986c0-1.464,0.366-2.583,1.098-3.355c0.732-0.772,1.797-1.158,3.193-1.158
		c1.4,0,2.462,0.383,3.184,1.149C8.386,2.388,8.747,3.514,8.747,4.998z M2.692,4.998c0,1.702,0.592,2.553,1.775,2.553
		c0.602,0,1.048-0.207,1.339-0.62s0.437-1.058,0.437-1.933c0-0.879-0.147-1.528-0.442-1.947C5.506,2.632,5.065,2.422,4.479,2.422
		C3.288,2.422,2.692,3.281,2.692,4.998z"/>
	<path fill="#FFFFFF" d="M20.111,3.409c0,0.983-0.29,1.742-0.87,2.278c-0.58,0.536-1.403,0.804-2.47,0.804h-0.668V9.41h-2.377v-8.8
		h3.045c1.111,0,1.946,0.243,2.503,0.729S20.111,2.515,20.111,3.409z M16.103,4.553h0.434c0.357,0,0.641-0.1,0.852-0.301
		s0.316-0.478,0.316-0.831c0-0.594-0.329-0.891-0.987-0.891h-0.614V4.553z"/>
	<path fill="#FFFFFF" d="M30.127,9.41h-5.224v-8.8h5.224v1.908H27.28v1.384h2.636v1.909H27.28v1.66h2.847V9.41z"/>
	<path fill="#FFFFFF" d="M43.436,9.41h-3.117l-3.214-6.2H37.05c0.076,0.975,0.115,1.719,0.115,2.233V9.41h-2.106v-8.8h3.105
		l3.202,6.115h0.036c-0.056-0.887-0.084-1.599-0.084-2.137V0.61h2.118V9.41z"/>
	<path fill="#FFFFFF" d="M54.481,6.738c0,0.545-0.138,1.03-0.415,1.453c-0.277,0.424-0.676,0.752-1.198,0.987
		c-0.521,0.234-1.134,0.352-1.836,0.352c-0.585,0-1.077-0.041-1.474-0.123c-0.397-0.082-0.811-0.226-1.24-0.431V6.858
		c0.454,0.232,0.925,0.414,1.415,0.545c0.489,0.13,0.939,0.195,1.348,0.195c0.353,0,0.612-0.062,0.776-0.184s0.247-0.28,0.247-0.473
		c0-0.12-0.033-0.226-0.099-0.315c-0.066-0.091-0.172-0.182-0.319-0.274c-0.146-0.092-0.537-0.281-1.171-0.565
		c-0.574-0.261-1.004-0.514-1.291-0.759c-0.287-0.245-0.5-0.526-0.638-0.843c-0.139-0.317-0.208-0.692-0.208-1.125
		c0-0.811,0.295-1.442,0.885-1.896c0.59-0.453,1.4-0.68,2.431-0.68c0.911,0,1.84,0.211,2.787,0.632l-0.728,1.835
		c-0.823-0.377-1.533-0.566-2.131-0.566c-0.309,0-0.534,0.054-0.674,0.163c-0.141,0.108-0.211,0.243-0.211,0.403
		c0,0.172,0.089,0.327,0.268,0.463c0.179,0.137,0.663,0.385,1.454,0.747c0.758,0.341,1.285,0.707,1.58,1.098
		C54.333,5.651,54.481,6.144,54.481,6.738z"/>
	<path fill="#FFFFFF" d="M66.772,9.41h-2.389V5.823H61.62V9.41h-2.389v-8.8h2.389v3.262h2.763V0.61h2.389V9.41z"/>
	<path fill="#FFFFFF" d="M72.064,9.41v-8.8h2.389v8.8H72.064z"/>
	<path fill="#FFFFFF" d="M82.086,9.41h-2.341v-8.8h5.2v1.908h-2.859v1.679h2.636v1.909h-2.636V9.41z"/>
	<path fill="#FFFFFF" d="M93.661,9.41h-2.377V2.555h-2.148V0.61h6.668v1.944h-2.143V9.41z"/>
</g>
<g>
	<path fill="#FFFFFF" d="M110.176,5.155c0,1.371-0.347,2.449-1.04,3.234s-1.657,1.178-2.892,1.178c-1.262,0-2.235-0.385-2.921-1.156
		s-1.028-1.861-1.028-3.267c0-1.395,0.344-2.476,1.031-3.243s1.664-1.151,2.93-1.151c1.23,0,2.191,0.391,2.883,1.172
		S110.176,3.78,110.176,5.155z M103.35,5.155c0,1.16,0.247,2.041,0.741,2.64s1.212,0.898,2.153,0.898
		c0.949,0,1.666-0.299,2.15-0.896s0.727-1.479,0.727-2.642c0-1.152-0.241-2.026-0.724-2.622s-1.196-0.894-2.142-0.894
		c-0.949,0-1.671,0.3-2.165,0.899S103.35,4.01,103.35,5.155z"/>
	<path fill="#FFFFFF" d="M113.442,5.887v3.562h-0.996V0.883h2.35c1.05,0,1.828,0.201,2.33,0.604s0.752,1.008,0.752,1.816
		c0,1.133-0.574,1.898-1.723,2.296l2.326,3.85h-1.178l-2.074-3.562H113.442z M113.442,5.032h1.365c0.703,0,1.218-0.14,1.546-0.419
		s0.492-0.698,0.492-1.257c0-0.566-0.166-0.975-0.5-1.225s-0.871-0.375-1.609-0.375h-1.295V5.032z"/>
	<path fill="#FFFFFF" d="M120.224,9.449V0.883h0.996v8.566H120.224z"/>
	<path fill="#FFFFFF" d="M127.697,4.961h2.912v4.166c-0.453,0.145-0.914,0.254-1.383,0.328s-1.012,0.111-1.629,0.111
		c-1.297,0-2.307-0.385-3.029-1.156s-1.084-1.854-1.084-3.244c0-0.891,0.179-1.671,0.536-2.341s0.872-1.182,1.544-1.535
		s1.459-0.53,2.361-0.53c0.914,0,1.766,0.168,2.555,0.504l-0.387,0.879c-0.773-0.328-1.518-0.492-2.232-0.492
		c-1.043,0-1.857,0.311-2.443,0.932s-0.879,1.482-0.879,2.584c0,1.156,0.282,2.033,0.847,2.63s1.394,0.896,2.487,0.896
		c0.594,0,1.174-0.068,1.74-0.205V5.852h-1.916V4.961z"/>
	<path fill="#FFFFFF" d="M133.026,9.449V0.883h0.996v8.566H133.026z"/>
	<path fill="#FFFFFF" d="M143.423,9.449h-1.137l-4.682-7.189h-0.047c0.062,0.844,0.094,1.617,0.094,2.32v4.869h-0.92V0.883h1.125
		l4.67,7.16h0.047c-0.008-0.105-0.025-0.443-0.053-1.016s-0.037-0.982-0.029-1.229V0.883h0.932V9.449z"/>
</g>
</svg>
