<?xml version="1.0" encoding="UTF-8"?>
<!-- Generator: Adobe Illustrator 15.0.0, SVG Export Plug-In . SVG Version: 6.00 Build 0)  -->
<!DOCTYPE svg PUBLIC "-//W3C//DTD SVG 1.1//EN" "http://www.w3.org/Graphics/SVG/1.1/DTD/svg11.dtd">
<svg version="1.1" id="Layer_1" xmlns="http://www.w3.org/2000/svg" xmlns:xlink="http://www.w3.org/1999/xlink" x="0px" y="0px" width="216px" height="216px" viewBox="0 0 216 216" enable-background="new 0 0 216 216" xml:space="preserve">
<g>
	<path fill="#DB242F" d="M78.621,78.245l-23.025,8.379c0.294,3.692,0.931,7.339,1.824,10.911l21.873-7.964   C78.582,85.874,78.33,82.062,78.621,78.245"/>
	<path fill="#DB242F" d="M180.379,52.784c-1.605-3.312-3.463-6.514-5.615-9.53l-23.021,8.378c2.679,2.741,4.927,5.82,6.765,9.114   L180.379,52.784z"/>
	<path fill="#DB242F" d="M129.725,46.263c4.789,2.235,8.938,5.284,12.437,8.859l23.022-8.38   c-6.377-8.947-15.063-16.424-25.705-21.39C106.569,10.006,67.305,24.296,51.96,57.2c-4.967,10.649-6.812,21.961-5.946,32.912   l23.024-8.378c0.382-4.988,1.601-9.987,3.831-14.78C82.84,45.573,108.344,36.295,129.725,46.263"/>
	<path fill="#DB242F" d="M58.854,97.011l-21.875,7.967c2.011,7.977,5.496,15.553,10.287,22.297l22.973-8.361   C64.342,112.857,60.42,105.196,58.854,97.011"/>
	<path fill="#DB242F" d="M154.277,88.331c-0.367,4.985-1.625,9.985-3.863,14.782c-9.971,21.383-35.476,30.661-56.854,20.692   c-4.796-2.238-8.976-5.262-12.463-8.844l-22.974,8.363c6.361,8.947,15.039,16.428,25.687,21.396   c32.91,15.344,72.169,1.053,87.515-31.855c4.97-10.644,6.804-21.952,5.926-32.895L154.277,88.331z"/>
	<path fill="#DB242F" d="M159.938,60.224l-21.873,7.962c4.062,7.279,5.981,15.662,5.354,24.091l22.973-8.357   C165.734,75.675,163.535,67.628,159.938,60.224"/>
</g>
<g>
	<g>
		<path fill="#251F21" d="M37.346,175.777c-2.863,0-4.761,2.309-4.761,6.455c0,4.148,1.985,6.514,4.849,6.514    c2.862,0,4.76-2.307,4.76-6.455S40.208,175.777,37.346,175.777 M37.375,192.805c-5.346,0-8.996-3.912-8.996-10.514    s3.709-10.574,9.055-10.574c5.315,0,8.967,3.916,8.967,10.516C46.4,188.834,42.691,192.805,37.375,192.805"/>
		<path fill="#251F21" d="M59.653,176.012H54.95v5.256h4.761c1.898,0,2.922-0.877,2.922-2.656    C62.633,176.83,61.463,176.012,59.653,176.012 M59.448,185.242H54.95v7.242h-4.089v-20.445h8.938c3.855,0,7.039,2.133,7.039,6.484    C66.838,183.256,63.684,185.242,59.448,185.242"/>
	</g>
	<polygon fill="#251F21" points="71.066,192.484 71.066,172.041 85.262,172.041 85.262,176.041 75.155,176.041 75.155,179.574    81.025,179.574 81.025,183.547 75.155,183.547 75.155,188.482 85.699,188.482 85.699,192.484  "/>
	<g>
		<path fill="#251F21" d="M103.304,192.484l-7.507-11.158c-0.496-0.758-1.168-1.781-1.43-2.307c0,0.76,0.058,3.33,0.058,4.469v8.996    h-4.031v-20.443h3.914l7.244,10.805c0.495,0.76,1.168,1.783,1.431,2.307c0-0.76-0.059-3.328-0.059-4.469v-8.643h4.031v20.443    H103.304z"/>
		<path fill="#251F21" d="M119.397,192.805c-2.775,0-5.259-1.197-6.864-2.832l1.52-1.695c1.547,1.49,3.328,2.455,5.432,2.455    c2.717,0,4.411-1.344,4.411-3.506c0-1.898-1.14-2.979-4.878-4.322c-4.41-1.578-5.9-3.008-5.9-5.959    c0-3.27,2.571-5.229,6.396-5.229c2.746,0,4.498,0.818,6.222,2.191l-1.461,1.781c-1.489-1.227-2.862-1.898-4.906-1.898    c-2.804,0-3.973,1.402-3.973,3.008c0,1.695,0.76,2.658,4.849,4.121c4.527,1.635,5.93,3.152,5.93,6.191    C126.174,190.324,123.661,192.805,119.397,192.805"/>
	</g>
	<polygon fill="#251F21" points="143.69,192.484 143.69,182.846 133.526,182.846 133.526,192.484 131.248,192.484 131.248,172.041    133.526,172.041 133.526,180.773 143.69,180.773 143.69,172.041 145.969,172.041 145.969,192.484  "/>
	<rect x="151.832" y="172.041" fill="#251F21" width="2.277" height="20.443"/>
	<polygon fill="#251F21" points="162.252,174.111 162.252,180.889 167.859,180.889 167.859,182.963 162.252,182.963    162.252,192.484 159.975,192.484 159.975,172.041 171.979,172.041 171.979,174.111  "/>
	<polygon fill="#251F21" points="176.066,172.039 176.066,174.113 182.083,174.113 182.083,192.484 184.361,192.484    184.361,174.113 190.379,174.113 190.379,172.039  "/>
</g>
</svg>