<?xml version="1.0" encoding="utf-8"?>
<!-- Generator: Adobe Illustrator 16.0.4, SVG Export Plug-In . SVG Version: 6.00 Build 0)  -->
<svg version="1.2" baseProfile="tiny" id="logo" xmlns="http://www.w3.org/2000/svg" xmlns:xlink="http://www.w3.org/1999/xlink"
	 x="0px" y="0px" width="128px" height="42px" viewBox="122.431 337.623 128 42" xml:space="preserve">
<g id="logo_1_">
	<g id="white">
		<path fill="#FFFFFF" d="M160.233,369.79c-0.792-0.182-1.632-0.296-2.481-0.296c-1.453,0-2.775,0.251-3.751,0.658
			c-0.107,0.053-0.184,0.166-0.184,0.293c0,0.047,0.012,0.094,0.029,0.134c0.115,0.333-0.074,0.696-1.018,0.904
			c-1.399,0.307-2.283,1.751-2.788,2.23c-0.594,0.564-2.271,0.91-2.018,0.574c0.197-0.262,0.952-1.082,1.411-1.967
			c0.411-0.792,0.776-1.017,1.28-1.772c0.147-0.221,0.72-1,0.887-1.615c0.187-0.601,0.124-1.355,0.196-1.666
			c0.103-0.448,0.526-1.419,0.558-1.968c0.019-0.311-1.296,0.443-1.919,0.443s-1.23-0.374-1.788-0.4
			c-0.689-0.032-1.132,0.532-1.756,0.433c-0.355-0.057-0.656-0.371-1.278-0.394c-0.886-0.032-1.969,0.493-4.003,0.428
			c-2-0.065-3.849-2.529-4.101-2.921c-0.295-0.459-0.657-0.459-1.05-0.098c-0.394,0.36-0.879,0.077-1.018-0.166
			c-0.262-0.458-0.963-1.8-2.05-2.082c-1.503-0.39-2.264,0.832-2.165,1.804c0.101,0.986,0.738,1.263,1.034,1.788
			c0.295,0.525,0.446,0.862,1.002,1.095c0.394,0.165,0.54,0.407,0.423,0.731c-0.103,0.281-0.513,0.346-0.782,0.359
			c-0.572,0.027-0.974-0.128-1.267-0.314c-0.34-0.218-0.617-0.519-0.915-1.03c-0.344-0.564-0.885-0.811-1.516-0.811
			c-0.301,0-0.582,0.079-0.832,0.208c-0.989,0.515-2.165,0.819-3.432,0.819l-1.429,0.001c2.74,8.125,10.423,13.977,19.473,13.977
			C150.214,379.167,156.572,375.435,160.233,369.79z"/>
	</g>
	<g id="black">
		<g>
			<path fill="#FFFFFF" d="M163.322,368.693h0.186l0.28,0.459h0.18l-0.303-0.468c0.157-0.019,0.276-0.101,0.276-0.29
				c0-0.21-0.124-0.302-0.374-0.302h-0.404v1.06h0.16V368.693L163.322,368.693z M163.322,368.557v-0.329h0.219
				c0.111,0,0.231,0.025,0.231,0.156c0,0.163-0.121,0.173-0.257,0.173H163.322L163.322,368.557z"/>
			<path fill="#FFFFFF" d="M164.551,368.624c0,0.572-0.465,1.038-1.038,1.038c-0.573,0-1.039-0.466-1.039-1.038
				c0-0.573,0.466-1.039,1.039-1.039C164.086,367.585,164.551,368.051,164.551,368.624z M163.513,367.769
				c-0.472,0-0.855,0.383-0.855,0.855c0,0.471,0.383,0.852,0.855,0.852c0.471,0,0.854-0.381,0.854-0.852
				C164.366,368.152,163.984,367.769,163.513,367.769z"/>
		</g>
		<g>
			<path d="M160.233,369.792c-0.792-0.183-1.632-0.296-2.481-0.296c-1.453,0-2.775,0.252-3.751,0.657
				c-0.107,0.054-0.184,0.166-0.184,0.294c0,0.046,0.012,0.095,0.029,0.133c0.115,0.334-0.074,0.697-1.018,0.904
				c-1.399,0.308-2.283,1.751-2.788,2.232c-0.594,0.562-2.271,0.91-2.018,0.574c0.197-0.263,0.952-1.083,1.411-1.968
				c0.411-0.791,0.776-1.017,1.28-1.771c0.147-0.222,0.72-1,0.887-1.616c0.187-0.601,0.124-1.355,0.196-1.666
				c0.103-0.448,0.526-1.419,0.558-1.968c0.019-0.31-1.296,0.442-1.919,0.442s-1.23-0.373-1.788-0.4
				c-0.689-0.033-1.132,0.532-1.756,0.433c-0.355-0.057-0.656-0.37-1.278-0.394c-0.886-0.033-1.969,0.493-4.003,0.427
				c-2-0.064-3.849-2.528-4.101-2.919c-0.295-0.46-0.657-0.46-1.05-0.099c-0.394,0.36-0.879,0.077-1.018-0.165
				c-0.262-0.459-0.963-1.802-2.05-2.083c-1.503-0.39-2.264,0.832-2.165,1.804c0.101,0.986,0.738,1.263,1.034,1.787
				c0.295,0.525,0.446,0.865,1.002,1.097c0.394,0.163,0.54,0.407,0.423,0.73c-0.103,0.282-0.513,0.346-0.782,0.359
				c-0.572,0.027-0.974-0.128-1.267-0.316c-0.34-0.216-0.617-0.518-0.915-1.03c-0.344-0.564-0.885-0.81-1.516-0.81
				c-0.301,0-0.582,0.08-0.832,0.208c-0.989,0.514-2.165,0.819-3.432,0.819h-1.429c-0.696-2.062-1.072-4.271-1.072-6.568
				c0-11.347,9.199-20.545,20.545-20.545c11.347,0,20.545,9.198,20.545,20.545C163.53,362.741,162.319,366.575,160.233,369.792z"/>
		</g>
		<path fill="#FFFFFF" d="M174.003,359.919c0-1.884-0.039-3.27-0.115-4.523h3.082l0.132,2.673h0.101
			c0.692-1.981,2.334-2.992,3.853-2.992c0.348,0,0.55,0.013,0.834,0.077v3.353c-0.333-0.066-0.644-0.102-1.072-0.102
			c-1.696,0-2.873,1.079-3.19,2.692c-0.06,0.313-0.092,0.69-0.092,1.074v7.299h-3.562L174.003,359.919z"/>
		<path fill="#FFFFFF" d="M186.187,363.392c0.094,2.55,2.068,3.667,4.348,3.667c1.637,0,2.808-0.256,3.884-0.652l0.527,2.449
			c-1.204,0.511-2.876,0.893-4.918,0.893c-4.571,0-7.249-2.823-7.249-7.135c0-3.885,2.356-7.561,6.884-7.561
			c4.577,0,6.066,3.764,6.066,6.846c0,0.661-0.059,1.192-0.126,1.521L186.187,363.392z M192.377,360.912
			c0.016-1.304-0.551-3.43-2.935-3.43c-2.191,0-3.102,1.988-3.262,3.43H192.377z"/>
		<path fill="#FFFFFF" d="M207.506,363.368c0,0.373-0.026,0.721-0.108,1.038c-0.358,1.541-1.618,2.533-3.073,2.533
			c-2.241,0-3.523-1.889-3.523-4.476c0-2.611,1.271-4.632,3.563-4.632c1.601,0,2.746,1.128,3.061,2.499
			c0.061,0.288,0.08,0.644,0.08,0.928V363.368z M211.062,349.976l-3.557-1.003v7.939h-0.059c-0.629-1.04-2.018-1.833-3.944-1.833
			c-3.385,0-6.332,2.801-6.311,7.517c0,4.327,2.662,7.193,6.023,7.193c2.031,0,3.729-0.968,4.57-2.544h0.063l0.159,2.229h3.171
			c-0.065-0.957-0.117-2.507-0.117-3.948V349.976L211.062,349.976z"/>
		<path fill="#FFFFFF" d="M220.474,355.062c-1.072,0-2.032,0.309-2.839,0.807c-0.838,0.491-1.519,1.248-1.925,2.032h-0.056v-6.588
			l-1.394-0.412v18.57h1.394v-8.615c0-0.572,0.043-0.97,0.189-1.388c0.602-1.753,2.253-3.19,4.249-3.19
			c2.884,0,3.882,2.313,3.882,4.85v8.343h1.392v-8.497C225.367,355.728,221.809,355.062,220.474,355.062z"/>
		<path fill="#FFFFFF" d="M237.871,366.125c0,1.114,0.045,2.268,0.206,3.346h-1.283l-0.205-2.019h-0.066
			c-0.683,1.085-2.252,2.339-4.491,2.339c-2.834,0-4.153-1.993-4.153-3.872c0-3.251,2.87-5.21,8.601-5.15v-0.376
			c0-1.394-0.271-4.173-3.603-4.151c-1.233,0-2.517,0.33-3.536,1.049l-0.443-1.013c1.287-0.872,2.858-1.217,4.132-1.217
			c4.065,0,4.843,3.052,4.843,5.569V366.125L237.871,366.125z M236.478,361.942c-3.067-0.088-7.118,0.376-7.118,3.759
			c0,2.024,1.336,2.934,2.804,2.934c2.348,0,3.682-1.453,4.168-2.824c0.101-0.301,0.146-0.603,0.146-0.844V361.942L236.478,361.942z
			"/>
		<path fill="#FFFFFF" d="M243.418,352.28v3.104h4.016v1.13h-4.016v9.156c0,1.791,0.556,2.913,2.07,2.913
			c0.726,0,1.239-0.095,1.6-0.221l0.169,1.079c-0.455,0.191-1.094,0.339-1.944,0.339c-1.028,0-1.88-0.324-2.431-1
			c-0.638-0.74-0.856-1.922-0.856-3.359v-8.908h-2.378v-1.13h2.378v-2.59L243.418,352.28z"/>
		<g>
			<path fill="#FFFFFF" d="M249.194,368.722h0.185l0.279,0.458h0.181l-0.302-0.468c0.157-0.019,0.276-0.101,0.276-0.29
				c0-0.21-0.125-0.302-0.375-0.302h-0.404v1.06h0.161V368.722L249.194,368.722z M249.194,368.585v-0.329h0.218
				c0.11,0,0.231,0.024,0.231,0.155c0,0.163-0.121,0.173-0.258,0.173L249.194,368.585L249.194,368.585z"/>
			<path fill="#FFFFFF" d="M250.423,368.651c0,0.573-0.466,1.038-1.039,1.038c-0.572,0-1.038-0.465-1.038-1.038
				c0-0.573,0.467-1.038,1.038-1.038C249.958,367.613,250.423,368.078,250.423,368.651z M249.384,367.796
				c-0.473,0-0.854,0.383-0.854,0.855c0,0.471,0.381,0.852,0.854,0.852c0.472,0,0.854-0.381,0.854-0.852
				C250.238,368.179,249.855,367.796,249.384,367.796z"/>
		</g>
		<path d="M147.51,367.907c0.105,0.103,0.288,0.451,0.065,0.89c-0.125,0.233-0.259,0.397-0.5,0.589
			c-0.289,0.232-0.854,0.499-1.629,0.008c-0.416-0.264-0.441-0.354-1.017-0.279c-0.411,0.054-0.574-0.36-0.427-0.706
			c0.148-0.344,0.755-0.623,1.509-0.18c0.34,0.199,0.869,0.621,1.333,0.248c0.192-0.154,0.307-0.256,0.573-0.565
			c0.013-0.013,0.029-0.021,0.048-0.021C147.483,367.891,147.499,367.898,147.51,367.907z"/>
	</g>
	<path id="red" fill="#CC0000" d="M141.386,347.861c-2.373,0.171-2.619,0.428-3.064,0.901c-0.627,0.667-1.453-0.866-1.453-0.866
		c-0.495-0.104-1.096-0.903-0.772-1.649c0.319-0.738,0.909-0.516,1.094-0.287c0.225,0.28,0.705,0.737,1.328,0.721
		c0.623-0.016,1.342-0.147,2.344-0.147c1.016,0,1.699,0.379,1.737,0.705C142.632,347.517,142.517,347.779,141.386,347.861z
		 M143.879,343.94c-0.003,0-0.007,0-0.011,0c-0.037,0-0.066-0.028-0.066-0.062c0-0.025,0.015-0.046,0.038-0.057
		c0.46-0.243,1.146-0.437,1.932-0.517c0.236-0.024,0.466-0.036,0.688-0.038c0.039,0,0.078,0,0.117,0
		c1.317,0.03,2.371,0.553,2.355,1.168c-0.016,0.617-1.095,1.092-2.412,1.062c-0.426-0.01-0.827-0.072-1.171-0.171
		c-0.041-0.011-0.07-0.045-0.07-0.086s0.03-0.077,0.071-0.087c0.822-0.19,1.376-0.501,1.337-0.794
		c-0.051-0.389-1.126-0.602-2.4-0.473C144.147,343.901,144.011,343.919,143.879,343.94z M154.579,353.157
		c-0.204,0.683-0.492,1.555-1.776,2.215c-0.188,0.096-0.259-0.062-0.172-0.209c0.485-0.825,0.572-1.032,0.713-1.357
		c0.197-0.477,0.301-1.154-0.092-2.567c-0.773-2.781-2.385-6.498-3.557-7.703c-1.13-1.164-3.179-1.491-5.031-1.016
		c-0.683,0.175-2.016,0.869-4.491,0.312c-4.282-0.965-4.917,1.18-5.162,2.113c-0.246,0.935-0.836,3.589-0.836,3.589
		c-0.197,1.082-0.454,2.962,6.195,4.229c3.098,0.589,3.255,1.39,3.392,1.966c0.247,1.032,0.639,1.623,1.082,1.918
		c0.442,0.296,0,0.54-0.491,0.59c-1.319,0.137-6.195-1.261-9.08-2.9c-2.36-1.442-2.399-2.741-1.859-3.842
		c-3.565-0.386-6.241,0.334-6.725,2.021c-0.833,2.896,6.367,7.844,14.566,10.327c8.604,2.605,17.454,0.786,18.438-4.622
		C160.139,355.762,158.069,353.944,154.579,353.157z"/>
</g>
</svg>
