<?xml version="1.0" encoding="UTF-8" standalone="no"?>
<svg
   xmlns:dc="http://purl.org/dc/elements/1.1/"
   xmlns:cc="http://creativecommons.org/ns#"
   xmlns:rdf="http://www.w3.org/1999/02/22-rdf-syntax-ns#"
   xmlns:svg="http://www.w3.org/2000/svg"
   xmlns="http://www.w3.org/2000/svg"
   id="svg2"
   xml:space="preserve"
   enable-background="new 0 0 448 448"
   viewBox="0 0 448 448"
   height="448px"
   width="448px"
   y="0px"
   x="0px"
   version="1.1"><metadata
     id="metadata46"><rdf:RDF><cc:Work
         rdf:about=""><dc:format>image/svg+xml</dc:format><dc:type
           rdf:resource="http://purl.org/dc/dcmitype/StillImage" /><dc:title></dc:title></cc:Work></rdf:RDF></metadata><defs
     id="defs44" /><g
     id="Icon"><g
       id="_x32__1_"><g
         id="g6"><g
           style="color:#000000;clip-rule:nonzero;display:inline;overflow:visible;visibility:visible;opacity:1;isolation:auto;mix-blend-mode:normal;color-interpolation:sRGB;color-interpolation-filters:linearRGB;solid-color:#000000;solid-opacity:1;fill:#bcbd22;fill-opacity:1;fill-rule:nonzero;stroke-width:1;stroke-linecap:butt;stroke-linejoin:miter;stroke-miterlimit:4;stroke-dasharray:none;stroke-dashoffset:0;stroke-opacity:1;filter-blend-mode:normal;filter-gaussianBlur-deviation:0;color-rendering:auto;image-rendering:auto;shape-rendering:auto;text-rendering:auto;enable-background:accumulate"
           id="g8"><line
             style="color:#000000;clip-rule:nonzero;display:inline;overflow:visible;visibility:visible;isolation:auto;mix-blend-mode:normal;color-interpolation:sRGB;color-interpolation-filters:linearRGB;solid-color:#000000;solid-opacity:1;fill:#bcbd22;fill-opacity:1;fill-rule:nonzero;stroke-width:1;stroke-linecap:butt;stroke-linejoin:miter;stroke-miterlimit:4;stroke-dasharray:none;stroke-dashoffset:0;stroke-opacity:1;filter-blend-mode:normal;filter-gaussianBlur-deviation:0;color-rendering:auto;image-rendering:auto;shape-rendering:auto;text-rendering:auto;enable-background:accumulate"
             id="line10"
             y2="382.861"
             x2="224.779"
             y1="60.869"
             x1="224.779"
             fill="#bcbd22" /><rect
             style="color:#000000;clip-rule:nonzero;display:inline;overflow:visible;visibility:visible;isolation:auto;mix-blend-mode:normal;color-interpolation:sRGB;color-interpolation-filters:linearRGB;solid-color:#000000;solid-opacity:1;fill:#bcbd22;fill-opacity:1;fill-rule:nonzero;stroke-width:1;stroke-linecap:butt;stroke-linejoin:miter;stroke-miterlimit:4;stroke-dasharray:none;stroke-dashoffset:0;stroke-opacity:1;filter-blend-mode:normal;filter-gaussianBlur-deviation:0;color-rendering:auto;image-rendering:auto;shape-rendering:auto;text-rendering:auto;enable-background:accumulate"
             id="rect12"
             height="321.993"
             width="20.979"
             y="60.869"
             x="214.289" /></g><path
           id="path14"
           d="M311.094,91.89c-30.594-12.723-37.927-26.057-87.889-24.422C136.892,70.292,66.587,137.73,66.587,224.09     c0,9.638,0.307-2.71,0.212,6.025l-19.927,1.006c0.455-8.706,0.104,2.517,0.104-7.036c0-97.169,79.055-176.178,176.228-176.228     C269.833,47.833,289,56,322.344,73.636 M399.73,209.851c0.497,5.378-0.297,8.729-0.297,14.234     c0.001,97.18-79.075,174.413-176.229,176.232c-45.372,0.85-69.705-5.817-91.549-24.348l9.772-16.609     C164,375,180.5,382.5,223.205,380.71c86.281-3.616,156.619-70.258,156.619-156.62c0-3.902,0.904-9.877,0.626-13.708"
           fill="#bcbd22" /></g><polyline
         style="color:#000000;clip-rule:nonzero;display:inline;overflow:visible;visibility:visible;opacity:1;isolation:auto;mix-blend-mode:normal;color-interpolation:sRGB;color-interpolation-filters:linearRGB;solid-color:#000000;solid-opacity:1;fill:#bcbd22;fill-opacity:1;fill-rule:nonzero;stroke-width:1;stroke-linecap:butt;stroke-linejoin:miter;stroke-miterlimit:4;stroke-dasharray:none;stroke-dashoffset:0;stroke-opacity:1;filter-blend-mode:normal;filter-gaussianBlur-deviation:0;color-rendering:auto;image-rendering:auto;shape-rendering:auto;text-rendering:auto;enable-background:accumulate"
         id="polyline16"
         points="67.123,230.775 49.021,230.775 49.021,209.795 143.056,209.795 143.056,230.775 70.228,230.775   " /><polyline
         id="polyline18"
         points="167.188,230.776 132.135,230.776 132.135,209.796 384.194,209.796 384.194,230.776     184.16,230.776   "
         fill="#bcbd22" /><path
         id="path20"
         d="M166.278,321.597c26.222,41.903,62.862,52.81,62.862,52.81l-10.49,17.485c0,0-32.65-9.392-63.978-50.958    L166.278,321.597z"
         fill="#bcbd22" /><path
         id="path22"
         d="M113.509,218.787c1.761-96.312,103.394-166.066,103.394-166.066l12.937,16.435    c0,0-94.351,66.407-94.057,154.547c0.014,4.11-0.1,2.82,0.264,6.79"
         fill="#bcbd22" /><path
         id="path24"
         d="M295.755,114.668C269.5,59.5,236.565,52.721,236.565,52.721l-12.938,16.435    c0,0,35.872,10.344,57.174,69.109"
         fill="#bcbd22" /><path
         id="path26"
         d="M317.938,211.31c0.537,4.758-0.235,7.493-0.251,12.394c-0.31,92.49-93.359,150.703-93.359,150.703    l10.49,17.485c0,0,104.141-57.28,105.156-169.322c0.046-4.827-0.164-7.495-0.604-12.188"
         fill="#bcbd22" /><path
         id="path28"
         d="M224.205,167.879c45.295-0.879,42.281-5.472,42.281-5.472L285,130.5c0,0-0.475,15.07-59.832,16.138    c-72.817,1.311-123.429-36.714-123.429-36.714l-12.238,17.832C89.501,127.756,141.876,169.477,224.205,167.879z"
         fill="#bcbd22" /><path
         id="path30"
         d="M190.358,282.508c7.642-6.508,26.123-9.837,34.897-9.922C285.5,272,361.534,314.058,361.534,314.058    l-11.188,17.133c0,0-70.846-37.69-124.129-36.365c-18.714,0.466-31.717,4.675-51.725,14.849"
         fill="#bcbd22" /></g><g
       style="color:#000000;clip-rule:nonzero;display:inline;overflow:visible;visibility:visible;opacity:1;isolation:auto;mix-blend-mode:normal;color-interpolation:sRGB;color-interpolation-filters:linearRGB;solid-color:#000000;solid-opacity:1;fill:#bcbd22;fill-opacity:1;fill-rule:nonzero;stroke-width:1;stroke-linecap:butt;stroke-linejoin:miter;stroke-miterlimit:4;stroke-dasharray:none;stroke-dashoffset:0;stroke-opacity:1;filter-blend-mode:normal;filter-gaussianBlur-deviation:0;color-rendering:auto;image-rendering:auto;shape-rendering:auto;text-rendering:auto;enable-background:accumulate"
       id="Right_Arrow_1_"><path
         style="color:#000000;clip-rule:nonzero;display:inline;overflow:visible;visibility:visible;isolation:auto;mix-blend-mode:normal;color-interpolation:sRGB;color-interpolation-filters:linearRGB;solid-color:#000000;solid-opacity:1;fill:#bcbd22;fill-opacity:1;fill-rule:nonzero;stroke-width:1;stroke-linecap:butt;stroke-linejoin:miter;stroke-miterlimit:4;stroke-dasharray:none;stroke-dashoffset:0;stroke-opacity:1;filter-blend-mode:normal;filter-gaussianBlur-deviation:0;color-rendering:auto;image-rendering:auto;shape-rendering:auto;text-rendering:auto;enable-background:accumulate"
         id="path33"
         d="M323.458,146.478h86.046c10.979,0,10.979-35.489,0-35.489h-86.046C312.563,110.989,312.563,146.478,323.458,146.478"
         stroke="#bcbd22" /><polygon
         style="color:#000000;clip-rule:nonzero;display:inline;overflow:visible;visibility:visible;isolation:auto;mix-blend-mode:normal;color-interpolation:sRGB;color-interpolation-filters:linearRGB;solid-color:#000000;solid-opacity:1;fill:#bcbd22;fill-opacity:1;fill-rule:nonzero;stroke-width:1;stroke-linecap:butt;stroke-linejoin:miter;stroke-miterlimit:4;stroke-dasharray:none;stroke-dashoffset:0;stroke-opacity:1;filter-blend-mode:normal;filter-gaussianBlur-deviation:0;color-rendering:auto;image-rendering:auto;shape-rendering:auto;text-rendering:auto;enable-background:accumulate"
         id="polygon35"
         points="380.688,66.46 380.688,191.5 449,129.461   "
         stroke="#bcbd22" /></g><g
       id="Left_Arrow_2_"><path
         style="color:#000000;clip-rule:nonzero;display:inline;overflow:visible;visibility:visible;opacity:1;isolation:auto;mix-blend-mode:normal;color-interpolation:sRGB;color-interpolation-filters:linearRGB;solid-color:#000000;solid-opacity:1;fill:#bcbd22;fill-opacity:1;fill-rule:nonzero;stroke-width:1;stroke-linecap:butt;stroke-linejoin:miter;stroke-miterlimit:4;stroke-dasharray:none;stroke-dashoffset:0;stroke-opacity:1;filter-blend-mode:normal;filter-gaussianBlur-deviation:0;color-rendering:auto;image-rendering:auto;shape-rendering:auto;text-rendering:auto;enable-background:accumulate"
         id="path38"
         d="M8.149,342.413h79.157c10.947,0,10.947-37.603,0-37.603H8.149C-2.716,304.811-2.716,342.413,8.149,342.413"
         stroke="#bcbd22" /><polygon
         style="color:#000000;clip-rule:nonzero;display:inline;overflow:visible;visibility:visible;opacity:1;isolation:auto;mix-blend-mode:normal;color-interpolation:sRGB;color-interpolation-filters:linearRGB;solid-color:#000000;solid-opacity:1;fill:#bcbd22;fill-opacity:1;fill-rule:nonzero;stroke-width:1;stroke-linecap:butt;stroke-linejoin:miter;stroke-miterlimit:4;stroke-dasharray:none;stroke-dashoffset:0;stroke-opacity:1;filter-blend-mode:normal;filter-gaussianBlur-deviation:0;color-rendering:auto;image-rendering:auto;shape-rendering:auto;text-rendering:auto;enable-background:accumulate"
         id="polygon40"
         points="63.336,257.084 63.336,389.277 130.364,323.688   "
         stroke="#bcbd22" /></g></g></svg>