<?xml version="1.0" encoding="UTF-8" standalone="no"?>
<svg
   xmlns:dc="http://purl.org/dc/elements/1.1/"
   xmlns:cc="http://creativecommons.org/ns#"
   xmlns:rdf="http://www.w3.org/1999/02/22-rdf-syntax-ns#"
   xmlns:svg="http://www.w3.org/2000/svg"
   xmlns="http://www.w3.org/2000/svg"
   width="128mm"
   height="128mm"
   viewBox="0 0 453.54331 453.54331"
   id="svg2"
   version="1.1">
  <defs
     id="defs4" />
  <metadata
     id="metadata7">
    <rdf:RDF>
      <cc:Work
         rdf:about="">
        <dc:format>image/svg+xml</dc:format>
        <dc:type
           rdf:resource="http://purl.org/dc/dcmitype/StillImage" />
        <dc:title></dc:title>
      </cc:Work>
    </rdf:RDF>
  </metadata>
  <g
     style="fill:#ff7f0f;fill-opacity:0.94117647"
     id="layer1"
     transform="translate(0,-598.8189)">
    <g
       style="font-style:normal;font-variant:normal;font-weight:normal;font-stretch:normal;font-size:20px;line-height:125%;font-family:Overpass;-inkscape-font-specification:Overpass;text-align:start;letter-spacing:0px;word-spacing:0px;writing-mode:lr-tb;text-anchor:start;fill:#ff7f0f;fill-opacity:0.94117647;stroke:none;stroke-width:1px;stroke-linecap:butt;stroke-linejoin:miter;stroke-opacity:1"
       id="text3336"
       transform="matrix(22.360544,0,0,22.360544,-3451.036,-16898.696)">
      <path
         id="path3338"
         transform="matrix(0.04472163,0,0,0.04472163,154.33596,782.51741)"
         style="font-style:normal;font-variant:normal;font-weight:normal;font-stretch:normal;font-family:PatternFlyIcons-webfont;-inkscape-font-specification:PatternFlyIcons-webfont;fill:#ff7f0f;fill-opacity:0.94117647"
         d="m 211.87109,77.222656 c -20.38074,0 -39.4525,3.931896 -57.21289,11.792969 -17.76023,7.569939 -33.33544,18.050285 -46.72851,31.443355 -13.10194,13.10194 -23.584242,28.6791 -31.445315,46.73047 -7.569939,17.76039 -11.355469,36.68579 -11.355469,56.77539 0,6.99762 0.45721,13.83666 1.34961,20.52539 -2.581864,5.46762 -3.295507,15.08008 5.892578,25.76758 1.219544,3.6916 2.585327,7.33313 4.113281,10.91797 7.861073,17.76039 18.343375,33.33755 31.445315,46.73047 13.39307,13.39307 28.96828,23.87342 46.72851,31.44336 17.76039,7.57009 36.83215,11.35547 57.21289,11.35547 20.08946,0 39.01306,-3.78538 56.77344,-11.35547 18.05152,-7.56994 33.62868,-18.05029 46.73047,-31.44336 13.39307,-13.39292 23.87537,-28.97008 31.44531,-46.73047 7.86122,-17.76038 11.79102,-36.83034 11.79102,-57.21094 0,-17.80245 -3.09248,-34.68871 -9.26563,-50.66211 13.06521,-8.31807 12.01952,-11.10278 -12.50976,-25.76562 C 330.78966,137.57039 323.63757,128.54195 315.375,120.45898 302.27321,107.06591 286.69605,96.585564 268.64453,89.015625 250.88415,81.154552 231.96055,77.222656 211.87109,77.222656 Z m 124.96485,70.314454 c 3.75433,6.18866 7.08455,12.73738 9.98437,19.65234 0.89499,2.02198 1.7323,4.06111 2.52539,6.11328 l 33.97657,0 -0.0674,-25.76562 z m 45.79687,-46.29297 66.81836,59.83008 -66.81836,58.52344 c 0,0 1.46361,-23.72589 0,-118.35352 z M 72.371094,270.25781 c -2.747942,-8.3181 -4.71048,-16.90749 -5.892578,-25.76758 l -47.640625,0 c -8.734476,-0.29068 -13.103516,3.93199 -13.103516,12.66602 0,8.73462 4.36904,13.10156 13.103516,13.10156 z M 211.87109,101.24414 c 16.88684,0 32.75478,3.20217 47.60352,9.60742 15.14003,6.4054 28.24084,15.28565 39.30469,26.64063 3.26192,3.17833 6.31254,6.53022 9.16601,10.04492 0.54877,7.145 0.27125,18.46934 15.92774,25.76562 0.52867,1.15397 1.0482,2.31548 1.54687,3.49415 6.69654,14.84889 10.04492,30.86304 10.04492,48.04101 0,16.88683 -3.34838,32.89904 -10.04492,48.03906 -6.4054,14.84875 -15.28579,27.95166 -26.64062,39.30664 -11.06385,11.06385 -24.16466,19.94409 -39.30469,26.64063 -14.84874,6.40525 -30.71668,9.60742 -47.60352,9.60742 -17.17811,0 -33.33668,-3.20217 -48.47656,-9.60742 -14.84889,-6.69654 -27.95181,-15.57678 -39.30664,-26.64063 -11.06385,-11.35498 -19.79772,-24.45789 -26.203124,-39.30664 -0.368195,-0.87028 -0.723282,-1.74309 -1.070313,-2.61914 10.328847,-5.96043 3.223047,-17.84946 -7.023437,-25.76758 -1.004906,-6.41459 -1.515625,-12.9637 -1.515625,-19.65234 0,-17.17797 3.203973,-33.19212 9.609375,-48.04101 6.405404,-15.13988 15.139274,-28.24084 26.203124,-39.30469 11.35483,-11.35498 24.45775,-20.23523 39.30664,-26.64063 15.13988,-6.40525 31.29845,-9.60742 48.47656,-9.60742 z M 89.791016,244.49023 c 1.386347,8.84944 3.724514,17.43972 7.023437,25.76758 l 130.779297,0 0,-25.76758 z m 137.802734,0 c -4.9127,7.78428 -5.28521,18.52436 0,25.76759 l 0,48.91407 69.87695,-62.45313 -69.87695,-61.14258 z m 96.2793,-71.1875 c 0,0 -9.62151,-17.99805 -15.92774,-25.76562 l -100.4414,0 c -8.44335,0 -12.66602,4.36694 -12.66602,13.10156 0,8.44334 4.22267,12.66406 12.66602,12.66406 z" />
    </g>
  </g>
</svg>
